<?xml version="1.0" standalone="no"?>
 <!DOCTYPE svg PUBLIC "-//W3C//DTD SVG 1.1//EN" 
 "http://www.w3.org/Graphics/SVG/1.1/DTD/svg11.dtd"> 
<svg xmlns="http://www.w3.org/2000/svg" version="1.1" 
    width="12.5705cm" height="8.03656cm" viewBox="0 0 49490 31640 ">
<title>SVG Picture created as relays-brd.svg date 2018/06/28 23:57:28 </title>
  <desc>Picture generated by PCBNEW </desc>
<g style="fill:#000000; fill-opacity:1;stroke:#000000; stroke-opacity:1;
stroke-linecap:round; stroke-linejoin:round; "
 transform="translate(0 0) scale(1 1)">
</g>
<g style="fill:#000000; fill-opacity:0.0; 
stroke:#000000; stroke-width:-0.000393701; stroke-opacity:1; 
stroke-linecap:round; stroke-linejoin:round;">
</g>
<g style="fill:#000000; fill-opacity:0.0; 
stroke:#000000; stroke-width:118.11; stroke-opacity:1; 
stroke-linecap:round; stroke-linejoin:round;">
<path d="M37341 18586
L37313 18614
L37285 18698
L37285 18755
L37313 18839
L37369 18895
L37425 18923
L37538 18952
L37622 18952
L37735 18923
L37791 18895
L37847 18839
L37875 18755
L37875 18698
L37847 18614
L37819 18586
" />
<path d="M37875 18417
L37875 18080
" />
<path d="M37285 18248
L37875 18248
" />
<path d="M37313 17911
L37285 17827
L37285 17686
L37313 17630
L37341 17602
L37397 17574
L37453 17574
L37510 17602
L37538 17630
L37566 17686
L37594 17799
L37622 17855
L37650 17883
L37707 17911
L37763 17911
L37819 17883
L37847 17855
L37875 17799
L37875 17658
L37847 17574
" />
<path d="M38285 18922
L38875 18922
L38875 18781
L38847 18697
L38791 18641
L38735 18613
L38622 18584
L38538 18584
L38425 18613
L38369 18641
L38313 18697
L38285 18781
L38285 18922
" />
<path d="M38875 18416
L38875 18078
" />
<path d="M38285 18247
L38875 18247
" />
<path d="M38285 17544
L38566 17741
" />
<path d="M38285 17881
L38875 17881
L38875 17656
L38847 17600
L38819 17572
L38763 17544
L38678 17544
L38622 17572
L38594 17600
L38566 17656
L38566 17881
" />
</g>
<g style="fill:#000000; fill-opacity:0.0; 
stroke:#000000; stroke-width:98.4252; stroke-opacity:1; 
stroke-linecap:round; stroke-linejoin:round;">
<path d="M36977 15747
L36846 16141
L36714 15747
" />
<path d="M36358 16103
L36377 16122
L36433 16141
L36471 16141
L36527 16122
L36564 16084
L36583 16047
L36602 15972
L36602 15916
L36583 15841
L36564 15803
L36527 15766
L36471 15747
L36433 15747
L36377 15766
L36358 15784
" />
<path d="M35964 16103
L35983 16122
L36039 16141
L36077 16141
L36133 16122
L36171 16084
L36189 16047
L36208 15972
L36208 15916
L36189 15841
L36171 15803
L36133 15766
L36077 15747
L36039 15747
L35983 15766
L35964 15784
" />
<path d="M33652 16366
L33689 16347
L33746 16347
L33802 16366
L33839 16403
L33858 16441
L33877 16516
L33877 16572
L33858 16647
L33839 16684
L33802 16722
L33746 16741
L33708 16741
L33652 16722
L33633 16703
L33633 16572
L33708 16572
" />
<path d="M33464 16741
L33464 16347
L33239 16741
L33239 16347
" />
<path d="M33052 16741
L33052 16347
L32958 16347
L32902 16366
L32864 16403
L32846 16441
L32827 16516
L32827 16572
L32846 16647
L32864 16684
L32902 16722
L32958 16741
L33052 16741
" />
<path d="M36333 24041
L36464 23853
" />
<path d="M36558 24041
L36558 23647
L36408 23647
L36371 23666
L36352 23684
L36333 23722
L36333 23778
L36352 23816
L36371 23834
L36408 23853
L36558 23853
" />
<path d="M36202 24041
L35996 23778
" />
<path d="M36202 23778
L35996 24041
" />
<path d="M36614 24647
L36389 24647
" />
<path d="M36502 25041
L36502 24647
" />
<path d="M36296 25041
L36089 24778
" />
<path d="M36296 24778
L36089 25041
" />
</g>
<g style="fill:#000000; fill-opacity:0.0; 
stroke:#000000; stroke-width:118.11; stroke-opacity:1; 
stroke-linecap:round; stroke-linejoin:round;">
<path d="M37792 22226
L37837 22204
L37904 22204
L37972 22226
L38017 22271
L38039 22316
L38062 22406
L38062 22474
L38039 22564
L38017 22609
L37972 22654
L37904 22676
L37859 22676
L37792 22654
L37769 22631
L37769 22474
L37859 22474
" />
<path d="M37567 22676
L37567 22204
L37387 22204
L37342 22226
L37319 22249
L37297 22294
L37297 22361
L37319 22406
L37342 22429
L37387 22451
L37567 22451
" />
<path d="M37094 22676
L37094 22204
" />
<path d="M36780 22204
L36690 22204
L36645 22226
L36600 22271
L36577 22361
L36577 22519
L36600 22609
L36645 22654
L36690 22676
L36780 22676
L36825 22654
L36870 22609
L36892 22519
L36892 22361
L36870 22271
L36825 22226
L36780 22204
" />
<path d="M36150 22204
L36375 22204
L36397 22429
L36375 22406
L36330 22384
L36217 22384
L36172 22406
L36150 22429
L36127 22474
L36127 22586
L36150 22631
L36172 22654
L36217 22676
L36330 22676
L36375 22654
L36397 22631
" />
<path d="M37792 21226
L37837 21204
L37904 21204
L37972 21226
L38017 21271
L38039 21316
L38062 21406
L38062 21474
L38039 21564
L38017 21609
L37972 21654
L37904 21676
L37859 21676
L37792 21654
L37769 21631
L37769 21474
L37859 21474
" />
<path d="M37567 21676
L37567 21204
L37387 21204
L37342 21226
L37319 21249
L37297 21294
L37297 21361
L37319 21406
L37342 21429
L37387 21451
L37567 21451
" />
<path d="M37094 21676
L37094 21204
" />
<path d="M36780 21204
L36690 21204
L36645 21226
L36600 21271
L36577 21361
L36577 21519
L36600 21609
L36645 21654
L36690 21676
L36780 21676
L36825 21654
L36870 21609
L36892 21519
L36892 21361
L36870 21271
L36825 21226
L36780 21204
" />
<path d="M36172 21361
L36172 21676
" />
<path d="M36285 21181
L36397 21519
L36105 21519
" />
</g>
<g style="fill:#000000; fill-opacity:0.0; 
stroke:#000000; stroke-width:0; stroke-opacity:1; 
stroke-linecap:round; stroke-linejoin:round;">
</g>
<g style="fill:#000000; fill-opacity:1.0; 
stroke:#000000; stroke-width:0; stroke-opacity:1; 
stroke-linecap:round; stroke-linejoin:round;">
<polyline style="fill-rule:evenodd;"
points="37217,20197
37217,19528
37886,19528
37886,20197
37217,20197
" /> 
<polyline style="fill-rule:evenodd;"
points="38217,20197
38217,19528
38886,19528
38886,20197
38217,20197
" /> 
<circle cx="27052.3" cy="7063.06" r="393.701" /> 
</g>
<g style="fill:#000000; fill-opacity:1.0; 
stroke:#000000; stroke-width:39.3701; stroke-opacity:1; 
stroke-linecap:round; stroke-linejoin:round;">
</g>
<g style="fill:#000000; fill-opacity:1.0; 
stroke:#000000; stroke-width:0; stroke-opacity:1; 
stroke-linecap:round; stroke-linejoin:round;">
<circle cx="31052.3" cy="7063.06" r="393.701" /> 
</g>
<g style="fill:#000000; fill-opacity:1.0; 
stroke:#000000; stroke-width:39.3701; stroke-opacity:1; 
stroke-linecap:round; stroke-linejoin:round;">
</g>
<g style="fill:#000000; fill-opacity:1.0; 
stroke:#000000; stroke-width:0; stroke-opacity:1; 
stroke-linecap:round; stroke-linejoin:round;">
<circle cx="34052.3" cy="7063.06" r="393.701" /> 
</g>
<g style="fill:#000000; fill-opacity:1.0; 
stroke:#000000; stroke-width:39.3701; stroke-opacity:1; 
stroke-linecap:round; stroke-linejoin:round;">
</g>
<g style="fill:#000000; fill-opacity:1.0; 
stroke:#000000; stroke-width:0; stroke-opacity:1; 
stroke-linecap:round; stroke-linejoin:round;">
<circle cx="34052.3" cy="4063.06" r="393.701" /> 
</g>
<g style="fill:#000000; fill-opacity:1.0; 
stroke:#000000; stroke-width:39.3701; stroke-opacity:1; 
stroke-linecap:round; stroke-linejoin:round;">
</g>
<g style="fill:#000000; fill-opacity:1.0; 
stroke:#000000; stroke-width:0; stroke-opacity:1; 
stroke-linecap:round; stroke-linejoin:round;">
<circle cx="27052.3" cy="4063.06" r="393.701" /> 
</g>
<g style="fill:#000000; fill-opacity:1.0; 
stroke:#000000; stroke-width:39.3701; stroke-opacity:1; 
stroke-linecap:round; stroke-linejoin:round;">
</g>
<g style="fill:#000000; fill-opacity:1.0; 
stroke:#000000; stroke-width:0; stroke-opacity:1; 
stroke-linecap:round; stroke-linejoin:round;">
<circle cx="27052.3" cy="13063.1" r="393.701" /> 
</g>
<g style="fill:#000000; fill-opacity:1.0; 
stroke:#000000; stroke-width:39.3701; stroke-opacity:1; 
stroke-linecap:round; stroke-linejoin:round;">
</g>
<g style="fill:#000000; fill-opacity:1.0; 
stroke:#000000; stroke-width:0; stroke-opacity:1; 
stroke-linecap:round; stroke-linejoin:round;">
<circle cx="31052.3" cy="13063.1" r="393.701" /> 
</g>
<g style="fill:#000000; fill-opacity:1.0; 
stroke:#000000; stroke-width:39.3701; stroke-opacity:1; 
stroke-linecap:round; stroke-linejoin:round;">
</g>
<g style="fill:#000000; fill-opacity:1.0; 
stroke:#000000; stroke-width:0; stroke-opacity:1; 
stroke-linecap:round; stroke-linejoin:round;">
<circle cx="34052.3" cy="13063.1" r="393.701" /> 
</g>
<g style="fill:#000000; fill-opacity:1.0; 
stroke:#000000; stroke-width:39.3701; stroke-opacity:1; 
stroke-linecap:round; stroke-linejoin:round;">
</g>
<g style="fill:#000000; fill-opacity:1.0; 
stroke:#000000; stroke-width:0; stroke-opacity:1; 
stroke-linecap:round; stroke-linejoin:round;">
<circle cx="34052.3" cy="10063.1" r="393.701" /> 
</g>
<g style="fill:#000000; fill-opacity:1.0; 
stroke:#000000; stroke-width:39.3701; stroke-opacity:1; 
stroke-linecap:round; stroke-linejoin:round;">
</g>
<g style="fill:#000000; fill-opacity:1.0; 
stroke:#000000; stroke-width:0; stroke-opacity:1; 
stroke-linecap:round; stroke-linejoin:round;">
<circle cx="27052.3" cy="10063.1" r="393.701" /> 
</g>
<g style="fill:#000000; fill-opacity:1.0; 
stroke:#000000; stroke-width:39.3701; stroke-opacity:1; 
stroke-linecap:round; stroke-linejoin:round;">
</g>
<g style="fill:#000000; fill-opacity:1.0; 
stroke:#000000; stroke-width:0; stroke-opacity:1; 
stroke-linecap:round; stroke-linejoin:round;">
<polyline style="fill-rule:evenodd;"
points="26272,24441
26272,24008
27257,24008
27257,24441
26272,24441
" /> 
<polyline style="fill-rule:evenodd;"
points="26272,23654
26272,23221
27257,23221
27257,23654
26272,23654
" /> 
<polyline style="fill-rule:evenodd;"
points="26272,22866
26272,22433
27257,22433
27257,22866
26272,22866
" /> 
<polyline style="fill-rule:evenodd;"
points="26272,22079
26272,21646
27257,21646
27257,22079
26272,22079
" /> 
<polyline style="fill-rule:evenodd;"
points="26272,21292
26272,20859
27257,20859
27257,21292
26272,21292
" /> 
<polyline style="fill-rule:evenodd;"
points="26272,20504
26272,20071
27257,20071
27257,20504
26272,20504
" /> 
<polyline style="fill-rule:evenodd;"
points="26272,19717
26272,19284
27257,19284
27257,19717
26272,19717
" /> 
<polyline style="fill-rule:evenodd;"
points="26272,18929
26272,18496
27257,18496
27257,18929
26272,18929
" /> 
<polyline style="fill-rule:evenodd;"
points="32335,18929
32335,18496
33320,18496
33320,18929
32335,18929
" /> 
<polyline style="fill-rule:evenodd;"
points="32335,19717
32335,19284
33320,19284
33320,19717
32335,19717
" /> 
<polyline style="fill-rule:evenodd;"
points="32335,20504
32335,20071
33320,20071
33320,20504
32335,20504
" /> 
<polyline style="fill-rule:evenodd;"
points="32335,21292
32335,20859
33320,20859
33320,21292
32335,21292
" /> 
<polyline style="fill-rule:evenodd;"
points="32335,22079
32335,21646
33320,21646
33320,22079
32335,22079
" /> 
<polyline style="fill-rule:evenodd;"
points="32335,22866
32335,22433
33320,22433
33320,22866
32335,22866
" /> 
<polyline style="fill-rule:evenodd;"
points="32335,23654
32335,23221
33320,23221
33320,23654
32335,23654
" /> 
<polyline style="fill-rule:evenodd;"
points="32335,24441
32335,24008
33320,24008
33320,24441
32335,24441
" /> 
<polyline style="fill-rule:evenodd;"
points="27607,17552
28040,17552
28040,18536
27607,18536
27607,17552
" /> 
<polyline style="fill-rule:evenodd;"
points="28394,17552
28827,17552
28827,18536
28394,18536
28394,17552
" /> 
<polyline style="fill-rule:evenodd;"
points="29182,17552
29615,17552
29615,18536
29182,18536
29182,17552
" /> 
<polyline style="fill-rule:evenodd;"
points="29969,17552
30402,17552
30402,18536
29969,18536
29969,17552
" /> 
<polyline style="fill-rule:evenodd;"
points="30757,17552
31190,17552
31190,18536
30757,18536
30757,17552
" /> 
<polyline style="fill-rule:evenodd;"
points="31544,17552
31977,17552
31977,18536
31544,18536
31544,17552
" /> 
<polyline style="fill-rule:evenodd;"
points="13741,21674
13741,23052
12363,23052
12363,21674
13741,21674
" /> 
<circle cx="8327.93" cy="22363.1" r="688.976" /> 
</g>
<g style="fill:#000000; fill-opacity:1.0; 
stroke:#000000; stroke-width:39.3701; stroke-opacity:1; 
stroke-linecap:round; stroke-linejoin:round;">
</g>
<g style="fill:#000000; fill-opacity:1.0; 
stroke:#000000; stroke-width:0; stroke-opacity:1; 
stroke-linecap:round; stroke-linejoin:round;">
<circle cx="8327.93" cy="7008.73" r="590.551" /> 
</g>
<g style="fill:#000000; fill-opacity:1.0; 
stroke:#000000; stroke-width:39.3701; stroke-opacity:1; 
stroke-linecap:round; stroke-linejoin:round;">
</g>
<g style="fill:#000000; fill-opacity:1.0; 
stroke:#000000; stroke-width:0; stroke-opacity:1; 
stroke-linecap:round; stroke-linejoin:round;">
<circle cx="11083.8" cy="7008.73" r="590.551" /> 
</g>
<g style="fill:#000000; fill-opacity:1.0; 
stroke:#000000; stroke-width:39.3701; stroke-opacity:1; 
stroke-linecap:round; stroke-linejoin:round;">
</g>
<g style="fill:#000000; fill-opacity:1.0; 
stroke:#000000; stroke-width:0; stroke-opacity:1; 
stroke-linecap:round; stroke-linejoin:round;">
<polyline style="fill-rule:evenodd;"
points="25227,9563
24777,9563
24777,9363
25227,9363
25227,9563
" /> 
<polyline style="fill-rule:evenodd;"
points="25227,8563
24777,8563
24777,8363
25227,8363
25227,8563
" /> 
<polyline style="fill-rule:evenodd;"
points="25227,8063
24777,8063
24777,7863
25227,7863
25227,8063
" /> 
<polyline style="fill-rule:evenodd;"
points="22727,8063
22277,8063
22277,7863
22727,7863
22727,8063
" /> 
<polyline style="fill-rule:evenodd;"
points="22727,8563
22277,8563
22277,8363
22727,8363
22727,8563
" /> 
<polyline style="fill-rule:evenodd;"
points="22727,9063
22277,9063
22277,8863
22727,8863
22727,9063
" /> 
<polyline style="fill-rule:evenodd;"
points="22727,9563
22277,9563
22277,9363
22727,9363
22727,9563
" /> 
<polyline style="fill-rule:evenodd;"
points="22727,10063
22277,10063
22277,9863
22727,9863
22727,10063
" /> 
<polyline style="fill-rule:evenodd;"
points="25227,9063
24777,9063
24777,8863
25227,8863
25227,9063
" /> 
<polyline style="fill-rule:evenodd;"
points="25227,10063
24777,10063
24777,9863
25227,9863
25227,10063
" /> 
<polyline style="fill-rule:evenodd;"
points="25798,18958
25306,18958
25306,18367
25798,18367
25798,18958
" /> 
<polyline style="fill-rule:evenodd;"
points="25798,17974
25306,17974
25306,17383
25798,17383
25798,17974
" /> 
<polyline style="fill-rule:evenodd;"
points="28586,16697
27917,16697
27917,16028
28586,16028
28586,16697
" /> 
</g>
<g style="fill:#000000; fill-opacity:1.0; 
stroke:#000000; stroke-width:669.291; stroke-opacity:1; 
stroke-linecap:round; stroke-linejoin:round;">
</g>
<g style="fill:#000000; fill-opacity:0.0; 
stroke:#000000; stroke-width:669.291; stroke-opacity:1; 
stroke-linecap:round; stroke-linejoin:round;">
<path d="M29252 16363
L29252 16363
" />
<path d="M30252 16363
L30252 16363
" />
</g>
<g style="fill:#000000; fill-opacity:1.0; 
stroke:#000000; stroke-width:0; stroke-opacity:1; 
stroke-linecap:round; stroke-linejoin:round;">
<circle cx="37352.3" cy="8094.56" r="492.126" /> 
</g>
<g style="fill:#000000; fill-opacity:1.0; 
stroke:#000000; stroke-width:39.3701; stroke-opacity:1; 
stroke-linecap:round; stroke-linejoin:round;">
</g>
<g style="fill:#000000; fill-opacity:1.0; 
stroke:#000000; stroke-width:0; stroke-opacity:1; 
stroke-linecap:round; stroke-linejoin:round;">
<polyline style="fill-rule:evenodd;"
points="37844,12523
36860,12523
36860,11539
37844,11539
37844,12523
" /> 
<circle cx="37352.3" cy="10063.1" r="492.126" /> 
</g>
<g style="fill:#000000; fill-opacity:1.0; 
stroke:#000000; stroke-width:39.3701; stroke-opacity:1; 
stroke-linecap:round; stroke-linejoin:round;">
</g>
<g style="fill:#000000; fill-opacity:1.0; 
stroke:#000000; stroke-width:0; stroke-opacity:1; 
stroke-linecap:round; stroke-linejoin:round;">
<polyline style="fill-rule:evenodd;"
points="9391,26655
9391,25670
10375,25670
10375,26655
9391,26655
" /> 
<circle cx="11852.3" cy="26163.1" r="492.126" /> 
</g>
<g style="fill:#000000; fill-opacity:1.0; 
stroke:#000000; stroke-width:39.3701; stroke-opacity:1; 
stroke-linecap:round; stroke-linejoin:round;">
</g>
<g style="fill:#000000; fill-opacity:1.0; 
stroke:#000000; stroke-width:0; stroke-opacity:1; 
stroke-linecap:round; stroke-linejoin:round;">
<polyline style="fill-rule:evenodd;"
points="10017,3328
10686,3328
10686,3997
10017,3997
10017,3328
" /> 
</g>
<g style="fill:#000000; fill-opacity:1.0; 
stroke:#000000; stroke-width:669.291; stroke-opacity:1; 
stroke-linecap:round; stroke-linejoin:round;">
</g>
<g style="fill:#000000; fill-opacity:0.0; 
stroke:#000000; stroke-width:669.291; stroke-opacity:1; 
stroke-linecap:round; stroke-linejoin:round;">
<path d="M9352 3663
L9352 3663
" />
</g>
<g style="fill:#000000; fill-opacity:0.0; 
stroke:#000000; stroke-width:0; stroke-opacity:1; 
stroke-linecap:round; stroke-linejoin:round;">
</g>
<g style="fill:#000000; fill-opacity:1.0; 
stroke:#000000; stroke-width:0; stroke-opacity:1; 
stroke-linecap:round; stroke-linejoin:round;">
<polyline style="fill-rule:evenodd;"
points="35586,24528
35586,25197
34917,25197
34917,24528
35586,24528
" /> 
</g>
<g style="fill:#000000; fill-opacity:1.0; 
stroke:#000000; stroke-width:669.291; stroke-opacity:1; 
stroke-linecap:round; stroke-linejoin:round;">
</g>
<g style="fill:#000000; fill-opacity:0.0; 
stroke:#000000; stroke-width:669.291; stroke-opacity:1; 
stroke-linecap:round; stroke-linejoin:round;">
<path d="M35252 23863
L35252 23863
" />
</g>
<g style="fill:#000000; fill-opacity:0.0; 
stroke:#000000; stroke-width:0; stroke-opacity:1; 
stroke-linecap:round; stroke-linejoin:round;">
</g>
<g style="fill:#000000; fill-opacity:1.0; 
stroke:#000000; stroke-width:0; stroke-opacity:1; 
stroke-linecap:round; stroke-linejoin:round;">
<polyline style="fill-rule:evenodd;"
points="35586,22028
35586,22697
34917,22697
34917,22028
35586,22028
" /> 
</g>
<g style="fill:#000000; fill-opacity:1.0; 
stroke:#000000; stroke-width:669.291; stroke-opacity:1; 
stroke-linecap:round; stroke-linejoin:round;">
</g>
<g style="fill:#000000; fill-opacity:0.0; 
stroke:#000000; stroke-width:669.291; stroke-opacity:1; 
stroke-linecap:round; stroke-linejoin:round;">
<path d="M35252 21363
L35252 21363
" />
</g>
<g style="fill:#000000; fill-opacity:0.0; 
stroke:#000000; stroke-width:0; stroke-opacity:1; 
stroke-linecap:round; stroke-linejoin:round;">
</g>
<g style="fill:#000000; fill-opacity:1.0; 
stroke:#000000; stroke-width:0; stroke-opacity:1; 
stroke-linecap:round; stroke-linejoin:round;">
<polyline style="fill-rule:evenodd;"
points="35417,16628
36086,16628
36086,17297
35417,17297
35417,16628
" /> 
</g>
<g style="fill:#000000; fill-opacity:1.0; 
stroke:#000000; stroke-width:669.291; stroke-opacity:1; 
stroke-linecap:round; stroke-linejoin:round;">
</g>
<g style="fill:#000000; fill-opacity:0.0; 
stroke:#000000; stroke-width:669.291; stroke-opacity:1; 
stroke-linecap:round; stroke-linejoin:round;">
<path d="M34752 16963
L34752 16963
" />
</g>
<g style="fill:#000000; fill-opacity:0.0; 
stroke:#000000; stroke-width:0; stroke-opacity:1; 
stroke-linecap:round; stroke-linejoin:round;">
</g>
<g style="fill:#000000; fill-opacity:1.0; 
stroke:#000000; stroke-width:0; stroke-opacity:1; 
stroke-linecap:round; stroke-linejoin:round;">
<polyline style="fill-rule:evenodd;"
points="22172,11009
22172,10516
22763,10516
22763,11009
22172,11009
" /> 
<polyline style="fill-rule:evenodd;"
points="23157,11009
23157,10516
23747,10516
23747,11009
23157,11009
" /> 
<polyline style="fill-rule:evenodd;"
points="34496,18167
35008,18167
35008,18758
34496,18758
34496,18167
" /> 
<polyline style="fill-rule:evenodd;"
points="34496,19230
35008,19230
35008,19821
34496,19821
34496,19230
" /> 
<polyline style="fill-rule:evenodd;"
points="25210,23407
25210,23918
24620,23918
24620,23407
25210,23407
" /> 
<polyline style="fill-rule:evenodd;"
points="24147,23407
24147,23918
23557,23918
23557,23407
24147,23407
" /> 
<polyline style="fill-rule:evenodd;"
points="23557,24918
23557,24407
24147,24407
24147,24918
23557,24918
" /> 
<polyline style="fill-rule:evenodd;"
points="24620,24918
24620,24407
25210,24407
25210,24918
24620,24918
" /> 
<polyline style="fill-rule:evenodd;"
points="23557,22918
23557,22407
24147,22407
24147,22918
23557,22918
" /> 
<polyline style="fill-rule:evenodd;"
points="24620,22918
24620,22407
25210,22407
25210,22918
24620,22918
" /> 
<polyline style="fill-rule:evenodd;"
points="36008,19821
35496,19821
35496,19230
36008,19230
36008,19821
" /> 
<polyline style="fill-rule:evenodd;"
points="36008,18758
35496,18758
35496,18167
36008,18167
36008,18758
" /> 
<circle cx="22852.3" cy="22663.1" r="314.961" /> 
</g>
<g style="fill:#000000; fill-opacity:1.0; 
stroke:#000000; stroke-width:39.3701; stroke-opacity:1; 
stroke-linecap:round; stroke-linejoin:round;">
</g>
<g style="fill:#000000; fill-opacity:1.0; 
stroke:#000000; stroke-width:0; stroke-opacity:1; 
stroke-linecap:round; stroke-linejoin:round;">
<circle cx="22852.3" cy="18663.1" r="314.961" /> 
</g>
<g style="fill:#000000; fill-opacity:1.0; 
stroke:#000000; stroke-width:39.3701; stroke-opacity:1; 
stroke-linecap:round; stroke-linejoin:round;">
</g>
<g style="fill:#000000; fill-opacity:1.0; 
stroke:#000000; stroke-width:295.276; stroke-opacity:1; 
stroke-linecap:round; stroke-linejoin:round;">
</g>
<g style="fill:#000000; fill-opacity:0.0; 
stroke:#000000; stroke-width:295.276; stroke-opacity:1; 
stroke-linecap:round; stroke-linejoin:round;">
<path d="M25002 9963
L25002 11013
" />
<path d="M25002 11013
L27052 13063
" />
</g>
<g style="fill:#000000; fill-opacity:0.0; 
stroke:#000000; stroke-width:1574.8; stroke-opacity:1; 
stroke-linecap:round; stroke-linejoin:round;">
<path d="M8327 22363
L8327 24607
" />
<path d="M8327 24607
L9883 26163
" />
</g>
<g style="fill:#000000; fill-opacity:0.0; 
stroke:#000000; stroke-width:295.276; stroke-opacity:1; 
stroke-linecap:round; stroke-linejoin:round;">
<path d="M25002 9463
L26452 9463
" />
<path d="M26452 9463
L27052 10063
" />
</g>
<g style="fill:#000000; fill-opacity:0.0; 
stroke:#000000; stroke-width:300; stroke-opacity:1; 
stroke-linecap:round; stroke-linejoin:round;">
<path d="M26449 8965
L27052 8363
" />
<path d="M27052 8363
L27052 7063
" />
<path d="M25154 8965
L26449 8965
" />
<path d="M25002 8963
L25152 8963
" />
<path d="M25152 8963
L25154 8965
" />
<path d="M11083 4394
L10352 3663
" />
<path d="M11083 7008
L11083 4394
" />
<path d="M8327 7008
L8327 4687
" />
<path d="M8327 4687
L9352 3663
" />
<path d="M26052 5963
L26052 5063
" />
<path d="M26052 5063
L27052 4063
" />
</g>
<g style="fill:#000000; fill-opacity:0.0; 
stroke:#000000; stroke-width:295.276; stroke-opacity:1; 
stroke-linecap:round; stroke-linejoin:round;">
<path d="M26052 7963
L26052 5963
" />
<path d="M25604 8410
L26052 7963
" />
<path d="M25002 8463
L25152 8463
" />
<path d="M25152 8463
L25204 8410
" />
<path d="M25204 8410
L25604 8410
" />
</g>
<g style="fill:#000000; fill-opacity:0.0; 
stroke:#000000; stroke-width:1574.8; stroke-opacity:1; 
stroke-linecap:round; stroke-linejoin:round;">
<path d="M13052 22363
L13052 24963
" />
<path d="M13052 24963
L11852 26163
" />
<path d="M31052 13063
L31052 7063
" />
</g>
<g style="fill:#000000; fill-opacity:0.0; 
stroke:#000000; stroke-width:200; stroke-opacity:1; 
stroke-linecap:round; stroke-linejoin:round;">
<path d="M32552 23437
L34827 23437
" />
<path d="M34827 23437
L35252 23863
" />
<path d="M33614 24225
L34252 24863
" />
<path d="M34252 24863
L35252 24863
" />
<path d="M33614 24225
L33614 24259
" />
<path d="M32552 24225
L33614 24225
" />
<path d="M32552 21863
L33752 21863
" />
<path d="M34252 21363
L35252 21363
" />
<path d="M33752 21863
L34252 21363
" />
<path d="M33964 22650
L34252 22363
" />
<path d="M34252 22363
L35252 22363
" />
<path d="M32552 22650
L33964 22650
" />
<path d="M32552 22650
L32564 22663
" />
<path d="M29252 16363
L29252 18173
" />
<path d="M29252 18173
L29398 18319
" />
<path d="M30252 16363
L30252 18253
" />
<path d="M30252 18253
L30186 18319
" />
<path d="M21202 8463
L20602 9063
" />
<path d="M20602 9063
L20602 20413
" />
<path d="M20602 20413
L21264 21075
" />
<path d="M21252 8463
L21202 8463
" />
</g>
<g style="fill:#000000; fill-opacity:0.0; 
stroke:#000000; stroke-width:196.85; stroke-opacity:1; 
stroke-linecap:round; stroke-linejoin:round;">
<path d="M22502 8463
L21252 8463
" />
<path d="M21264 21075
L27040 21075
" />
</g>
<g style="fill:#000000; fill-opacity:0.0; 
stroke:#000000; stroke-width:200; stroke-opacity:1; 
stroke-linecap:round; stroke-linejoin:round;">
<path d="M21652 8963
L21002 9613
" />
<path d="M21002 9613
L21002 19913
" />
<path d="M21002 19913
L21377 20288
" />
<path d="M21377 20288
L21452 20288
" />
</g>
<g style="fill:#000000; fill-opacity:0.0; 
stroke:#000000; stroke-width:196.85; stroke-opacity:1; 
stroke-linecap:round; stroke-linejoin:round;">
<path d="M21452 20288
L27215 20288
" />
<path d="M22502 8963
L21652 8963
" />
</g>
<g style="fill:#000000; fill-opacity:0.0; 
stroke:#000000; stroke-width:200; stroke-opacity:1; 
stroke-linecap:round; stroke-linejoin:round;">
<path d="M22052 9463
L21402 10113
" />
<path d="M21402 10113
L21402 19313
" />
<path d="M21402 19313
L21590 19500
" />
</g>
<g style="fill:#000000; fill-opacity:0.0; 
stroke:#000000; stroke-width:196.85; stroke-opacity:1; 
stroke-linecap:round; stroke-linejoin:round;">
<path d="M22502 9463
L22052 9463
" />
<path d="M21590 19500
L27040 19500
" />
</g>
<g style="fill:#000000; fill-opacity:0.0; 
stroke:#000000; stroke-width:200; stroke-opacity:1; 
stroke-linecap:round; stroke-linejoin:round;">
<path d="M38552 19863
L38552 23663
" />
<path d="M38552 23663
L36252 25963
" />
<path d="M31014 24225
L27040 24225
" />
<path d="M36252 25963
L34252 25963
" />
<path d="M34252 25963
L33152 24863
" />
<path d="M33152 24863
L31652 24863
" />
<path d="M31652 24863
L31014 24225
" />
<path d="M26114 24225
L25552 23663
" />
<path d="M25552 23663
L24915 23663
" />
<path d="M27040 24225
L26114 24225
" />
</g>
<g style="fill:#000000; fill-opacity:0.0; 
stroke:#000000; stroke-width:196.85; stroke-opacity:1; 
stroke-linecap:round; stroke-linejoin:round;">
<path d="M27002 24263
L27040 24225
" />
</g>
<g style="fill:#000000; fill-opacity:0.0; 
stroke:#000000; stroke-width:1574.8; stroke-opacity:1; 
stroke-linecap:round; stroke-linejoin:round;">
<path d="M34052 7063
L36320 7063
" />
<path d="M36320 7063
L37352 8094
" />
<path d="M34052 13063
L36320 13063
" />
<path d="M36320 13063
L37352 12031
" />
<path d="M34052 10063
L37352 10063
" />
</g>
<g style="fill:#000000; fill-opacity:0.0; 
stroke:#000000; stroke-width:200; stroke-opacity:1; 
stroke-linecap:round; stroke-linejoin:round;">
<path d="M27040 21863
L22352 21863
" />
<path d="M22352 21863
L21752 22463
" />
<path d="M21752 22463
L21752 23063
" />
<path d="M21752 23063
L22352 23663
" />
<path d="M22352 23663
L23852 23663
" />
<path d="M23852 23663
L23852 24663
" />
<path d="M37215 19526
L37552 19863
" />
<path d="M32552 21075
L33639 21075
" />
<path d="M33639 21075
L34252 20463
" />
<path d="M34252 20463
L35252 20463
" />
<path d="M35252 20463
L35752 19963
" />
<path d="M35752 19526
L37215 19526
" />
<path d="M35752 19963
L35752 19526
" />
</g>
<g style="fill:#000000; fill-opacity:0.0; 
stroke:#000000; stroke-width:300; stroke-opacity:1; 
stroke-linecap:round; stroke-linejoin:round;">
<path d="M23252 25463
L24752 25463
" />
<path d="M24752 25463
L24915 25300
" />
<path d="M20002 8913
L20002 22213
" />
<path d="M20002 22213
L23252 25463
" />
<path d="M23352 5563
L20002 8913
" />
<path d="M22468 18278
L22852 18663
" />
<path d="M22468 10763
L22468 18278
" />
<path d="M22502 9963
L22502 10728
" />
<path d="M22502 10728
L22468 10763
" />
<path d="M35752 16963
L35752 18463
" />
<path d="M24915 25300
L24915 24663
" />
<path d="M22502 9963
L23152 9963
" />
<path d="M23152 9963
L23352 9763
" />
<path d="M23352 9763
L23352 5563
" />
<path d="M23352 5563
L25752 3163
" />
<path d="M25752 3163
L27852 3163
" />
<path d="M27852 3163
L28052 3363
" />
<path d="M28052 3363
L28052 14663
" />
<path d="M28052 14663
L28402 15013
" />
<path d="M28402 15013
L31238 15013
" />
<path d="M31238 15013
L32220 15994
" />
<path d="M32220 15994
L35418 15994
" />
<path d="M35418 15994
L35752 16328
" />
<path d="M35752 16328
L35752 16963
" />
<path d="M23889 22663
L22852 22663
" />
</g>
<g style="fill:#000000; fill-opacity:0.0; 
stroke:#000000; stroke-width:196.85; stroke-opacity:1; 
stroke-linecap:round; stroke-linejoin:round;">
<path d="M23852 22700
L23889 22663
" />
</g>
<g style="fill:#000000; fill-opacity:0.0; 
stroke:#000000; stroke-width:300; stroke-opacity:1; 
stroke-linecap:round; stroke-linejoin:round;">
<path d="M22852 18663
L25552 18663
" />
<path d="M28252 16363
L27617 16363
" />
<path d="M27617 16363
L27040 16940
" />
<path d="M27040 16940
L27040 18713
" />
<path d="M25552 18663
L26990 18663
" />
</g>
<g style="fill:#000000; fill-opacity:0.0; 
stroke:#000000; stroke-width:196.85; stroke-opacity:1; 
stroke-linecap:round; stroke-linejoin:round;">
<path d="M26990 18663
L27040 18713
" />
</g>
<g style="fill:#000000; fill-opacity:0.0; 
stroke:#000000; stroke-width:200; stroke-opacity:1; 
stroke-linecap:round; stroke-linejoin:round;">
<path d="M34752 16963
L34752 18463
" />
<path d="M32802 18463
L34752 18463
" />
</g>
<g style="fill:#000000; fill-opacity:0.0; 
stroke:#000000; stroke-width:196.85; stroke-opacity:1; 
stroke-linecap:round; stroke-linejoin:round;">
<path d="M24052 8063
L24052 10763
" />
<path d="M24052 10763
L24052 15463
" />
</g>
<g style="fill:#000000; fill-opacity:0.0; 
stroke:#000000; stroke-width:200; stroke-opacity:1; 
stroke-linecap:round; stroke-linejoin:round;">
<path d="M23452 10763
L24052 10763
" />
<path d="M24052 15463
L31052 15463
" />
<path d="M31052 15463
L32552 16963
" />
<path d="M32552 16963
L34752 16963
" />
</g>
<g style="fill:#000000; fill-opacity:0.0; 
stroke:#000000; stroke-width:196.85; stroke-opacity:1; 
stroke-linecap:round; stroke-linejoin:round;">
<path d="M24052 15463
L24052 17363
" />
</g>
<g style="fill:#000000; fill-opacity:0.0; 
stroke:#000000; stroke-width:200; stroke-opacity:1; 
stroke-linecap:round; stroke-linejoin:round;">
<path d="M32552 18713
L32802 18463
" />
</g>
<g style="fill:#000000; fill-opacity:0.0; 
stroke:#000000; stroke-width:196.85; stroke-opacity:1; 
stroke-linecap:round; stroke-linejoin:round;">
<path d="M25002 7963
L24152 7963
" />
<path d="M24152 7963
L24052 8063
" />
<path d="M24052 17363
L24368 17678
" />
<path d="M24368 17678
L25552 17678
" />
<path d="M24952 22663
L27027 22663
" />
<path d="M27027 22663
L27040 22650
" />
</g>
<g style="fill:#000000; fill-opacity:0.0; 
stroke:#000000; stroke-width:200; stroke-opacity:1; 
stroke-linecap:round; stroke-linejoin:round;">
<path d="M32552 19500
L32577 19526
" />
<path d="M32577 19526
L34752 19526
" />
</g>
<g style="fill:#000000; fill-opacity:1.0; 
stroke:#000000; stroke-width:48.8189; stroke-opacity:1; 
stroke-linecap:round; stroke-linejoin:round;">
<polyline style="fill-rule:evenodd;"
points="26712,3554
26543,3722
26452,3943
26452,4159
25800,4811
25723,4926
25723,4926
25696,5063
25696,5063
25696,5963
25698,5974
25698,7816
25458,8056
25333,8056
25333,8033
25307,8006
25046,8006
25046,8014
24958,8014
24958,8006
24697,8006
24671,8033
24671,8084
24687,8123
24717,8153
24735,8160
24700,8167
24630,8212
24583,8281
24567,8363
24567,8563
24581,8639
24626,8709
24630,8712
24583,8781
24567,8863
24567,9063
24581,9139
24626,9209
24630,9212
24583,9281
24567,9363
24567,9563
24581,9639
24626,9709
24630,9712
24583,9781
24567,9863
24567,10063
24581,10139
24626,10209
24648,10224
24648,11013
24675,11148
24752,11263
26452,12963
26452,13181
26543,13402
26712,13571
26932,13662
27171,13663
27391,13572
27560,13403
27652,13182
27652,12944
27561,12723
27392,12554
27172,12463
26952,12462
25356,10866
25356,10225
25374,10213
25421,10144
25437,10063
25437,9863
25429,9816
26305,9816
26452,9963
26452,10181
26543,10402
26712,10571
26932,10662
27171,10663
27391,10572
27560,10403
27652,10182
27652,9944
27561,9723
27392,9554
27172,9463
26952,9462
26704,9214
27304,8615
27304,8615
27381,8499
27381,8499
27408,8363
27408,8363
27408,7555
27560,7403
27652,7182
27652,6944
27561,6723
27392,6554
27172,6463
26933,6462
26712,6554
26543,6722
26452,6943
26452,7181
26543,7402
26696,7555
26696,8215
26302,8609
25906,8609
26302,8213
26343,8152
26379,8098
26406,7963
26406,5974
26408,5963
26408,5210
26956,4662
27171,4663
27391,4572
27560,4403
27652,4182
27652,3944
27561,3723
27392,3554
27307,3519
27696,3519
27696,14663
27696,14663
27715,14761
27723,14799
27774,14876
27800,14915
28150,15264
28150,15264
28227,15316
28265,15342
28402,15369
28402,15369
31091,15369
31968,16246
32084,16324
32220,16351
32646,16351
32646,17033
34058,17033
34058,16851
34325,16851
34340,16919
34708,16919
34708,16551
34796,16551
34796,16919
35164,16919
35178,16851
35103,16696
34974,16582
34864,16536
34796,16551
34708,16551
34640,16536
34529,16582
34401,16696
34325,16851
34058,16851
34058,16351
35271,16351
35350,16430
35341,16432
35271,16477
35223,16546
35207,16628
35207,17297
35221,17374
35266,17444
35335,17491
35396,17503
35396,17987
35349,18017
35302,18085
35286,18167
35286,18758
35300,18834
35345,18904
35414,18952
35496,18968
36008,18968
36084,18954
36154,18909
36202,18840
36218,18758
36218,18167
36204,18091
36159,18021
36108,17986
36108,17503
36163,17493
36233,17448
36280,17379
36285,17355
36914,17355
36914,19170
38131,19170
38131,19169
39131,19169
39131,17325
37914,17325
37914,17355
36914,17355
36285,17355
36297,17297
36297,16628
36282,16551
36237,16481
36168,16434
36163,16433
37121,16433
37121,15531
35783,15531
35783,15855
35670,15742
35555,15665
35532,15661
35418,15638
35418,15638
32368,15638
31498,14769
33119,14769
33296,14887
34052,15037
36320,15037
36320,15037
37076,14887
37253,14769
42872,14769
42872,20682
35471,28043
33158,28052
33158,25302
34035,26179
34135,26246
34252,26269
36252,26269
36369,26246
36468,26179
38768,23879
38835,23780
38858,23663
38858,20408
38886,20408
38963,20393
39033,20348
39080,20279
39097,20197
39097,19528
39082,19451
39037,19381
38968,19334
38886,19318
38217,19318
38141,19332
38071,19377
38052,19404
38037,19381
37968,19334
37886,19318
37440,19318
37431,19309
37395,19285
37332,19243
37215,19219
36216,19219
36204,19154
36159,19084
36090,19037
36008,19020
35496,19020
35419,19034
35349,19080
35302,19148
35286,19230
35286,19821
35300,19897
35333,19948
35125,20156
34252,20156
34135,20180
34035,20246
33512,20769
33507,20769
33470,20712
33425,20681
33466,20655
33513,20586
33530,20504
33530,20071
33516,19995
33470,19925
33425,19894
33466,19868
33491,19832
34288,19832
34300,19897
34345,19967
34414,20015
34496,20031
35008,20031
35084,20017
35154,19972
35202,19903
35218,19821
35218,19230
35204,19154
35159,19084
35090,19037
35008,19020
34496,19020
34419,19034
34349,19080
34302,19148
34288,19219
33518,19219
33516,19207
33470,19137
33401,19090
33320,19073
32335,19073
32259,19088
32189,19133
32142,19202
32125,19284
32125,19717
32139,19793
32185,19864
32229,19894
32189,19920
32142,19989
32125,20071
32125,20504
32139,20581
32185,20651
32229,20682
32189,20708
32142,20777
32125,20859
32125,21292
32139,21368
32185,21438
32229,21469
32189,21495
32142,21564
32125,21646
32125,22079
32139,22156
32185,22226
32229,22256
32189,22283
32142,22352
32125,22433
32125,22866
32139,22943
32185,23013
32229,23044
32189,23070
32142,23139
32125,23221
32125,23654
32139,23730
32185,23801
32229,23831
32189,23857
32142,23926
32125,24008
32125,24441
32139,24518
32164,24556
31779,24556
31231,24008
31188,23980
31131,23942
31014,23918
27444,23918
27407,23862
27362,23831
27403,23805
27450,23736
27467,23654
27467,23221
27453,23144
27407,23074
27362,23044
27403,23017
27450,22948
27467,22866
27467,22433
27453,22357
27407,22287
27362,22256
27403,22230
27450,22161
27467,22079
27467,21646
27453,21570
27407,21499
27362,21469
27403,21442
27450,21374
27467,21292
27467,20859
27453,20782
27407,20712
27362,20681
27403,20655
27450,20586
27467,20504
27467,20448
27496,20404
27520,20288
27496,20171
27467,20127
27467,20071
27453,19995
27407,19925
27362,19894
27403,19868
27450,19799
27467,19717
27467,19284
27453,19207
27407,19137
27362,19106
27403,19080
27450,19011
27467,18929
27467,18783
32229,18783
32229,18951
32245,18990
32275,19020
32314,19036
32757,19036
32784,19009
32784,18757
32871,18757
32871,19009
32898,19036
33341,19036
33380,19020
33410,18990
33426,18951
33426,18783
33399,18757
32871,18757
32784,18757
32256,18757
32229,18783
27467,18783
27467,18690
27525,18730
27607,18746
28040,18746
28116,18732
28187,18687
28217,18642
28244,18682
28313,18730
28394,18746
28827,18746
28904,18732
28974,18687
29005,18642
29031,18682
29100,18730
29182,18746
29615,18746
29691,18732
29761,18687
29792,18642
29818,18682
29887,18730
29969,18746
30402,18746
30479,18732
30549,18687
30580,18642
30606,18682
30675,18730
30757,18746
31190,18746
31266,18732
31336,18687
31367,18642
31393,18682
31462,18730
31544,18746
31977,18746
32053,18732
32124,18687
32171,18618
32187,18536
32187,18475
32229,18475
32229,18643
32256,18669
32784,18669
32784,18417
32871,18417
32871,18669
33399,18669
33426,18643
33426,18533
34390,18533
34390,18779
34406,18818
34436,18848
34475,18864
34682,18864
34708,18838
34708,18506
34796,18506
34796,18838
34822,18864
35029,18864
35068,18848
35098,18818
35114,18779
35114,18533
35087,18506
34796,18506
34708,18506
34416,18506
34390,18533
33426,18533
33426,18475
33410,18436
33380,18406
33341,18390
32898,18390
32871,18417
32784,18417
32757,18390
32314,18390
32275,18406
32245,18436
32229,18475
32187,18475
32187,18146
34390,18146
34390,18392
34416,18419
34708,18419
34708,18088
34796,18088
34796,18419
35087,18419
35114,18392
35114,18146
35098,18107
35068,18077
35029,18061
34822,18061
34796,18088
34708,18088
34682,18061
34475,18061
34436,18077
34406,18107
34390,18146
32187,18146
32187,17552
32173,17475
32128,17405
32059,17358
31977,17341
31544,17341
31468,17356
31397,17401
31367,17446
31340,17405
31271,17358
31190,17341
30757,17341
30680,17356
30610,17401
30579,17446
30558,17413
30558,17074
34325,17074
34401,17229
34529,17343
34640,17389
34708,17375
34708,17006
34796,17006
34796,17375
34864,17389
34974,17343
35103,17229
35178,17074
35164,17006
34796,17006
34708,17006
34340,17006
34325,17074
30558,17074
30558,16807
30634,16756
30752,16580
30793,16373
30793,16352
30752,16145
30634,15969
30459,15852
30252,15811
30045,15852
29869,15969
29752,16145
29752,16146
29752,16145
29634,15969
29459,15852
29252,15811
29045,15852
28869,15969
28797,16078
28797,16028
28782,15951
28737,15881
28668,15834
28586,15818
27917,15818
27841,15832
27771,15877
27723,15946
27711,16006
27617,16006
27481,16033
27412,16080
27365,16111
26788,16688
26711,16803
26711,16803
26684,16940
26684,16940
26684,18286
26272,18286
26196,18300
26187,18306
25997,18306
25994,18291
25949,18221
25880,18174
25798,18157
25306,18157
25229,18171
25159,18217
25112,18285
25108,18306
23121,18306
23103,18288
22940,18220
22913,18220
22858,18165
22858,17749
25199,17749
25199,17995
25216,18034
25246,18064
25285,18080
25482,18080
25508,18053
25508,17722
25596,17722
25596,18053
25622,18080
25819,18080
25858,18064
25888,18034
25904,17995
25904,17749
25878,17722
25596,17722
25508,17722
25226,17722
25199,17749
22858,17749
22858,17362
25199,17362
25199,17608
25226,17635
25508,17635
25508,17303
25596,17303
25596,17635
25878,17635
25904,17608
25904,17362
25888,17323
25858,17293
25819,17277
25622,17277
25596,17303
25508,17303
25482,17277
25285,17277
25246,17293
25216,17323
25199,17362
22858,17362
22858,11192
22910,11159
22957,11090
22973,11009
22973,10833
23050,10833
23050,11030
23066,11069
23096,11099
23135,11115
23382,11115
23408,11088
23408,10806
23496,10806
23496,11088
23522,11115
23768,11115
23807,11099
23837,11069
23853,11030
23853,10833
23827,10806
23496,10806
23408,10806
23077,10806
23050,10833
22973,10833
22973,10516
22969,10495
23050,10495
23050,10692
23077,10719
23408,10719
23408,10437
23496,10437
23496,10719
23827,10719
23853,10692
23853,10495
23837,10456
23807,10426
23768,10410
23522,10410
23496,10437
23408,10437
23382,10410
23135,10410
23096,10426
23066,10456
23050,10495
22969,10495
22959,10440
22914,10370
22858,10332
22858,10319
23152,10319
23152,10319
23266,10296
23288,10292
23404,10215
23604,10015
23604,10015
23681,9899
23708,9763
23708,7841
24671,7841
24671,7892
24697,7919
24958,7919
24958,7783
25046,7783
25046,7919
25307,7919
25333,7892
25333,7841
25317,7802
25287,7772
25248,7756
25072,7756
25046,7783
24958,7783
24932,7756
24756,7756
24717,7772
24687,7802
24671,7841
23708,7841
23708,5710
25899,3519
26797,3519
26712,3554
" /> 
</g>
<g style="fill:#FFFFFF; fill-opacity:1.0; 
stroke:#FFFFFF; stroke-width:48.8189; stroke-opacity:1; 
stroke-linecap:round; stroke-linejoin:round;">
</g>
<g style="fill:#FFFFFF; fill-opacity:1.0; 
stroke:#FFFFFF; stroke-width:0; stroke-opacity:1; 
stroke-linecap:round; stroke-linejoin:round;">
<circle cx="22852.3" cy="22663.1" r="157.48" /> 
</g>
<g style="fill:#FFFFFF; fill-opacity:1.0; 
stroke:#FFFFFF; stroke-width:39.3701; stroke-opacity:1; 
stroke-linecap:round; stroke-linejoin:round;">
</g>
<g style="fill:#FFFFFF; fill-opacity:1.0; 
stroke:#FFFFFF; stroke-width:0; stroke-opacity:1; 
stroke-linecap:round; stroke-linejoin:round;">
<circle cx="22852.3" cy="18663.1" r="157.48" /> 
</g>
<g style="fill:#FFFFFF; fill-opacity:1.0; 
stroke:#FFFFFF; stroke-width:39.3701; stroke-opacity:1; 
stroke-linecap:round; stroke-linejoin:round;">
</g>
<g style="fill:#FFFFFF; fill-opacity:1.0; 
stroke:#FFFFFF; stroke-width:0; stroke-opacity:1; 
stroke-linecap:round; stroke-linejoin:round;">
<circle cx="18802.3" cy="19613.1" r="629.921" /> 
</g>
<g style="fill:#FFFFFF; fill-opacity:1.0; 
stroke:#FFFFFF; stroke-width:39.3701; stroke-opacity:1; 
stroke-linecap:round; stroke-linejoin:round;">
</g>
<g style="fill:#FFFFFF; fill-opacity:1.0; 
stroke:#FFFFFF; stroke-width:0; stroke-opacity:1; 
stroke-linecap:round; stroke-linejoin:round;">
<circle cx="41802.3" cy="11113.1" r="629.921" /> 
</g>
<g style="fill:#FFFFFF; fill-opacity:1.0; 
stroke:#FFFFFF; stroke-width:39.3701; stroke-opacity:1; 
stroke-linecap:round; stroke-linejoin:round;">
</g>
<g style="fill:#FFFFFF; fill-opacity:1.0; 
stroke:#FFFFFF; stroke-width:0; stroke-opacity:1; 
stroke-linecap:round; stroke-linejoin:round;">
<circle cx="41802.3" cy="19613.1" r="629.921" /> 
</g>
<g style="fill:#FFFFFF; fill-opacity:1.0; 
stroke:#FFFFFF; stroke-width:39.3701; stroke-opacity:1; 
stroke-linecap:round; stroke-linejoin:round;">
</g>
<g style="fill:#FFFFFF; fill-opacity:1.0; 
stroke:#FFFFFF; stroke-width:0; stroke-opacity:1; 
stroke-linecap:round; stroke-linejoin:round;">
<circle cx="18802.3" cy="11113.1" r="629.921" /> 
</g>
<g style="fill:#FFFFFF; fill-opacity:1.0; 
stroke:#FFFFFF; stroke-width:39.3701; stroke-opacity:1; 
stroke-linecap:round; stroke-linejoin:round;">
</g>
<g style="fill:#FFFFFF; fill-opacity:1.0; 
stroke:#FFFFFF; stroke-width:0; stroke-opacity:1; 
stroke-linecap:round; stroke-linejoin:round;">
<circle cx="37552.3" cy="19863.1" r="196.85" /> 
</g>
<g style="fill:#FFFFFF; fill-opacity:1.0; 
stroke:#FFFFFF; stroke-width:39.3701; stroke-opacity:1; 
stroke-linecap:round; stroke-linejoin:round;">
</g>
<g style="fill:#FFFFFF; fill-opacity:1.0; 
stroke:#FFFFFF; stroke-width:0; stroke-opacity:1; 
stroke-linecap:round; stroke-linejoin:round;">
<circle cx="38552.3" cy="19863.1" r="196.85" /> 
</g>
<g style="fill:#FFFFFF; fill-opacity:1.0; 
stroke:#FFFFFF; stroke-width:39.3701; stroke-opacity:1; 
stroke-linecap:round; stroke-linejoin:round;">
</g>
<g style="fill:#FFFFFF; fill-opacity:1.0; 
stroke:#FFFFFF; stroke-width:0; stroke-opacity:1; 
stroke-linecap:round; stroke-linejoin:round;">
<circle cx="27052.3" cy="7063.06" r="196.85" /> 
</g>
<g style="fill:#FFFFFF; fill-opacity:1.0; 
stroke:#FFFFFF; stroke-width:39.3701; stroke-opacity:1; 
stroke-linecap:round; stroke-linejoin:round;">
</g>
<g style="fill:#FFFFFF; fill-opacity:1.0; 
stroke:#FFFFFF; stroke-width:0; stroke-opacity:1; 
stroke-linecap:round; stroke-linejoin:round;">
<circle cx="31052.3" cy="7063.06" r="196.85" /> 
</g>
<g style="fill:#FFFFFF; fill-opacity:1.0; 
stroke:#FFFFFF; stroke-width:39.3701; stroke-opacity:1; 
stroke-linecap:round; stroke-linejoin:round;">
</g>
<g style="fill:#FFFFFF; fill-opacity:1.0; 
stroke:#FFFFFF; stroke-width:0; stroke-opacity:1; 
stroke-linecap:round; stroke-linejoin:round;">
<circle cx="34052.3" cy="7063.06" r="196.85" /> 
</g>
<g style="fill:#FFFFFF; fill-opacity:1.0; 
stroke:#FFFFFF; stroke-width:39.3701; stroke-opacity:1; 
stroke-linecap:round; stroke-linejoin:round;">
</g>
<g style="fill:#FFFFFF; fill-opacity:1.0; 
stroke:#FFFFFF; stroke-width:0; stroke-opacity:1; 
stroke-linecap:round; stroke-linejoin:round;">
<circle cx="34052.3" cy="4063.06" r="196.85" /> 
</g>
<g style="fill:#FFFFFF; fill-opacity:1.0; 
stroke:#FFFFFF; stroke-width:39.3701; stroke-opacity:1; 
stroke-linecap:round; stroke-linejoin:round;">
</g>
<g style="fill:#FFFFFF; fill-opacity:1.0; 
stroke:#FFFFFF; stroke-width:0; stroke-opacity:1; 
stroke-linecap:round; stroke-linejoin:round;">
<circle cx="27052.3" cy="4063.06" r="196.85" /> 
</g>
<g style="fill:#FFFFFF; fill-opacity:1.0; 
stroke:#FFFFFF; stroke-width:39.3701; stroke-opacity:1; 
stroke-linecap:round; stroke-linejoin:round;">
</g>
<g style="fill:#FFFFFF; fill-opacity:1.0; 
stroke:#FFFFFF; stroke-width:0; stroke-opacity:1; 
stroke-linecap:round; stroke-linejoin:round;">
<circle cx="27052.3" cy="13063.1" r="196.85" /> 
</g>
<g style="fill:#FFFFFF; fill-opacity:1.0; 
stroke:#FFFFFF; stroke-width:39.3701; stroke-opacity:1; 
stroke-linecap:round; stroke-linejoin:round;">
</g>
<g style="fill:#FFFFFF; fill-opacity:1.0; 
stroke:#FFFFFF; stroke-width:0; stroke-opacity:1; 
stroke-linecap:round; stroke-linejoin:round;">
<circle cx="31052.3" cy="13063.1" r="196.85" /> 
</g>
<g style="fill:#FFFFFF; fill-opacity:1.0; 
stroke:#FFFFFF; stroke-width:39.3701; stroke-opacity:1; 
stroke-linecap:round; stroke-linejoin:round;">
</g>
<g style="fill:#FFFFFF; fill-opacity:1.0; 
stroke:#FFFFFF; stroke-width:0; stroke-opacity:1; 
stroke-linecap:round; stroke-linejoin:round;">
<circle cx="34052.3" cy="13063.1" r="196.85" /> 
</g>
<g style="fill:#FFFFFF; fill-opacity:1.0; 
stroke:#FFFFFF; stroke-width:39.3701; stroke-opacity:1; 
stroke-linecap:round; stroke-linejoin:round;">
</g>
<g style="fill:#FFFFFF; fill-opacity:1.0; 
stroke:#FFFFFF; stroke-width:0; stroke-opacity:1; 
stroke-linecap:round; stroke-linejoin:round;">
<circle cx="34052.3" cy="10063.1" r="196.85" /> 
</g>
<g style="fill:#FFFFFF; fill-opacity:1.0; 
stroke:#FFFFFF; stroke-width:39.3701; stroke-opacity:1; 
stroke-linecap:round; stroke-linejoin:round;">
</g>
<g style="fill:#FFFFFF; fill-opacity:1.0; 
stroke:#FFFFFF; stroke-width:0; stroke-opacity:1; 
stroke-linecap:round; stroke-linejoin:round;">
<circle cx="27052.3" cy="10063.1" r="196.85" /> 
</g>
<g style="fill:#FFFFFF; fill-opacity:1.0; 
stroke:#FFFFFF; stroke-width:39.3701; stroke-opacity:1; 
stroke-linecap:round; stroke-linejoin:round;">
</g>
<g style="fill:#FFFFFF; fill-opacity:1.0; 
stroke:#FFFFFF; stroke-width:0; stroke-opacity:1; 
stroke-linecap:round; stroke-linejoin:round;">
<circle cx="13052.3" cy="22363.1" r="295.276" /> 
</g>
<g style="fill:#FFFFFF; fill-opacity:1.0; 
stroke:#FFFFFF; stroke-width:39.3701; stroke-opacity:1; 
stroke-linecap:round; stroke-linejoin:round;">
</g>
<g style="fill:#FFFFFF; fill-opacity:1.0; 
stroke:#FFFFFF; stroke-width:0; stroke-opacity:1; 
stroke-linecap:round; stroke-linejoin:round;">
<circle cx="8327.93" cy="22363.1" r="295.276" /> 
</g>
<g style="fill:#FFFFFF; fill-opacity:1.0; 
stroke:#FFFFFF; stroke-width:39.3701; stroke-opacity:1; 
stroke-linecap:round; stroke-linejoin:round;">
</g>
<g style="fill:#FFFFFF; fill-opacity:1.0; 
stroke:#FFFFFF; stroke-width:0; stroke-opacity:1; 
stroke-linecap:round; stroke-linejoin:round;">
<circle cx="8327.93" cy="7008.73" r="295.276" /> 
</g>
<g style="fill:#FFFFFF; fill-opacity:1.0; 
stroke:#FFFFFF; stroke-width:39.3701; stroke-opacity:1; 
stroke-linecap:round; stroke-linejoin:round;">
</g>
<g style="fill:#FFFFFF; fill-opacity:1.0; 
stroke:#FFFFFF; stroke-width:0; stroke-opacity:1; 
stroke-linecap:round; stroke-linejoin:round;">
<circle cx="11083.8" cy="7008.73" r="295.276" /> 
</g>
<g style="fill:#FFFFFF; fill-opacity:1.0; 
stroke:#FFFFFF; stroke-width:39.3701; stroke-opacity:1; 
stroke-linecap:round; stroke-linejoin:round;">
</g>
<g style="fill:#FFFFFF; fill-opacity:1.0; 
stroke:#FFFFFF; stroke-width:0; stroke-opacity:1; 
stroke-linecap:round; stroke-linejoin:round;">
<circle cx="28252.3" cy="16363.1" r="196.85" /> 
</g>
<g style="fill:#FFFFFF; fill-opacity:1.0; 
stroke:#FFFFFF; stroke-width:39.3701; stroke-opacity:1; 
stroke-linecap:round; stroke-linejoin:round;">
</g>
<g style="fill:#FFFFFF; fill-opacity:1.0; 
stroke:#FFFFFF; stroke-width:0; stroke-opacity:1; 
stroke-linecap:round; stroke-linejoin:round;">
<circle cx="29252.3" cy="16363.1" r="196.85" /> 
</g>
<g style="fill:#FFFFFF; fill-opacity:1.0; 
stroke:#FFFFFF; stroke-width:39.3701; stroke-opacity:1; 
stroke-linecap:round; stroke-linejoin:round;">
</g>
<g style="fill:#FFFFFF; fill-opacity:1.0; 
stroke:#FFFFFF; stroke-width:0; stroke-opacity:1; 
stroke-linecap:round; stroke-linejoin:round;">
<circle cx="30252.3" cy="16363.1" r="196.85" /> 
</g>
<g style="fill:#FFFFFF; fill-opacity:1.0; 
stroke:#FFFFFF; stroke-width:39.3701; stroke-opacity:1; 
stroke-linecap:round; stroke-linejoin:round;">
</g>
<g style="fill:#FFFFFF; fill-opacity:1.0; 
stroke:#FFFFFF; stroke-width:0; stroke-opacity:1; 
stroke-linecap:round; stroke-linejoin:round;">
<circle cx="37352.3" cy="8094.56" r="255.906" /> 
</g>
<g style="fill:#FFFFFF; fill-opacity:1.0; 
stroke:#FFFFFF; stroke-width:39.3701; stroke-opacity:1; 
stroke-linecap:round; stroke-linejoin:round;">
</g>
<g style="fill:#FFFFFF; fill-opacity:1.0; 
stroke:#FFFFFF; stroke-width:0; stroke-opacity:1; 
stroke-linecap:round; stroke-linejoin:round;">
<circle cx="37352.3" cy="12031.6" r="255.906" /> 
</g>
<g style="fill:#FFFFFF; fill-opacity:1.0; 
stroke:#FFFFFF; stroke-width:39.3701; stroke-opacity:1; 
stroke-linecap:round; stroke-linejoin:round;">
</g>
<g style="fill:#FFFFFF; fill-opacity:1.0; 
stroke:#FFFFFF; stroke-width:0; stroke-opacity:1; 
stroke-linecap:round; stroke-linejoin:round;">
<circle cx="37352.3" cy="10063.1" r="255.906" /> 
</g>
<g style="fill:#FFFFFF; fill-opacity:1.0; 
stroke:#FFFFFF; stroke-width:39.3701; stroke-opacity:1; 
stroke-linecap:round; stroke-linejoin:round;">
</g>
<g style="fill:#FFFFFF; fill-opacity:1.0; 
stroke:#FFFFFF; stroke-width:0; stroke-opacity:1; 
stroke-linecap:round; stroke-linejoin:round;">
<circle cx="9883.84" cy="26163.1" r="255.906" /> 
</g>
<g style="fill:#FFFFFF; fill-opacity:1.0; 
stroke:#FFFFFF; stroke-width:39.3701; stroke-opacity:1; 
stroke-linecap:round; stroke-linejoin:round;">
</g>
<g style="fill:#FFFFFF; fill-opacity:1.0; 
stroke:#FFFFFF; stroke-width:0; stroke-opacity:1; 
stroke-linecap:round; stroke-linejoin:round;">
<circle cx="11852.3" cy="26163.1" r="255.906" /> 
</g>
<g style="fill:#FFFFFF; fill-opacity:1.0; 
stroke:#FFFFFF; stroke-width:39.3701; stroke-opacity:1; 
stroke-linecap:round; stroke-linejoin:round;">
</g>
<g style="fill:#FFFFFF; fill-opacity:1.0; 
stroke:#FFFFFF; stroke-width:0; stroke-opacity:1; 
stroke-linecap:round; stroke-linejoin:round;">
<circle cx="10352.3" cy="3663.06" r="196.85" /> 
</g>
<g style="fill:#FFFFFF; fill-opacity:1.0; 
stroke:#FFFFFF; stroke-width:39.3701; stroke-opacity:1; 
stroke-linecap:round; stroke-linejoin:round;">
</g>
<g style="fill:#FFFFFF; fill-opacity:1.0; 
stroke:#FFFFFF; stroke-width:0; stroke-opacity:1; 
stroke-linecap:round; stroke-linejoin:round;">
<circle cx="9352.34" cy="3663.06" r="196.85" /> 
</g>
<g style="fill:#FFFFFF; fill-opacity:1.0; 
stroke:#FFFFFF; stroke-width:39.3701; stroke-opacity:1; 
stroke-linecap:round; stroke-linejoin:round;">
</g>
<g style="fill:#FFFFFF; fill-opacity:1.0; 
stroke:#FFFFFF; stroke-width:0; stroke-opacity:1; 
stroke-linecap:round; stroke-linejoin:round;">
<circle cx="35252.3" cy="24863.1" r="196.85" /> 
</g>
<g style="fill:#FFFFFF; fill-opacity:1.0; 
stroke:#FFFFFF; stroke-width:39.3701; stroke-opacity:1; 
stroke-linecap:round; stroke-linejoin:round;">
</g>
<g style="fill:#FFFFFF; fill-opacity:1.0; 
stroke:#FFFFFF; stroke-width:0; stroke-opacity:1; 
stroke-linecap:round; stroke-linejoin:round;">
<circle cx="35252.3" cy="23863.1" r="196.85" /> 
</g>
<g style="fill:#FFFFFF; fill-opacity:1.0; 
stroke:#FFFFFF; stroke-width:39.3701; stroke-opacity:1; 
stroke-linecap:round; stroke-linejoin:round;">
</g>
<g style="fill:#FFFFFF; fill-opacity:1.0; 
stroke:#FFFFFF; stroke-width:0; stroke-opacity:1; 
stroke-linecap:round; stroke-linejoin:round;">
<circle cx="35252.3" cy="22363.1" r="196.85" /> 
</g>
<g style="fill:#FFFFFF; fill-opacity:1.0; 
stroke:#FFFFFF; stroke-width:39.3701; stroke-opacity:1; 
stroke-linecap:round; stroke-linejoin:round;">
</g>
<g style="fill:#FFFFFF; fill-opacity:1.0; 
stroke:#FFFFFF; stroke-width:0; stroke-opacity:1; 
stroke-linecap:round; stroke-linejoin:round;">
<circle cx="35252.3" cy="21363.1" r="196.85" /> 
</g>
<g style="fill:#FFFFFF; fill-opacity:1.0; 
stroke:#FFFFFF; stroke-width:39.3701; stroke-opacity:1; 
stroke-linecap:round; stroke-linejoin:round;">
</g>
<g style="fill:#FFFFFF; fill-opacity:1.0; 
stroke:#FFFFFF; stroke-width:0; stroke-opacity:1; 
stroke-linecap:round; stroke-linejoin:round;">
<circle cx="35752.3" cy="16963.1" r="196.85" /> 
</g>
<g style="fill:#FFFFFF; fill-opacity:1.0; 
stroke:#FFFFFF; stroke-width:39.3701; stroke-opacity:1; 
stroke-linecap:round; stroke-linejoin:round;">
</g>
<g style="fill:#FFFFFF; fill-opacity:1.0; 
stroke:#FFFFFF; stroke-width:0; stroke-opacity:1; 
stroke-linecap:round; stroke-linejoin:round;">
<circle cx="34752.3" cy="16963.1" r="196.85" /> 
</g>
<g style="fill:#FFFFFF; fill-opacity:1.0; 
stroke:#FFFFFF; stroke-width:39.3701; stroke-opacity:1; 
stroke-linecap:round; stroke-linejoin:round;">
</g>
<g style="fill:#FFFFFF; fill-opacity:1.0; 
stroke:#FFFFFF; stroke-width:0; stroke-opacity:1; 
stroke-linecap:round; stroke-linejoin:round;">
<circle cx="14752.3" cy="3963.06" r="629.921" /> 
</g>
<g style="fill:#FFFFFF; fill-opacity:1.0; 
stroke:#FFFFFF; stroke-width:39.3701; stroke-opacity:1; 
stroke-linecap:round; stroke-linejoin:round;">
</g>
<g style="fill:#FFFFFF; fill-opacity:1.0; 
stroke:#FFFFFF; stroke-width:0; stroke-opacity:1; 
stroke-linecap:round; stroke-linejoin:round;">
<circle cx="6252.34" cy="3963.06" r="629.921" /> 
</g>
<g style="fill:#FFFFFF; fill-opacity:1.0; 
stroke:#FFFFFF; stroke-width:39.3701; stroke-opacity:1; 
stroke-linecap:round; stroke-linejoin:round;">
</g>
<g style="fill:#FFFFFF; fill-opacity:1.0; 
stroke:#FFFFFF; stroke-width:0; stroke-opacity:1; 
stroke-linecap:round; stroke-linejoin:round;">
<circle cx="6252.34" cy="26963.1" r="629.921" /> 
</g>
<g style="fill:#FFFFFF; fill-opacity:1.0; 
stroke:#FFFFFF; stroke-width:39.3701; stroke-opacity:1; 
stroke-linecap:round; stroke-linejoin:round;">
</g>
<g style="fill:#FFFFFF; fill-opacity:1.0; 
stroke:#FFFFFF; stroke-width:0; stroke-opacity:1; 
stroke-linecap:round; stroke-linejoin:round;">
<circle cx="14752.3" cy="26963.1" r="629.921" /> 
</g>
<g style="fill:#FFFFFF; fill-opacity:1.0; 
stroke:#FFFFFF; stroke-width:39.3701; stroke-opacity:1; 
stroke-linecap:round; stroke-linejoin:round;">
</g>
<g style="fill:#000000; fill-opacity:1.0; 
stroke:#000000; stroke-width:39.3701; stroke-opacity:1; 
stroke-linecap:round; stroke-linejoin:round;">
</g>
<g style="fill:#000000; fill-opacity:0.0; 
stroke:#000000; stroke-width:39.3701; stroke-opacity:1; 
stroke-linecap:round; stroke-linejoin:round;">
<polyline fill="none;"
points="35568,2677
35569,2677
35573,2678
35577,2679
35578,2680
35579,2680
35582,2682
35586,2684
35587,2685
35588,2686
43029,10127
43029,10128
43030,10129
43032,10132
43035,10135
43035,10136
43035,10137
43036,10141
43037,10145
43037,10146
43037,10148
43037,20738
43037,20739
43037,20741
43036,20744
43035,20748
43035,20749
43034,20751
43032,20754
43030,20757
43029,20758
43029,20759
35548,28200
35547,28201
35546,28202
35543,28204
35540,28206
35539,28206
35538,28207
35534,28208
35530,28209
35529,28208
35528,28209
24937,28248
24936,28248
24934,28248
24931,28247
24927,28246
24926,28246
24924,28245
24921,28243
24918,28241
24917,28240
24916,28239
17475,20798
17474,20797
17473,20796
17471,20793
17469,20790
17469,20789
17468,20788
17468,20784
17467,20780
17467,20779
17466,20777
17506,10108
17506,10107
17506,10106
17507,10102
17508,10098
17508,10097
17509,10096
17511,10093
17513,10089
17514,10088
17514,10087
24916,2686
24917,2685
24918,2684
24921,2682
24924,2680
24926,2680
24927,2679
24931,2678
24934,2677
24936,2677
24937,2677
35567,2677
35568,2677
" /> 
<polyline fill="none;"
points="24949,2736
17565,10121
17526,20765
24949,28189
35515,28150
42978,20726
42978,10160
35555,2736
24949,2736
" /> 
<polyline fill="none;"
points="19345,20069
19157,20227
18925,20311
18679,20311
18447,20227
18258,20069
18135,19855
18092,19613
18135,19370
18258,19156
18447,18998
18679,18914
18925,18914
19157,18998
19345,19156
19469,19370
19511,19613
19469,19855
19345,20069
" /> 
<polyline fill="none;"
points="19300,19194
19127,19049
18915,18972
18689,18972
18477,19049
18303,19194
18191,19390
18151,19613
18191,19835
18303,20031
18477,20176
18689,20253
18915,20253
19127,20176
19300,20031
19413,19835
19452,19613
19413,19390
19300,19194
" /> 
<polyline fill="none;"
points="42345,20069
42157,20227
41925,20311
41679,20311
41447,20227
41258,20069
41135,19855
41092,19613
41135,19370
41258,19156
41447,18998
41679,18914
41925,18914
42157,18998
42345,19156
42469,19370
42511,19613
42469,19855
42345,20069
" /> 
<polyline fill="none;"
points="42300,19194
42127,19049
41915,18972
41689,18972
41477,19049
41303,19194
41191,19390
41151,19613
41191,19835
41303,20031
41477,20176
41689,20253
41915,20253
42127,20176
42300,20031
42413,19835
42452,19613
42413,19390
42300,19194
" /> 
<polyline fill="none;"
points="42345,11569
42157,11727
41925,11811
41679,11811
41447,11727
41258,11569
41135,11355
41092,11113
41135,10870
41258,10656
41447,10498
41679,10414
41925,10414
42157,10498
42345,10656
42469,10870
42511,11113
42469,11355
42345,11569
" /> 
<polyline fill="none;"
points="42300,10694
42127,10549
41915,10472
41689,10472
41477,10549
41303,10694
41191,10890
41151,11113
41191,11335
41303,11531
41477,11676
41689,11753
41915,11753
42127,11676
42300,11531
42413,11335
42452,11113
42413,10890
42300,10694
" /> 
<polyline fill="none;"
points="19340,11564
19153,11721
18924,11804
18680,11804
18451,11721
18264,11564
18142,11353
18100,11113
18142,10872
18264,10661
18451,10504
18680,10421
18924,10421
19153,10504
19340,10661
19462,10872
19504,11113
19462,11353
19340,11564
" /> 
<polyline fill="none;"
points="19295,10699
19123,10556
18914,10479
18690,10479
18480,10556
18309,10699
18197,10893
18159,11113
18197,11333
18309,11526
18480,11670
18690,11746
18914,11746
19123,11670
19295,11526
19406,11333
19445,11113
19406,10893
19295,10699
" /> 
<polyline fill="none;"
points="15654,2733
15657,2733
15659,2734
15662,2735
15664,2736
15667,2737
15669,2739
15671,2740
15672,2742
15674,2744
15676,2746
15677,2748
15678,2750
15680,2752
15680,2755
15681,2757
15681,2760
15681,2763
15681,28063
15681,28065
15681,28068
15680,28070
15680,28073
15678,28075
15677,28077
15676,28079
15674,28082
15672,28083
15671,28085
15669,28086
15667,28088
15664,28089
15662,28090
15659,28091
15657,28092
15654,28092
15652,28092
5352,28092
5349,28092
5347,28092
5344,28091
5342,28090
5340,28089
5337,28088
5335,28086
5333,28085
5331,28083
5329,28082
5328,28079
5326,28077
5325,28075
5324,28073
5324,28070
5323,28068
5323,28065
5322,28063
5322,2763
5323,2760
5323,2757
5324,2755
5324,2752
5325,2750
5326,2748
5328,2746
5329,2744
5331,2742
5333,2740
5335,2739
5337,2737
5340,2736
5342,2735
5344,2734
5347,2733
5349,2733
5352,2733
15652,2733
15654,2733
" /> 
<polyline fill="none;"
points="5381,2792
5381,28033
15622,28033
15622,2792
5381,2792
" /> 
<polyline fill="none;"
points="6790,27414
6603,27571
6374,27654
6130,27654
5901,27571
5714,27414
5592,27203
5550,26963
5592,26722
5714,26511
5901,26354
6130,26271
6374,26271
6603,26354
6790,26511
6912,26722
6954,26963
6912,27203
6790,27414
" /> 
<polyline fill="none;"
points="6745,26549
6573,26406
6364,26329
6140,26329
5930,26406
5759,26549
5647,26743
5609,26963
5647,27183
5759,27376
5930,27520
6140,27596
6364,27596
6573,27520
6745,27376
6856,27183
6895,26963
6856,26743
6745,26549
" /> 
<polyline fill="none;"
points="15290,27414
15103,27571
14874,27654
14630,27654
14401,27571
14214,27414
14092,27203
14050,26963
14092,26722
14214,26511
14401,26354
14630,26271
14874,26271
15103,26354
15290,26511
15412,26722
15454,26963
15412,27203
15290,27414
" /> 
<polyline fill="none;"
points="15245,26549
15073,26406
14864,26329
14640,26329
14430,26406
14259,26549
14147,26743
14109,26963
14147,27183
14259,27376
14430,27520
14640,27596
14864,27596
15073,27520
15245,27376
15356,27183
15395,26963
15356,26743
15245,26549
" /> 
<polyline fill="none;"
points="6795,4419
6607,4577
6375,4661
6129,4661
5897,4577
5708,4419
5585,4205
5542,3963
5585,3720
5708,3506
5897,3348
6129,3264
6375,3264
6607,3348
6795,3506
6919,3720
6961,3963
6919,4205
6795,4419
" /> 
<polyline fill="none;"
points="6750,3544
6577,3399
6365,3322
6139,3322
5927,3399
5753,3544
5641,3740
5601,3963
5641,4185
5753,4381
5927,4526
6139,4603
6365,4603
6577,4526
6750,4381
6863,4185
6902,3963
6863,3740
6750,3544
" /> 
<polyline fill="none;"
points="15290,4414
15103,4571
14874,4654
14630,4654
14401,4571
14214,4414
14092,4203
14050,3963
14092,3722
14214,3511
14401,3354
14630,3271
14874,3271
15103,3354
15290,3511
15412,3722
15454,3963
15412,4203
15290,4414
" /> 
<polyline fill="none;"
points="15245,3549
15073,3406
14864,3329
14640,3329
14430,3406
14259,3549
14147,3743
14109,3963
14147,4183
14259,4376
14430,4520
14640,4596
14864,4596
15073,4520
15245,4376
15356,4183
15395,3963
15356,3743
15245,3549
" /> 
</g> 
</svg>
