<?xml version="1.0" standalone="no"?>
 <!DOCTYPE svg PUBLIC "-//W3C//DTD SVG 1.1//EN" 
 "http://www.w3.org/Graphics/SVG/1.1/DTD/svg11.dtd"> 
<svg xmlns="http://www.w3.org/2000/svg" version="1.1" 
    width="12.5705cm" height="8.03656cm" viewBox="0 0 49490 31640 ">
<title>SVG Picture created as blinds-brd.svg date 2018/07/28 12:52:54 </title>
  <desc>Picture generated by PCBNEW </desc>
<g style="fill:#000000; fill-opacity:1;stroke:#000000; stroke-opacity:1;
stroke-linecap:round; stroke-linejoin:round; "
 transform="translate(0 0) scale(1 1)">
</g>
<g style="fill:#000000; fill-opacity:0.0; 
stroke:#000000; stroke-width:-0.000393701; stroke-opacity:1; 
stroke-linecap:round; stroke-linejoin:round;">
</g>
<g style="fill:#000000; fill-opacity:1.0; 
stroke:#000000; stroke-width:0; stroke-opacity:1; 
stroke-linecap:round; stroke-linejoin:round;">
<circle cx="18802.3" cy="19613.1" r="708.661" /> 
</g>
<g style="fill:#000000; fill-opacity:1.0; 
stroke:#000000; stroke-width:39.3701; stroke-opacity:1; 
stroke-linecap:round; stroke-linejoin:round;">
</g>
<g style="fill:#000000; fill-opacity:1.0; 
stroke:#000000; stroke-width:0; stroke-opacity:1; 
stroke-linecap:round; stroke-linejoin:round;">
<circle cx="41802.3" cy="11113.1" r="708.661" /> 
</g>
<g style="fill:#000000; fill-opacity:1.0; 
stroke:#000000; stroke-width:39.3701; stroke-opacity:1; 
stroke-linecap:round; stroke-linejoin:round;">
</g>
<g style="fill:#000000; fill-opacity:1.0; 
stroke:#000000; stroke-width:0; stroke-opacity:1; 
stroke-linecap:round; stroke-linejoin:round;">
<circle cx="41802.3" cy="19613.1" r="708.661" /> 
</g>
<g style="fill:#000000; fill-opacity:1.0; 
stroke:#000000; stroke-width:39.3701; stroke-opacity:1; 
stroke-linecap:round; stroke-linejoin:round;">
</g>
<g style="fill:#000000; fill-opacity:1.0; 
stroke:#000000; stroke-width:0; stroke-opacity:1; 
stroke-linecap:round; stroke-linejoin:round;">
<circle cx="18802.3" cy="11113.1" r="708.661" /> 
</g>
<g style="fill:#000000; fill-opacity:1.0; 
stroke:#000000; stroke-width:39.3701; stroke-opacity:1; 
stroke-linecap:round; stroke-linejoin:round;">
</g>
<g style="fill:#000000; fill-opacity:1.0; 
stroke:#000000; stroke-width:0; stroke-opacity:1; 
stroke-linecap:round; stroke-linejoin:round;">
<polyline style="fill-rule:evenodd;"
points="37138,20276
37138,19449
37965,19449
37965,20276
37138,20276
" /> 
<polyline style="fill-rule:evenodd;"
points="38138,20276
38138,19449
38965,19449
38965,20276
38138,20276
" /> 
<circle cx="27052.3" cy="7063.06" r="472.441" /> 
</g>
<g style="fill:#000000; fill-opacity:1.0; 
stroke:#000000; stroke-width:39.3701; stroke-opacity:1; 
stroke-linecap:round; stroke-linejoin:round;">
</g>
<g style="fill:#000000; fill-opacity:1.0; 
stroke:#000000; stroke-width:0; stroke-opacity:1; 
stroke-linecap:round; stroke-linejoin:round;">
<circle cx="31052.3" cy="7063.06" r="472.441" /> 
</g>
<g style="fill:#000000; fill-opacity:1.0; 
stroke:#000000; stroke-width:39.3701; stroke-opacity:1; 
stroke-linecap:round; stroke-linejoin:round;">
</g>
<g style="fill:#000000; fill-opacity:1.0; 
stroke:#000000; stroke-width:0; stroke-opacity:1; 
stroke-linecap:round; stroke-linejoin:round;">
<circle cx="34052.3" cy="7063.06" r="472.441" /> 
</g>
<g style="fill:#000000; fill-opacity:1.0; 
stroke:#000000; stroke-width:39.3701; stroke-opacity:1; 
stroke-linecap:round; stroke-linejoin:round;">
</g>
<g style="fill:#000000; fill-opacity:1.0; 
stroke:#000000; stroke-width:0; stroke-opacity:1; 
stroke-linecap:round; stroke-linejoin:round;">
<circle cx="34052.3" cy="4063.06" r="472.441" /> 
</g>
<g style="fill:#000000; fill-opacity:1.0; 
stroke:#000000; stroke-width:39.3701; stroke-opacity:1; 
stroke-linecap:round; stroke-linejoin:round;">
</g>
<g style="fill:#000000; fill-opacity:1.0; 
stroke:#000000; stroke-width:0; stroke-opacity:1; 
stroke-linecap:round; stroke-linejoin:round;">
<circle cx="27052.3" cy="4063.06" r="472.441" /> 
</g>
<g style="fill:#000000; fill-opacity:1.0; 
stroke:#000000; stroke-width:39.3701; stroke-opacity:1; 
stroke-linecap:round; stroke-linejoin:round;">
</g>
<g style="fill:#000000; fill-opacity:1.0; 
stroke:#000000; stroke-width:0; stroke-opacity:1; 
stroke-linecap:round; stroke-linejoin:round;">
<circle cx="27052.3" cy="13063.1" r="472.441" /> 
</g>
<g style="fill:#000000; fill-opacity:1.0; 
stroke:#000000; stroke-width:39.3701; stroke-opacity:1; 
stroke-linecap:round; stroke-linejoin:round;">
</g>
<g style="fill:#000000; fill-opacity:1.0; 
stroke:#000000; stroke-width:0; stroke-opacity:1; 
stroke-linecap:round; stroke-linejoin:round;">
<circle cx="31052.3" cy="13063.1" r="472.441" /> 
</g>
<g style="fill:#000000; fill-opacity:1.0; 
stroke:#000000; stroke-width:39.3701; stroke-opacity:1; 
stroke-linecap:round; stroke-linejoin:round;">
</g>
<g style="fill:#000000; fill-opacity:1.0; 
stroke:#000000; stroke-width:0; stroke-opacity:1; 
stroke-linecap:round; stroke-linejoin:round;">
<circle cx="34052.3" cy="13063.1" r="472.441" /> 
</g>
<g style="fill:#000000; fill-opacity:1.0; 
stroke:#000000; stroke-width:39.3701; stroke-opacity:1; 
stroke-linecap:round; stroke-linejoin:round;">
</g>
<g style="fill:#000000; fill-opacity:1.0; 
stroke:#000000; stroke-width:0; stroke-opacity:1; 
stroke-linecap:round; stroke-linejoin:round;">
<circle cx="34052.3" cy="10063.1" r="472.441" /> 
</g>
<g style="fill:#000000; fill-opacity:1.0; 
stroke:#000000; stroke-width:39.3701; stroke-opacity:1; 
stroke-linecap:round; stroke-linejoin:round;">
</g>
<g style="fill:#000000; fill-opacity:1.0; 
stroke:#000000; stroke-width:0; stroke-opacity:1; 
stroke-linecap:round; stroke-linejoin:round;">
<circle cx="27052.3" cy="10063.1" r="472.441" /> 
</g>
<g style="fill:#000000; fill-opacity:1.0; 
stroke:#000000; stroke-width:39.3701; stroke-opacity:1; 
stroke-linecap:round; stroke-linejoin:round;">
</g>
<g style="fill:#000000; fill-opacity:1.0; 
stroke:#000000; stroke-width:0; stroke-opacity:1; 
stroke-linecap:round; stroke-linejoin:round;">
<polyline style="fill-rule:evenodd;"
points="13820,21595
13820,23130
12284,23130
12284,21595
13820,21595
" /> 
<circle cx="8327.93" cy="22363.1" r="767.717" /> 
</g>
<g style="fill:#000000; fill-opacity:1.0; 
stroke:#000000; stroke-width:39.3701; stroke-opacity:1; 
stroke-linecap:round; stroke-linejoin:round;">
</g>
<g style="fill:#000000; fill-opacity:1.0; 
stroke:#000000; stroke-width:0; stroke-opacity:1; 
stroke-linecap:round; stroke-linejoin:round;">
<circle cx="8327.93" cy="7008.73" r="669.291" /> 
</g>
<g style="fill:#000000; fill-opacity:1.0; 
stroke:#000000; stroke-width:39.3701; stroke-opacity:1; 
stroke-linecap:round; stroke-linejoin:round;">
</g>
<g style="fill:#000000; fill-opacity:1.0; 
stroke:#000000; stroke-width:0; stroke-opacity:1; 
stroke-linecap:round; stroke-linejoin:round;">
<circle cx="11083.8" cy="7008.73" r="669.291" /> 
</g>
<g style="fill:#000000; fill-opacity:1.0; 
stroke:#000000; stroke-width:39.3701; stroke-opacity:1; 
stroke-linecap:round; stroke-linejoin:round;">
</g>
<g style="fill:#000000; fill-opacity:1.0; 
stroke:#000000; stroke-width:0; stroke-opacity:1; 
stroke-linecap:round; stroke-linejoin:round;">
<polyline style="fill-rule:evenodd;"
points="28665,17126
27838,17126
27838,16299
28665,16299
28665,17126
" /> 
</g>
<g style="fill:#000000; fill-opacity:1.0; 
stroke:#000000; stroke-width:826.772; stroke-opacity:1; 
stroke-linecap:round; stroke-linejoin:round;">
</g>
<g style="fill:#000000; fill-opacity:0.0; 
stroke:#000000; stroke-width:826.772; stroke-opacity:1; 
stroke-linecap:round; stroke-linejoin:round;">
<path d="M29252 16713
L29252 16713
" />
<path d="M30252 16713
L30252 16713
" />
</g>
<g style="fill:#000000; fill-opacity:1.0; 
stroke:#000000; stroke-width:0; stroke-opacity:1; 
stroke-linecap:round; stroke-linejoin:round;">
<circle cx="37352.3" cy="8094.56" r="570.866" /> 
</g>
<g style="fill:#000000; fill-opacity:1.0; 
stroke:#000000; stroke-width:39.3701; stroke-opacity:1; 
stroke-linecap:round; stroke-linejoin:round;">
</g>
<g style="fill:#000000; fill-opacity:1.0; 
stroke:#000000; stroke-width:0; stroke-opacity:1; 
stroke-linecap:round; stroke-linejoin:round;">
<polyline style="fill-rule:evenodd;"
points="37923,12602
36781,12602
36781,11460
37923,11460
37923,12602
" /> 
<circle cx="37352.3" cy="10063.1" r="570.866" /> 
</g>
<g style="fill:#000000; fill-opacity:1.0; 
stroke:#000000; stroke-width:39.3701; stroke-opacity:1; 
stroke-linecap:round; stroke-linejoin:round;">
</g>
<g style="fill:#000000; fill-opacity:1.0; 
stroke:#000000; stroke-width:0; stroke-opacity:1; 
stroke-linecap:round; stroke-linejoin:round;">
<polyline style="fill-rule:evenodd;"
points="9312,26733
9312,25592
10454,25592
10454,26733
9312,26733
" /> 
<circle cx="11852.3" cy="26163.1" r="570.866" /> 
</g>
<g style="fill:#000000; fill-opacity:1.0; 
stroke:#000000; stroke-width:39.3701; stroke-opacity:1; 
stroke-linecap:round; stroke-linejoin:round;">
</g>
<g style="fill:#000000; fill-opacity:1.0; 
stroke:#000000; stroke-width:0; stroke-opacity:1; 
stroke-linecap:round; stroke-linejoin:round;">
<polyline style="fill-rule:evenodd;"
points="9938,3249
10765,3249
10765,4076
9938,4076
9938,3249
" /> 
</g>
<g style="fill:#000000; fill-opacity:1.0; 
stroke:#000000; stroke-width:826.772; stroke-opacity:1; 
stroke-linecap:round; stroke-linejoin:round;">
</g>
<g style="fill:#000000; fill-opacity:0.0; 
stroke:#000000; stroke-width:826.772; stroke-opacity:1; 
stroke-linecap:round; stroke-linejoin:round;">
<path d="M9352 3663
L9352 3663
" />
</g>
<g style="fill:#000000; fill-opacity:0.0; 
stroke:#000000; stroke-width:0; stroke-opacity:1; 
stroke-linecap:round; stroke-linejoin:round;">
</g>
<g style="fill:#000000; fill-opacity:1.0; 
stroke:#000000; stroke-width:0; stroke-opacity:1; 
stroke-linecap:round; stroke-linejoin:round;">
<polyline style="fill-rule:evenodd;"
points="35665,24449
35665,25276
34838,25276
34838,24449
35665,24449
" /> 
</g>
<g style="fill:#000000; fill-opacity:1.0; 
stroke:#000000; stroke-width:826.772; stroke-opacity:1; 
stroke-linecap:round; stroke-linejoin:round;">
</g>
<g style="fill:#000000; fill-opacity:0.0; 
stroke:#000000; stroke-width:826.772; stroke-opacity:1; 
stroke-linecap:round; stroke-linejoin:round;">
<path d="M35252 23863
L35252 23863
" />
</g>
<g style="fill:#000000; fill-opacity:0.0; 
stroke:#000000; stroke-width:0; stroke-opacity:1; 
stroke-linecap:round; stroke-linejoin:round;">
</g>
<g style="fill:#000000; fill-opacity:1.0; 
stroke:#000000; stroke-width:0; stroke-opacity:1; 
stroke-linecap:round; stroke-linejoin:round;">
<polyline style="fill-rule:evenodd;"
points="35665,21949
35665,22776
34838,22776
34838,21949
35665,21949
" /> 
</g>
<g style="fill:#000000; fill-opacity:1.0; 
stroke:#000000; stroke-width:826.772; stroke-opacity:1; 
stroke-linecap:round; stroke-linejoin:round;">
</g>
<g style="fill:#000000; fill-opacity:0.0; 
stroke:#000000; stroke-width:826.772; stroke-opacity:1; 
stroke-linecap:round; stroke-linejoin:round;">
<path d="M35252 21363
L35252 21363
" />
</g>
<g style="fill:#000000; fill-opacity:0.0; 
stroke:#000000; stroke-width:0; stroke-opacity:1; 
stroke-linecap:round; stroke-linejoin:round;">
</g>
<g style="fill:#000000; fill-opacity:1.0; 
stroke:#000000; stroke-width:0; stroke-opacity:1; 
stroke-linecap:round; stroke-linejoin:round;">
<polyline style="fill-rule:evenodd;"
points="35338,16549
36165,16549
36165,17376
35338,17376
35338,16549
" /> 
</g>
<g style="fill:#000000; fill-opacity:1.0; 
stroke:#000000; stroke-width:826.772; stroke-opacity:1; 
stroke-linecap:round; stroke-linejoin:round;">
</g>
<g style="fill:#000000; fill-opacity:0.0; 
stroke:#000000; stroke-width:826.772; stroke-opacity:1; 
stroke-linecap:round; stroke-linejoin:round;">
<path d="M34752 16963
L34752 16963
" />
</g>
<g style="fill:#000000; fill-opacity:1.0; 
stroke:#000000; stroke-width:0; stroke-opacity:1; 
stroke-linecap:round; stroke-linejoin:round;">
<circle cx="14752.3" cy="3963.06" r="708.661" /> 
</g>
<g style="fill:#000000; fill-opacity:1.0; 
stroke:#000000; stroke-width:39.3701; stroke-opacity:1; 
stroke-linecap:round; stroke-linejoin:round;">
</g>
<g style="fill:#000000; fill-opacity:1.0; 
stroke:#000000; stroke-width:0; stroke-opacity:1; 
stroke-linecap:round; stroke-linejoin:round;">
<circle cx="6252.34" cy="3963.06" r="708.661" /> 
</g>
<g style="fill:#000000; fill-opacity:1.0; 
stroke:#000000; stroke-width:39.3701; stroke-opacity:1; 
stroke-linecap:round; stroke-linejoin:round;">
</g>
<g style="fill:#000000; fill-opacity:1.0; 
stroke:#000000; stroke-width:0; stroke-opacity:1; 
stroke-linecap:round; stroke-linejoin:round;">
<circle cx="6252.34" cy="26963.1" r="708.661" /> 
</g>
<g style="fill:#000000; fill-opacity:1.0; 
stroke:#000000; stroke-width:39.3701; stroke-opacity:1; 
stroke-linecap:round; stroke-linejoin:round;">
</g>
<g style="fill:#000000; fill-opacity:1.0; 
stroke:#000000; stroke-width:0; stroke-opacity:1; 
stroke-linecap:round; stroke-linejoin:round;">
<circle cx="14752.3" cy="26963.1" r="708.661" /> 
</g>
<g style="fill:#000000; fill-opacity:1.0; 
stroke:#000000; stroke-width:39.3701; stroke-opacity:1; 
stroke-linecap:round; stroke-linejoin:round;">
</g>
<g style="fill:#000000; fill-opacity:0.0; 
stroke:#000000; stroke-width:39.3701; stroke-opacity:1; 
stroke-linecap:round; stroke-linejoin:round;">
<polyline fill="none;"
points="35568,2677
35569,2677
35573,2678
35577,2679
35578,2680
35579,2680
35582,2682
35586,2684
35587,2685
35588,2686
43029,10127
43029,10128
43030,10129
43032,10132
43035,10135
43035,10136
43035,10137
43036,10141
43037,10145
43037,10146
43037,10148
43037,20738
43037,20739
43037,20741
43036,20744
43035,20748
43035,20749
43034,20751
43032,20754
43030,20757
43029,20758
43029,20759
35548,28200
35547,28201
35546,28202
35543,28204
35540,28206
35539,28206
35538,28207
35534,28208
35530,28209
35529,28208
35528,28209
24937,28248
24936,28248
24934,28248
24931,28247
24927,28246
24926,28246
24924,28245
24921,28243
24918,28241
24917,28240
24916,28239
17475,20798
17474,20797
17473,20796
17471,20793
17469,20790
17469,20789
17468,20788
17468,20784
17467,20780
17467,20779
17466,20777
17506,10108
17506,10107
17506,10106
17507,10102
17508,10098
17508,10097
17509,10096
17511,10093
17513,10089
17514,10088
17514,10087
24916,2686
24917,2685
24918,2684
24921,2682
24924,2680
24926,2680
24927,2679
24931,2678
24934,2677
24936,2677
24937,2677
35567,2677
35568,2677
" /> 
<polyline fill="none;"
points="24949,2736
17565,10121
17526,20765
24949,28189
35515,28150
42978,20726
42978,10160
35555,2736
24949,2736
" /> 
<polyline fill="none;"
points="42345,20069
42157,20227
41925,20311
41679,20311
41447,20227
41258,20069
41135,19855
41092,19613
41135,19370
41258,19156
41447,18998
41679,18914
41925,18914
42157,18998
42345,19156
42469,19370
42511,19613
42469,19855
42345,20069
" /> 
<polyline fill="none;"
points="42300,19194
42127,19049
41915,18972
41689,18972
41477,19049
41303,19194
41191,19390
41151,19613
41191,19835
41303,20031
41477,20176
41689,20253
41915,20253
42127,20176
42300,20031
42413,19835
42452,19613
42413,19390
42300,19194
" /> 
<polyline fill="none;"
points="19345,20069
19157,20227
18925,20311
18679,20311
18447,20227
18258,20069
18135,19855
18092,19613
18135,19370
18258,19156
18447,18998
18679,18914
18925,18914
19157,18998
19345,19156
19469,19370
19511,19613
19469,19855
19345,20069
" /> 
<polyline fill="none;"
points="19300,19194
19127,19049
18915,18972
18689,18972
18477,19049
18303,19194
18191,19390
18151,19613
18191,19835
18303,20031
18477,20176
18689,20253
18915,20253
19127,20176
19300,20031
19413,19835
19452,19613
19413,19390
19300,19194
" /> 
<polyline fill="none;"
points="38327,10887
38381,10917
38420,10965
38441,11022
38441,11084
38420,11142
38381,11189
38327,11220
38267,11230
36305,11230
36383,11445
36383,11685
36301,11909
36147,12093
35940,12212
35705,12254
33241,12254
33241,13876
36689,13876
36891,13912
37069,14014
37201,14171
37271,14364
37271,14569
37201,14762
37069,14919
36891,15021
36689,15057
29663,15057
29659,15058
29420,15058
29389,15047
29243,15021
29065,14919
28933,14762
28863,14569
28863,14452
28850,14380
28850,6784
28892,6548
29011,6341
29195,6187
29420,6105
29659,6105
29884,6187
30067,6341
30187,6548
30228,6784
30228,13876
31863,13876
31863,6763
31904,6527
32024,6320
32207,6166
32432,6084
32671,6084
32896,6166
33080,6320
33199,6527
33241,6763
33241,7874
35716,7874
35952,7915
36159,8035
36313,8218
36395,8443
36395,8682
36317,8896
38255,8896
38316,8906
38369,8937
38408,8984
38429,9042
38429,9104
38408,9161
38369,9209
38316,9239
38255,9250
35725,9250
35716,9252
33241,9252
33241,10876
35705,10876
38267,10876
38327,10887
" /> 
<polyline fill="none;"
points="42345,11569
42157,11727
41925,11811
41679,11811
41447,11727
41258,11569
41135,11355
41092,11113
41135,10870
41258,10656
41447,10498
41679,10414
41925,10414
42157,10498
42345,10656
42469,10870
42511,11113
42469,11355
42345,11569
" /> 
<polyline fill="none;"
points="42300,10694
42127,10549
41915,10472
41689,10472
41477,10549
41303,10694
41191,10890
41151,11113
41191,11335
41303,11531
41477,11676
41689,11753
41915,11753
42127,11676
42300,11531
42413,11335
42452,11113
42413,10890
42300,10694
" /> 
<polyline fill="none;"
points="19340,11564
19153,11721
18924,11804
18680,11804
18451,11721
18264,11564
18142,11353
18100,11113
18142,10872
18264,10661
18451,10504
18680,10421
18924,10421
19153,10504
19340,10661
19462,10872
19504,11113
19462,11353
19340,11564
" /> 
<polyline fill="none;"
points="19295,10699
19123,10556
18914,10479
18690,10479
18480,10556
18309,10699
18197,10893
18159,11113
18197,11333
18309,11526
18480,11670
18690,11746
18914,11746
19123,11670
19295,11526
19406,11333
19445,11113
19406,10893
19295,10699
" /> 
<polyline fill="none;"
points="15654,2733
15657,2733
15659,2734
15662,2735
15664,2736
15667,2737
15669,2739
15671,2740
15672,2742
15674,2744
15676,2746
15677,2748
15678,2750
15680,2752
15680,2755
15681,2757
15681,2760
15681,2763
15681,28063
15681,28065
15681,28068
15680,28070
15680,28073
15678,28075
15677,28077
15676,28079
15674,28082
15672,28083
15671,28085
15669,28086
15667,28088
15664,28089
15662,28090
15659,28091
15657,28092
15654,28092
15652,28092
5352,28092
5349,28092
5347,28092
5344,28091
5342,28090
5340,28089
5337,28088
5335,28086
5333,28085
5331,28083
5329,28082
5328,28079
5326,28077
5325,28075
5324,28073
5324,28070
5323,28068
5323,28065
5322,28063
5322,2763
5323,2760
5323,2757
5324,2755
5324,2752
5325,2750
5326,2748
5328,2746
5329,2744
5331,2742
5333,2740
5335,2739
5337,2737
5340,2736
5342,2735
5344,2734
5347,2733
5349,2733
5352,2733
15652,2733
15654,2733
" /> 
<polyline fill="none;"
points="5381,2792
5381,28033
15622,28033
15622,2792
5381,2792
" /> 
<polyline fill="none;"
points="6790,27414
6603,27571
6374,27654
6130,27654
5901,27571
5714,27414
5592,27203
5550,26963
5592,26722
5714,26511
5901,26354
6130,26271
6374,26271
6603,26354
6790,26511
6912,26722
6954,26963
6912,27203
6790,27414
" /> 
<polyline fill="none;"
points="6745,26549
6573,26406
6364,26329
6140,26329
5930,26406
5759,26549
5647,26743
5609,26963
5647,27183
5759,27376
5930,27520
6140,27596
6364,27596
6573,27520
6745,27376
6856,27183
6895,26963
6856,26743
6745,26549
" /> 
<polyline fill="none;"
points="15290,27414
15103,27571
14874,27654
14630,27654
14401,27571
14214,27414
14092,27203
14050,26963
14092,26722
14214,26511
14401,26354
14630,26271
14874,26271
15103,26354
15290,26511
15412,26722
15454,26963
15412,27203
15290,27414
" /> 
<polyline fill="none;"
points="15245,26549
15073,26406
14864,26329
14640,26329
14430,26406
14259,26549
14147,26743
14109,26963
14147,27183
14259,27376
14430,27520
14640,27596
14864,27596
15073,27520
15245,27376
15356,27183
15395,26963
15356,26743
15245,26549
" /> 
<polyline fill="none;"
points="6795,4419
6607,4577
6375,4661
6129,4661
5897,4577
5708,4419
5585,4205
5542,3963
5585,3720
5708,3506
5897,3348
6129,3264
6375,3264
6607,3348
6795,3506
6919,3720
6961,3963
6919,4205
6795,4419
" /> 
<polyline fill="none;"
points="6750,3544
6577,3399
6365,3322
6139,3322
5927,3399
5753,3544
5641,3740
5601,3963
5641,4185
5753,4381
5927,4526
6139,4603
6365,4603
6577,4526
6750,4381
6863,4185
6902,3963
6863,3740
6750,3544
" /> 
<polyline fill="none;"
points="15290,4414
15103,4571
14874,4654
14630,4654
14401,4571
14214,4414
14092,4203
14050,3963
14092,3722
14214,3511
14401,3354
14630,3271
14874,3271
15103,3354
15290,3511
15412,3722
15454,3963
15412,4203
15290,4414
" /> 
<polyline fill="none;"
points="15245,3549
15073,3406
14864,3329
14640,3329
14430,3406
14259,3549
14147,3743
14109,3963
14147,4183
14259,4376
14430,4520
14640,4596
14864,4596
15073,4520
15245,4376
15356,4183
15395,3963
15356,3743
15245,3549
" /> 
</g> 
</svg>
