<?xml version="1.0" standalone="no"?>
 <!DOCTYPE svg PUBLIC "-//W3C//DTD SVG 1.1//EN" 
 "http://www.w3.org/Graphics/SVG/1.1/DTD/svg11.dtd"> 
<svg xmlns="http://www.w3.org/2000/svg" version="1.1" 
    width="12.5705cm" height="8.03656cm" viewBox="0 0 49490 31640 ">
<title>SVG Picture created as relays-brd.svg date 2018/07/08 13:04:18 </title>
  <desc>Picture generated by PCBNEW </desc>
<g style="fill:#000000; fill-opacity:1;stroke:#000000; stroke-opacity:1;
stroke-linecap:round; stroke-linejoin:round; "
 transform="translate(0 0) scale(1 1)">
</g>
<g style="fill:#000000; fill-opacity:0.0; 
stroke:#000000; stroke-width:-0.000393701; stroke-opacity:1; 
stroke-linecap:round; stroke-linejoin:round;">
</g>
<g style="fill:#000000; fill-opacity:0.0; 
stroke:#000000; stroke-width:0; stroke-opacity:1; 
stroke-linecap:round; stroke-linejoin:round;">
</g>
<g style="fill:#000000; fill-opacity:1.0; 
stroke:#000000; stroke-width:0; stroke-opacity:1; 
stroke-linecap:round; stroke-linejoin:round;">
<polyline style="fill-rule:evenodd;"
points="12272,20197
12272,19528
11603,19528
11603,20197
12272,20197
" /> 
<polyline style="fill-rule:evenodd;"
points="11272,20197
11272,19528
10603,19528
10603,20197
11272,20197
" /> 
<circle cx="22437.7" cy="7063.06" r="393.701" /> 
</g>
<g style="fill:#000000; fill-opacity:1.0; 
stroke:#000000; stroke-width:39.3701; stroke-opacity:1; 
stroke-linecap:round; stroke-linejoin:round;">
</g>
<g style="fill:#000000; fill-opacity:1.0; 
stroke:#000000; stroke-width:0; stroke-opacity:1; 
stroke-linecap:round; stroke-linejoin:round;">
<circle cx="18437.7" cy="7063.06" r="393.701" /> 
</g>
<g style="fill:#000000; fill-opacity:1.0; 
stroke:#000000; stroke-width:39.3701; stroke-opacity:1; 
stroke-linecap:round; stroke-linejoin:round;">
</g>
<g style="fill:#000000; fill-opacity:1.0; 
stroke:#000000; stroke-width:0; stroke-opacity:1; 
stroke-linecap:round; stroke-linejoin:round;">
<circle cx="15437.7" cy="7063.06" r="393.701" /> 
</g>
<g style="fill:#000000; fill-opacity:1.0; 
stroke:#000000; stroke-width:39.3701; stroke-opacity:1; 
stroke-linecap:round; stroke-linejoin:round;">
</g>
<g style="fill:#000000; fill-opacity:1.0; 
stroke:#000000; stroke-width:0; stroke-opacity:1; 
stroke-linecap:round; stroke-linejoin:round;">
<circle cx="15437.7" cy="4063.06" r="393.701" /> 
</g>
<g style="fill:#000000; fill-opacity:1.0; 
stroke:#000000; stroke-width:39.3701; stroke-opacity:1; 
stroke-linecap:round; stroke-linejoin:round;">
</g>
<g style="fill:#000000; fill-opacity:1.0; 
stroke:#000000; stroke-width:0; stroke-opacity:1; 
stroke-linecap:round; stroke-linejoin:round;">
<circle cx="22437.7" cy="4063.06" r="393.701" /> 
</g>
<g style="fill:#000000; fill-opacity:1.0; 
stroke:#000000; stroke-width:39.3701; stroke-opacity:1; 
stroke-linecap:round; stroke-linejoin:round;">
</g>
<g style="fill:#000000; fill-opacity:1.0; 
stroke:#000000; stroke-width:0; stroke-opacity:1; 
stroke-linecap:round; stroke-linejoin:round;">
<circle cx="22437.7" cy="13063.1" r="393.701" /> 
</g>
<g style="fill:#000000; fill-opacity:1.0; 
stroke:#000000; stroke-width:39.3701; stroke-opacity:1; 
stroke-linecap:round; stroke-linejoin:round;">
</g>
<g style="fill:#000000; fill-opacity:1.0; 
stroke:#000000; stroke-width:0; stroke-opacity:1; 
stroke-linecap:round; stroke-linejoin:round;">
<circle cx="18437.7" cy="13063.1" r="393.701" /> 
</g>
<g style="fill:#000000; fill-opacity:1.0; 
stroke:#000000; stroke-width:39.3701; stroke-opacity:1; 
stroke-linecap:round; stroke-linejoin:round;">
</g>
<g style="fill:#000000; fill-opacity:1.0; 
stroke:#000000; stroke-width:0; stroke-opacity:1; 
stroke-linecap:round; stroke-linejoin:round;">
<circle cx="15437.7" cy="13063.1" r="393.701" /> 
</g>
<g style="fill:#000000; fill-opacity:1.0; 
stroke:#000000; stroke-width:39.3701; stroke-opacity:1; 
stroke-linecap:round; stroke-linejoin:round;">
</g>
<g style="fill:#000000; fill-opacity:1.0; 
stroke:#000000; stroke-width:0; stroke-opacity:1; 
stroke-linecap:round; stroke-linejoin:round;">
<circle cx="15437.7" cy="10063.1" r="393.701" /> 
</g>
<g style="fill:#000000; fill-opacity:1.0; 
stroke:#000000; stroke-width:39.3701; stroke-opacity:1; 
stroke-linecap:round; stroke-linejoin:round;">
</g>
<g style="fill:#000000; fill-opacity:1.0; 
stroke:#000000; stroke-width:0; stroke-opacity:1; 
stroke-linecap:round; stroke-linejoin:round;">
<circle cx="22437.7" cy="10063.1" r="393.701" /> 
</g>
<g style="fill:#000000; fill-opacity:1.0; 
stroke:#000000; stroke-width:39.3701; stroke-opacity:1; 
stroke-linecap:round; stroke-linejoin:round;">
</g>
<g style="fill:#000000; fill-opacity:1.0; 
stroke:#000000; stroke-width:0; stroke-opacity:1; 
stroke-linecap:round; stroke-linejoin:round;">
<polyline style="fill-rule:evenodd;"
points="35748,21674
35748,23052
37126,23052
37126,21674
35748,21674
" /> 
<circle cx="41162.1" cy="22363.1" r="688.976" /> 
</g>
<g style="fill:#000000; fill-opacity:1.0; 
stroke:#000000; stroke-width:39.3701; stroke-opacity:1; 
stroke-linecap:round; stroke-linejoin:round;">
</g>
<g style="fill:#000000; fill-opacity:1.0; 
stroke:#000000; stroke-width:0; stroke-opacity:1; 
stroke-linecap:round; stroke-linejoin:round;">
<circle cx="41162.1" cy="7008.73" r="590.551" /> 
</g>
<g style="fill:#000000; fill-opacity:1.0; 
stroke:#000000; stroke-width:39.3701; stroke-opacity:1; 
stroke-linecap:round; stroke-linejoin:round;">
</g>
<g style="fill:#000000; fill-opacity:1.0; 
stroke:#000000; stroke-width:0; stroke-opacity:1; 
stroke-linecap:round; stroke-linejoin:round;">
<circle cx="38406.2" cy="7008.73" r="590.551" /> 
</g>
<g style="fill:#000000; fill-opacity:1.0; 
stroke:#000000; stroke-width:39.3701; stroke-opacity:1; 
stroke-linecap:round; stroke-linejoin:round;">
</g>
<g style="fill:#000000; fill-opacity:1.0; 
stroke:#000000; stroke-width:0; stroke-opacity:1; 
stroke-linecap:round; stroke-linejoin:round;">
<polyline style="fill-rule:evenodd;"
points="20903,17047
21572,17047
21572,16378
20903,16378
20903,17047
" /> 
</g>
<g style="fill:#000000; fill-opacity:1.0; 
stroke:#000000; stroke-width:669.291; stroke-opacity:1; 
stroke-linecap:round; stroke-linejoin:round;">
</g>
<g style="fill:#000000; fill-opacity:0.0; 
stroke:#000000; stroke-width:669.291; stroke-opacity:1; 
stroke-linecap:round; stroke-linejoin:round;">
<path d="M20237 16713
L20237 16713
" />
<path d="M19237 16713
L19237 16713
" />
</g>
<g style="fill:#000000; fill-opacity:1.0; 
stroke:#000000; stroke-width:0; stroke-opacity:1; 
stroke-linecap:round; stroke-linejoin:round;">
<circle cx="12137.7" cy="8094.56" r="492.126" /> 
</g>
<g style="fill:#000000; fill-opacity:1.0; 
stroke:#000000; stroke-width:39.3701; stroke-opacity:1; 
stroke-linecap:round; stroke-linejoin:round;">
</g>
<g style="fill:#000000; fill-opacity:1.0; 
stroke:#000000; stroke-width:0; stroke-opacity:1; 
stroke-linecap:round; stroke-linejoin:round;">
<polyline style="fill-rule:evenodd;"
points="11645,12523
12629,12523
12629,11539
11645,11539
11645,12523
" /> 
<circle cx="12137.7" cy="10063.1" r="492.126" /> 
</g>
<g style="fill:#000000; fill-opacity:1.0; 
stroke:#000000; stroke-width:39.3701; stroke-opacity:1; 
stroke-linecap:round; stroke-linejoin:round;">
</g>
<g style="fill:#000000; fill-opacity:1.0; 
stroke:#000000; stroke-width:0; stroke-opacity:1; 
stroke-linecap:round; stroke-linejoin:round;">
<polyline style="fill-rule:evenodd;"
points="40098,26655
40098,25670
39114,25670
39114,26655
40098,26655
" /> 
<circle cx="37637.7" cy="26163.1" r="492.126" /> 
</g>
<g style="fill:#000000; fill-opacity:1.0; 
stroke:#000000; stroke-width:39.3701; stroke-opacity:1; 
stroke-linecap:round; stroke-linejoin:round;">
</g>
<g style="fill:#000000; fill-opacity:1.0; 
stroke:#000000; stroke-width:0; stroke-opacity:1; 
stroke-linecap:round; stroke-linejoin:round;">
<polyline style="fill-rule:evenodd;"
points="39472,3328
38803,3328
38803,3997
39472,3997
39472,3328
" /> 
</g>
<g style="fill:#000000; fill-opacity:1.0; 
stroke:#000000; stroke-width:669.291; stroke-opacity:1; 
stroke-linecap:round; stroke-linejoin:round;">
</g>
<g style="fill:#000000; fill-opacity:0.0; 
stroke:#000000; stroke-width:669.291; stroke-opacity:1; 
stroke-linecap:round; stroke-linejoin:round;">
<path d="M40137 3663
L40137 3663
" />
</g>
<g style="fill:#000000; fill-opacity:0.0; 
stroke:#000000; stroke-width:0; stroke-opacity:1; 
stroke-linecap:round; stroke-linejoin:round;">
</g>
<g style="fill:#000000; fill-opacity:1.0; 
stroke:#000000; stroke-width:0; stroke-opacity:1; 
stroke-linecap:round; stroke-linejoin:round;">
<polyline style="fill-rule:evenodd;"
points="13903,24528
13903,25197
14572,25197
14572,24528
13903,24528
" /> 
</g>
<g style="fill:#000000; fill-opacity:1.0; 
stroke:#000000; stroke-width:669.291; stroke-opacity:1; 
stroke-linecap:round; stroke-linejoin:round;">
</g>
<g style="fill:#000000; fill-opacity:0.0; 
stroke:#000000; stroke-width:669.291; stroke-opacity:1; 
stroke-linecap:round; stroke-linejoin:round;">
<path d="M14237 23863
L14237 23863
" />
</g>
<g style="fill:#000000; fill-opacity:0.0; 
stroke:#000000; stroke-width:0; stroke-opacity:1; 
stroke-linecap:round; stroke-linejoin:round;">
</g>
<g style="fill:#000000; fill-opacity:1.0; 
stroke:#000000; stroke-width:0; stroke-opacity:1; 
stroke-linecap:round; stroke-linejoin:round;">
<polyline style="fill-rule:evenodd;"
points="13903,22028
13903,22697
14572,22697
14572,22028
13903,22028
" /> 
</g>
<g style="fill:#000000; fill-opacity:1.0; 
stroke:#000000; stroke-width:669.291; stroke-opacity:1; 
stroke-linecap:round; stroke-linejoin:round;">
</g>
<g style="fill:#000000; fill-opacity:0.0; 
stroke:#000000; stroke-width:669.291; stroke-opacity:1; 
stroke-linecap:round; stroke-linejoin:round;">
<path d="M14237 21363
L14237 21363
" />
</g>
<g style="fill:#000000; fill-opacity:0.0; 
stroke:#000000; stroke-width:0; stroke-opacity:1; 
stroke-linecap:round; stroke-linejoin:round;">
</g>
<g style="fill:#000000; fill-opacity:1.0; 
stroke:#000000; stroke-width:0; stroke-opacity:1; 
stroke-linecap:round; stroke-linejoin:round;">
<polyline style="fill-rule:evenodd;"
points="14072,16628
13403,16628
13403,17297
14072,17297
14072,16628
" /> 
</g>
<g style="fill:#000000; fill-opacity:1.0; 
stroke:#000000; stroke-width:669.291; stroke-opacity:1; 
stroke-linecap:round; stroke-linejoin:round;">
</g>
<g style="fill:#000000; fill-opacity:0.0; 
stroke:#000000; stroke-width:669.291; stroke-opacity:1; 
stroke-linecap:round; stroke-linejoin:round;">
<path d="M14737 16963
L14737 16963
" />
</g>
<g style="fill:#000000; fill-opacity:1.0; 
stroke:#000000; stroke-width:0; stroke-opacity:1; 
stroke-linecap:round; stroke-linejoin:round;">
<circle cx="24987.7" cy="25713.1" r="314.961" /> 
</g>
<g style="fill:#000000; fill-opacity:1.0; 
stroke:#000000; stroke-width:39.3701; stroke-opacity:1; 
stroke-linecap:round; stroke-linejoin:round;">
</g>
<g style="fill:#000000; fill-opacity:1.0; 
stroke:#000000; stroke-width:0; stroke-opacity:1; 
stroke-linecap:round; stroke-linejoin:round;">
<circle cx="24987.7" cy="18663.1" r="314.961" /> 
</g>
<g style="fill:#000000; fill-opacity:1.0; 
stroke:#000000; stroke-width:39.3701; stroke-opacity:1; 
stroke-linecap:round; stroke-linejoin:round;">
</g>
<g style="fill:#000000; fill-opacity:1.0; 
stroke:#000000; stroke-width:0; stroke-opacity:1; 
stroke-linecap:round; stroke-linejoin:round;">
<circle cx="27021.9" cy="15713.1" r="314.961" /> 
</g>
<g style="fill:#000000; fill-opacity:1.0; 
stroke:#000000; stroke-width:39.3701; stroke-opacity:1; 
stroke-linecap:round; stroke-linejoin:round;">
</g>
<g style="fill:#000000; fill-opacity:1.0; 
stroke:#000000; stroke-width:0; stroke-opacity:1; 
stroke-linecap:round; stroke-linejoin:round;">
<circle cx="13737.7" cy="15713.1" r="314.961" /> 
</g>
<g style="fill:#000000; fill-opacity:1.0; 
stroke:#000000; stroke-width:39.3701; stroke-opacity:1; 
stroke-linecap:round; stroke-linejoin:round;">
</g>
<g style="fill:#000000; fill-opacity:1.0; 
stroke:#000000; stroke-width:0; stroke-opacity:1; 
stroke-linecap:round; stroke-linejoin:round;">
<circle cx="26637.7" cy="22663.1" r="314.961" /> 
</g>
<g style="fill:#000000; fill-opacity:1.0; 
stroke:#000000; stroke-width:39.3701; stroke-opacity:1; 
stroke-linecap:round; stroke-linejoin:round;">
</g>
<g style="fill:#000000; fill-opacity:1.0; 
stroke:#000000; stroke-width:0; stroke-opacity:1; 
stroke-linecap:round; stroke-linejoin:round;">
<circle cx="26637.7" cy="18663.1" r="314.961" /> 
</g>
<g style="fill:#000000; fill-opacity:1.0; 
stroke:#000000; stroke-width:39.3701; stroke-opacity:1; 
stroke-linecap:round; stroke-linejoin:round;">
</g>
<g style="fill:#000000; fill-opacity:1.0; 
stroke:#000000; stroke-width:300; stroke-opacity:1; 
stroke-linecap:round; stroke-linejoin:round;">
</g>
<g style="fill:#000000; fill-opacity:0.0; 
stroke:#000000; stroke-width:300; stroke-opacity:1; 
stroke-linecap:round; stroke-linejoin:round;">
<path d="M27021 15713
L13737 15713
" />
<path d="M24987 18663
L24987 19108
" />
<path d="M24987 19108
L24987 25713
" />
<path d="M26637 18663
L26637 22663
" />
</g>
<g style="fill:#000000; fill-opacity:1.0; 
stroke:#000000; stroke-width:48.8189; stroke-opacity:1; 
stroke-linecap:round; stroke-linejoin:round;">
<polyline style="fill-rule:evenodd;"
points="20812,15013
20810,15021
20805,15030
20797,15035
20787,15037
6635,15037
6635,20674
14025,28025
16313,28034
16313,25088
16314,25079
16320,25071
16328,25065
16337,25063
23037,25063
23046,25065
23054,25070
23060,25078
23062,25088
23062,28059
24489,28064
28690,23863
14807,23863
14765,24077
14643,24258
14580,24301
14655,24315
14731,24364
14783,24439
14801,24528
14801,25197
14785,25280
14736,25357
14661,25408
14572,25426
13903,25426
13819,25410
13743,25361
13692,25286
13674,25197
13674,24528
13689,24445
13739,24368
13813,24317
13895,24301
13831,24258
13710,24077
13667,23863
13710,23649
13831,23467
14012,23346
14226,23304
14248,23304
14462,23346
14643,23467
14765,23649
14807,23863
28690,23863
31190,21363
14807,21363
14765,21577
14643,21758
14580,21801
14655,21815
14731,21864
14783,21939
14801,22028
14801,22697
14785,22780
14736,22857
14661,22908
14572,22926
13903,22926
13819,22910
13743,22861
13692,22786
13674,22697
13674,22028
13689,21945
13739,21868
13813,21817
13895,21801
13831,21758
13710,21577
13667,21363
13710,21149
13831,20967
14012,20846
14226,20804
14248,20804
14462,20846
14643,20967
14765,21149
14807,21363
31190,21363
31839,20714
31835,19782
31542,19782
31412,20096
31172,20336
30858,20467
30518,20467
30204,20337
29963,20097
29833,19783
29833,19528
12501,19528
12501,20197
12485,20280
12436,20357
12361,20408
12272,20426
11603,20426
11519,20410
11443,20361
11438,20354
11436,20357
11361,20408
11272,20426
10603,20426
10519,20410
10443,20361
10392,20286
10374,20197
10374,19782
8542,19782
8412,20096
8172,20336
7858,20467
7518,20467
7204,20337
6963,20097
6833,19783
6833,19443
6962,19129
7203,18889
7516,18758
7856,18758
8170,18888
8411,19128
8541,19442
8542,19782
10374,19782
10374,19528
10389,19445
10439,19368
10513,19317
10603,19299
11272,19299
11355,19315
11431,19364
11437,19371
11439,19368
11513,19317
11603,19299
12272,19299
12355,19315
12431,19364
12483,19439
12501,19528
29833,19528
29833,19443
29962,19129
30203,18889
30516,18758
30856,18758
31170,18888
31411,19128
31541,19442
31542,19782
31835,19782
31824,16769
21696,16769
21696,17072
21677,17118
21642,17153
21597,17172
21294,17172
21263,17141
21263,16738
21665,16738
21696,16769
31824,16769
31823,16353
21696,16353
21696,16656
21665,16687
21263,16687
21263,16285
21212,16285
21212,16687
21204,16687
21204,16738
21212,16738
21212,17141
21180,17172
20878,17172
20832,17153
20797,17118
20778,17072
20778,16815
20754,16937
20632,17119
20451,17240
20237,17283
20023,17240
19842,17119
19737,16962
19632,17119
19451,17240
19237,17283
19023,17240
18842,17119
18730,16952
15296,16952
15296,16974
15254,17187
15132,17369
14951,17490
14737,17533
14523,17490
14342,17369
14221,17187
14196,17065
14196,17322
14177,17368
14142,17403
14097,17422
13794,17422
13763,17391
13763,16988
13712,16988
13712,17391
13680,17422
13378,17422
13332,17403
13297,17368
13278,17322
13278,17019
13309,16988
13712,16988
13763,16988
13771,16988
13771,16937
13763,16937
13763,16535
13712,16535
13712,16937
13309,16937
13278,16906
13278,16603
13297,16557
13332,16522
13378,16504
13680,16504
13712,16535
13763,16535
13794,16504
14097,16504
14142,16522
14177,16557
14196,16603
14196,16861
14221,16738
14342,16556
14523,16435
14737,16393
14951,16435
15132,16556
15254,16738
15296,16952
18730,16952
18721,16937
18678,16724
18678,16702
18721,16488
18842,16306
19023,16185
19237,16143
19451,16185
19632,16306
19737,16463
19842,16306
20023,16185
20237,16143
20451,16185
20632,16306
20754,16488
20778,16611
20778,16353
20797,16307
20832,16272
20878,16254
21180,16254
21212,16285
21263,16285
21294,16254
21597,16254
21642,16272
21677,16307
21696,16353
31823,16353
31811,13185
23055,13185
22961,13412
22788,13586
22561,13681
22315,13681
22087,13587
21913,13413
21819,13186
21819,12940
21913,12713
22087,12539
22314,12445
22560,12444
22787,12538
22961,12712
23055,12939
23055,13185
31811,13185
31804,11282
31542,11282
31412,11596
31172,11836
30858,11967
30518,11967
30204,11837
29963,11597
29833,11283
29833,10943
29962,10629
30203,10389
30516,10258
30856,10258
31170,10388
31411,10628
31541,10942
31542,11282
31804,11282
31800,10185
23055,10185
22961,10412
22788,10586
22561,10681
22315,10681
22087,10587
21913,10413
21819,10186
21819,9940
21913,9713
22087,9539
22314,9445
22560,9444
22787,9538
22961,9712
23055,9939
23055,10185
31800,10185
31800,10172
28813,7185
23055,7185
22961,7412
22788,7586
22561,7681
22315,7681
22087,7587
21913,7413
21819,7186
21819,6940
21913,6713
22087,6539
22314,6445
22560,6444
22787,6538
22961,6712
23055,6939
23055,7185
28813,7185
25813,4185
23055,4185
22961,4412
22788,4586
22561,4681
22315,4681
22087,4587
21913,4413
21819,4186
21819,3940
21913,3713
22087,3539
22314,3445
22560,3444
22787,3538
22961,3712
23055,3939
23055,4185
25813,4185
24488,2861
20861,2861
20812,15013
" /> 
</g>
<g style="fill:#FFFFFF; fill-opacity:1.0; 
stroke:#FFFFFF; stroke-width:48.8189; stroke-opacity:1; 
stroke-linecap:round; stroke-linejoin:round;">
</g>
<g style="fill:#FFFFFF; fill-opacity:1.0; 
stroke:#FFFFFF; stroke-width:0; stroke-opacity:1; 
stroke-linecap:round; stroke-linejoin:round;">
<circle cx="24987.7" cy="25713.1" r="157.48" /> 
</g>
<g style="fill:#FFFFFF; fill-opacity:1.0; 
stroke:#FFFFFF; stroke-width:39.3701; stroke-opacity:1; 
stroke-linecap:round; stroke-linejoin:round;">
</g>
<g style="fill:#FFFFFF; fill-opacity:1.0; 
stroke:#FFFFFF; stroke-width:0; stroke-opacity:1; 
stroke-linecap:round; stroke-linejoin:round;">
<circle cx="24987.7" cy="18663.1" r="157.48" /> 
</g>
<g style="fill:#FFFFFF; fill-opacity:1.0; 
stroke:#FFFFFF; stroke-width:39.3701; stroke-opacity:1; 
stroke-linecap:round; stroke-linejoin:round;">
</g>
<g style="fill:#FFFFFF; fill-opacity:1.0; 
stroke:#FFFFFF; stroke-width:0; stroke-opacity:1; 
stroke-linecap:round; stroke-linejoin:round;">
<circle cx="27021.9" cy="15713.1" r="157.48" /> 
</g>
<g style="fill:#FFFFFF; fill-opacity:1.0; 
stroke:#FFFFFF; stroke-width:39.3701; stroke-opacity:1; 
stroke-linecap:round; stroke-linejoin:round;">
</g>
<g style="fill:#FFFFFF; fill-opacity:1.0; 
stroke:#FFFFFF; stroke-width:0; stroke-opacity:1; 
stroke-linecap:round; stroke-linejoin:round;">
<circle cx="13737.7" cy="15713.1" r="157.48" /> 
</g>
<g style="fill:#FFFFFF; fill-opacity:1.0; 
stroke:#FFFFFF; stroke-width:39.3701; stroke-opacity:1; 
stroke-linecap:round; stroke-linejoin:round;">
</g>
<g style="fill:#FFFFFF; fill-opacity:1.0; 
stroke:#FFFFFF; stroke-width:0; stroke-opacity:1; 
stroke-linecap:round; stroke-linejoin:round;">
<circle cx="26637.7" cy="22663.1" r="157.48" /> 
</g>
<g style="fill:#FFFFFF; fill-opacity:1.0; 
stroke:#FFFFFF; stroke-width:39.3701; stroke-opacity:1; 
stroke-linecap:round; stroke-linejoin:round;">
</g>
<g style="fill:#FFFFFF; fill-opacity:1.0; 
stroke:#FFFFFF; stroke-width:0; stroke-opacity:1; 
stroke-linecap:round; stroke-linejoin:round;">
<circle cx="26637.7" cy="18663.1" r="157.48" /> 
</g>
<g style="fill:#FFFFFF; fill-opacity:1.0; 
stroke:#FFFFFF; stroke-width:39.3701; stroke-opacity:1; 
stroke-linecap:round; stroke-linejoin:round;">
</g>
<g style="fill:#FFFFFF; fill-opacity:1.0; 
stroke:#FFFFFF; stroke-width:0; stroke-opacity:1; 
stroke-linecap:round; stroke-linejoin:round;">
<circle cx="30687.7" cy="19613.1" r="629.921" /> 
</g>
<g style="fill:#FFFFFF; fill-opacity:1.0; 
stroke:#FFFFFF; stroke-width:39.3701; stroke-opacity:1; 
stroke-linecap:round; stroke-linejoin:round;">
</g>
<g style="fill:#FFFFFF; fill-opacity:1.0; 
stroke:#FFFFFF; stroke-width:0; stroke-opacity:1; 
stroke-linecap:round; stroke-linejoin:round;">
<circle cx="7687.66" cy="11113.1" r="629.921" /> 
</g>
<g style="fill:#FFFFFF; fill-opacity:1.0; 
stroke:#FFFFFF; stroke-width:39.3701; stroke-opacity:1; 
stroke-linecap:round; stroke-linejoin:round;">
</g>
<g style="fill:#FFFFFF; fill-opacity:1.0; 
stroke:#FFFFFF; stroke-width:0; stroke-opacity:1; 
stroke-linecap:round; stroke-linejoin:round;">
<circle cx="7687.66" cy="19613.1" r="629.921" /> 
</g>
<g style="fill:#FFFFFF; fill-opacity:1.0; 
stroke:#FFFFFF; stroke-width:39.3701; stroke-opacity:1; 
stroke-linecap:round; stroke-linejoin:round;">
</g>
<g style="fill:#FFFFFF; fill-opacity:1.0; 
stroke:#FFFFFF; stroke-width:0; stroke-opacity:1; 
stroke-linecap:round; stroke-linejoin:round;">
<circle cx="30687.7" cy="11113.1" r="629.921" /> 
</g>
<g style="fill:#FFFFFF; fill-opacity:1.0; 
stroke:#FFFFFF; stroke-width:39.3701; stroke-opacity:1; 
stroke-linecap:round; stroke-linejoin:round;">
</g>
<g style="fill:#FFFFFF; fill-opacity:1.0; 
stroke:#FFFFFF; stroke-width:0; stroke-opacity:1; 
stroke-linecap:round; stroke-linejoin:round;">
<circle cx="11937.7" cy="19863.1" r="196.85" /> 
</g>
<g style="fill:#FFFFFF; fill-opacity:1.0; 
stroke:#FFFFFF; stroke-width:39.3701; stroke-opacity:1; 
stroke-linecap:round; stroke-linejoin:round;">
</g>
<g style="fill:#FFFFFF; fill-opacity:1.0; 
stroke:#FFFFFF; stroke-width:0; stroke-opacity:1; 
stroke-linecap:round; stroke-linejoin:round;">
<circle cx="10937.7" cy="19863.1" r="196.85" /> 
</g>
<g style="fill:#FFFFFF; fill-opacity:1.0; 
stroke:#FFFFFF; stroke-width:39.3701; stroke-opacity:1; 
stroke-linecap:round; stroke-linejoin:round;">
</g>
<g style="fill:#FFFFFF; fill-opacity:1.0; 
stroke:#FFFFFF; stroke-width:0; stroke-opacity:1; 
stroke-linecap:round; stroke-linejoin:round;">
<circle cx="22437.7" cy="7063.06" r="196.85" /> 
</g>
<g style="fill:#FFFFFF; fill-opacity:1.0; 
stroke:#FFFFFF; stroke-width:39.3701; stroke-opacity:1; 
stroke-linecap:round; stroke-linejoin:round;">
</g>
<g style="fill:#FFFFFF; fill-opacity:1.0; 
stroke:#FFFFFF; stroke-width:0; stroke-opacity:1; 
stroke-linecap:round; stroke-linejoin:round;">
<circle cx="18437.7" cy="7063.06" r="196.85" /> 
</g>
<g style="fill:#FFFFFF; fill-opacity:1.0; 
stroke:#FFFFFF; stroke-width:39.3701; stroke-opacity:1; 
stroke-linecap:round; stroke-linejoin:round;">
</g>
<g style="fill:#FFFFFF; fill-opacity:1.0; 
stroke:#FFFFFF; stroke-width:0; stroke-opacity:1; 
stroke-linecap:round; stroke-linejoin:round;">
<circle cx="15437.7" cy="7063.06" r="196.85" /> 
</g>
<g style="fill:#FFFFFF; fill-opacity:1.0; 
stroke:#FFFFFF; stroke-width:39.3701; stroke-opacity:1; 
stroke-linecap:round; stroke-linejoin:round;">
</g>
<g style="fill:#FFFFFF; fill-opacity:1.0; 
stroke:#FFFFFF; stroke-width:0; stroke-opacity:1; 
stroke-linecap:round; stroke-linejoin:round;">
<circle cx="15437.7" cy="4063.06" r="196.85" /> 
</g>
<g style="fill:#FFFFFF; fill-opacity:1.0; 
stroke:#FFFFFF; stroke-width:39.3701; stroke-opacity:1; 
stroke-linecap:round; stroke-linejoin:round;">
</g>
<g style="fill:#FFFFFF; fill-opacity:1.0; 
stroke:#FFFFFF; stroke-width:0; stroke-opacity:1; 
stroke-linecap:round; stroke-linejoin:round;">
<circle cx="22437.7" cy="4063.06" r="196.85" /> 
</g>
<g style="fill:#FFFFFF; fill-opacity:1.0; 
stroke:#FFFFFF; stroke-width:39.3701; stroke-opacity:1; 
stroke-linecap:round; stroke-linejoin:round;">
</g>
<g style="fill:#FFFFFF; fill-opacity:1.0; 
stroke:#FFFFFF; stroke-width:0; stroke-opacity:1; 
stroke-linecap:round; stroke-linejoin:round;">
<circle cx="22437.7" cy="13063.1" r="196.85" /> 
</g>
<g style="fill:#FFFFFF; fill-opacity:1.0; 
stroke:#FFFFFF; stroke-width:39.3701; stroke-opacity:1; 
stroke-linecap:round; stroke-linejoin:round;">
</g>
<g style="fill:#FFFFFF; fill-opacity:1.0; 
stroke:#FFFFFF; stroke-width:0; stroke-opacity:1; 
stroke-linecap:round; stroke-linejoin:round;">
<circle cx="18437.7" cy="13063.1" r="196.85" /> 
</g>
<g style="fill:#FFFFFF; fill-opacity:1.0; 
stroke:#FFFFFF; stroke-width:39.3701; stroke-opacity:1; 
stroke-linecap:round; stroke-linejoin:round;">
</g>
<g style="fill:#FFFFFF; fill-opacity:1.0; 
stroke:#FFFFFF; stroke-width:0; stroke-opacity:1; 
stroke-linecap:round; stroke-linejoin:round;">
<circle cx="15437.7" cy="13063.1" r="196.85" /> 
</g>
<g style="fill:#FFFFFF; fill-opacity:1.0; 
stroke:#FFFFFF; stroke-width:39.3701; stroke-opacity:1; 
stroke-linecap:round; stroke-linejoin:round;">
</g>
<g style="fill:#FFFFFF; fill-opacity:1.0; 
stroke:#FFFFFF; stroke-width:0; stroke-opacity:1; 
stroke-linecap:round; stroke-linejoin:round;">
<circle cx="15437.7" cy="10063.1" r="196.85" /> 
</g>
<g style="fill:#FFFFFF; fill-opacity:1.0; 
stroke:#FFFFFF; stroke-width:39.3701; stroke-opacity:1; 
stroke-linecap:round; stroke-linejoin:round;">
</g>
<g style="fill:#FFFFFF; fill-opacity:1.0; 
stroke:#FFFFFF; stroke-width:0; stroke-opacity:1; 
stroke-linecap:round; stroke-linejoin:round;">
<circle cx="22437.7" cy="10063.1" r="196.85" /> 
</g>
<g style="fill:#FFFFFF; fill-opacity:1.0; 
stroke:#FFFFFF; stroke-width:39.3701; stroke-opacity:1; 
stroke-linecap:round; stroke-linejoin:round;">
</g>
<g style="fill:#FFFFFF; fill-opacity:1.0; 
stroke:#FFFFFF; stroke-width:0; stroke-opacity:1; 
stroke-linecap:round; stroke-linejoin:round;">
<circle cx="36437.7" cy="22363.1" r="295.276" /> 
</g>
<g style="fill:#FFFFFF; fill-opacity:1.0; 
stroke:#FFFFFF; stroke-width:39.3701; stroke-opacity:1; 
stroke-linecap:round; stroke-linejoin:round;">
</g>
<g style="fill:#FFFFFF; fill-opacity:1.0; 
stroke:#FFFFFF; stroke-width:0; stroke-opacity:1; 
stroke-linecap:round; stroke-linejoin:round;">
<circle cx="41162.1" cy="22363.1" r="295.276" /> 
</g>
<g style="fill:#FFFFFF; fill-opacity:1.0; 
stroke:#FFFFFF; stroke-width:39.3701; stroke-opacity:1; 
stroke-linecap:round; stroke-linejoin:round;">
</g>
<g style="fill:#FFFFFF; fill-opacity:1.0; 
stroke:#FFFFFF; stroke-width:0; stroke-opacity:1; 
stroke-linecap:round; stroke-linejoin:round;">
<circle cx="41162.1" cy="7008.73" r="295.276" /> 
</g>
<g style="fill:#FFFFFF; fill-opacity:1.0; 
stroke:#FFFFFF; stroke-width:39.3701; stroke-opacity:1; 
stroke-linecap:round; stroke-linejoin:round;">
</g>
<g style="fill:#FFFFFF; fill-opacity:1.0; 
stroke:#FFFFFF; stroke-width:0; stroke-opacity:1; 
stroke-linecap:round; stroke-linejoin:round;">
<circle cx="38406.2" cy="7008.73" r="295.276" /> 
</g>
<g style="fill:#FFFFFF; fill-opacity:1.0; 
stroke:#FFFFFF; stroke-width:39.3701; stroke-opacity:1; 
stroke-linecap:round; stroke-linejoin:round;">
</g>
<g style="fill:#FFFFFF; fill-opacity:1.0; 
stroke:#FFFFFF; stroke-width:0; stroke-opacity:1; 
stroke-linecap:round; stroke-linejoin:round;">
<circle cx="21237.7" cy="16713.1" r="196.85" /> 
</g>
<g style="fill:#FFFFFF; fill-opacity:1.0; 
stroke:#FFFFFF; stroke-width:39.3701; stroke-opacity:1; 
stroke-linecap:round; stroke-linejoin:round;">
</g>
<g style="fill:#FFFFFF; fill-opacity:1.0; 
stroke:#FFFFFF; stroke-width:0; stroke-opacity:1; 
stroke-linecap:round; stroke-linejoin:round;">
<circle cx="20237.7" cy="16713.1" r="196.85" /> 
</g>
<g style="fill:#FFFFFF; fill-opacity:1.0; 
stroke:#FFFFFF; stroke-width:39.3701; stroke-opacity:1; 
stroke-linecap:round; stroke-linejoin:round;">
</g>
<g style="fill:#FFFFFF; fill-opacity:1.0; 
stroke:#FFFFFF; stroke-width:0; stroke-opacity:1; 
stroke-linecap:round; stroke-linejoin:round;">
<circle cx="19237.7" cy="16713.1" r="196.85" /> 
</g>
<g style="fill:#FFFFFF; fill-opacity:1.0; 
stroke:#FFFFFF; stroke-width:39.3701; stroke-opacity:1; 
stroke-linecap:round; stroke-linejoin:round;">
</g>
<g style="fill:#FFFFFF; fill-opacity:1.0; 
stroke:#FFFFFF; stroke-width:0; stroke-opacity:1; 
stroke-linecap:round; stroke-linejoin:round;">
<circle cx="12137.7" cy="8094.56" r="255.906" /> 
</g>
<g style="fill:#FFFFFF; fill-opacity:1.0; 
stroke:#FFFFFF; stroke-width:39.3701; stroke-opacity:1; 
stroke-linecap:round; stroke-linejoin:round;">
</g>
<g style="fill:#FFFFFF; fill-opacity:1.0; 
stroke:#FFFFFF; stroke-width:0; stroke-opacity:1; 
stroke-linecap:round; stroke-linejoin:round;">
<circle cx="12137.7" cy="12031.6" r="255.906" /> 
</g>
<g style="fill:#FFFFFF; fill-opacity:1.0; 
stroke:#FFFFFF; stroke-width:39.3701; stroke-opacity:1; 
stroke-linecap:round; stroke-linejoin:round;">
</g>
<g style="fill:#FFFFFF; fill-opacity:1.0; 
stroke:#FFFFFF; stroke-width:0; stroke-opacity:1; 
stroke-linecap:round; stroke-linejoin:round;">
<circle cx="12137.7" cy="10063.1" r="255.906" /> 
</g>
<g style="fill:#FFFFFF; fill-opacity:1.0; 
stroke:#FFFFFF; stroke-width:39.3701; stroke-opacity:1; 
stroke-linecap:round; stroke-linejoin:round;">
</g>
<g style="fill:#FFFFFF; fill-opacity:1.0; 
stroke:#FFFFFF; stroke-width:0; stroke-opacity:1; 
stroke-linecap:round; stroke-linejoin:round;">
<circle cx="39606.2" cy="26163.1" r="255.906" /> 
</g>
<g style="fill:#FFFFFF; fill-opacity:1.0; 
stroke:#FFFFFF; stroke-width:39.3701; stroke-opacity:1; 
stroke-linecap:round; stroke-linejoin:round;">
</g>
<g style="fill:#FFFFFF; fill-opacity:1.0; 
stroke:#FFFFFF; stroke-width:0; stroke-opacity:1; 
stroke-linecap:round; stroke-linejoin:round;">
<circle cx="37637.7" cy="26163.1" r="255.906" /> 
</g>
<g style="fill:#FFFFFF; fill-opacity:1.0; 
stroke:#FFFFFF; stroke-width:39.3701; stroke-opacity:1; 
stroke-linecap:round; stroke-linejoin:round;">
</g>
<g style="fill:#FFFFFF; fill-opacity:1.0; 
stroke:#FFFFFF; stroke-width:0; stroke-opacity:1; 
stroke-linecap:round; stroke-linejoin:round;">
<circle cx="39137.7" cy="3663.06" r="196.85" /> 
</g>
<g style="fill:#FFFFFF; fill-opacity:1.0; 
stroke:#FFFFFF; stroke-width:39.3701; stroke-opacity:1; 
stroke-linecap:round; stroke-linejoin:round;">
</g>
<g style="fill:#FFFFFF; fill-opacity:1.0; 
stroke:#FFFFFF; stroke-width:0; stroke-opacity:1; 
stroke-linecap:round; stroke-linejoin:round;">
<circle cx="40137.7" cy="3663.06" r="196.85" /> 
</g>
<g style="fill:#FFFFFF; fill-opacity:1.0; 
stroke:#FFFFFF; stroke-width:39.3701; stroke-opacity:1; 
stroke-linecap:round; stroke-linejoin:round;">
</g>
<g style="fill:#FFFFFF; fill-opacity:1.0; 
stroke:#FFFFFF; stroke-width:0; stroke-opacity:1; 
stroke-linecap:round; stroke-linejoin:round;">
<circle cx="14237.7" cy="24863.1" r="196.85" /> 
</g>
<g style="fill:#FFFFFF; fill-opacity:1.0; 
stroke:#FFFFFF; stroke-width:39.3701; stroke-opacity:1; 
stroke-linecap:round; stroke-linejoin:round;">
</g>
<g style="fill:#FFFFFF; fill-opacity:1.0; 
stroke:#FFFFFF; stroke-width:0; stroke-opacity:1; 
stroke-linecap:round; stroke-linejoin:round;">
<circle cx="14237.7" cy="23863.1" r="196.85" /> 
</g>
<g style="fill:#FFFFFF; fill-opacity:1.0; 
stroke:#FFFFFF; stroke-width:39.3701; stroke-opacity:1; 
stroke-linecap:round; stroke-linejoin:round;">
</g>
<g style="fill:#FFFFFF; fill-opacity:1.0; 
stroke:#FFFFFF; stroke-width:0; stroke-opacity:1; 
stroke-linecap:round; stroke-linejoin:round;">
<circle cx="14237.7" cy="22363.1" r="196.85" /> 
</g>
<g style="fill:#FFFFFF; fill-opacity:1.0; 
stroke:#FFFFFF; stroke-width:39.3701; stroke-opacity:1; 
stroke-linecap:round; stroke-linejoin:round;">
</g>
<g style="fill:#FFFFFF; fill-opacity:1.0; 
stroke:#FFFFFF; stroke-width:0; stroke-opacity:1; 
stroke-linecap:round; stroke-linejoin:round;">
<circle cx="14237.7" cy="21363.1" r="196.85" /> 
</g>
<g style="fill:#FFFFFF; fill-opacity:1.0; 
stroke:#FFFFFF; stroke-width:39.3701; stroke-opacity:1; 
stroke-linecap:round; stroke-linejoin:round;">
</g>
<g style="fill:#FFFFFF; fill-opacity:1.0; 
stroke:#FFFFFF; stroke-width:0; stroke-opacity:1; 
stroke-linecap:round; stroke-linejoin:round;">
<circle cx="13737.7" cy="16963.1" r="196.85" /> 
</g>
<g style="fill:#FFFFFF; fill-opacity:1.0; 
stroke:#FFFFFF; stroke-width:39.3701; stroke-opacity:1; 
stroke-linecap:round; stroke-linejoin:round;">
</g>
<g style="fill:#FFFFFF; fill-opacity:1.0; 
stroke:#FFFFFF; stroke-width:0; stroke-opacity:1; 
stroke-linecap:round; stroke-linejoin:round;">
<circle cx="14737.7" cy="16963.1" r="196.85" /> 
</g>
<g style="fill:#FFFFFF; fill-opacity:1.0; 
stroke:#FFFFFF; stroke-width:39.3701; stroke-opacity:1; 
stroke-linecap:round; stroke-linejoin:round;">
</g>
<g style="fill:#FFFFFF; fill-opacity:1.0; 
stroke:#FFFFFF; stroke-width:0; stroke-opacity:1; 
stroke-linecap:round; stroke-linejoin:round;">
<circle cx="34737.7" cy="3963.06" r="629.921" /> 
</g>
<g style="fill:#FFFFFF; fill-opacity:1.0; 
stroke:#FFFFFF; stroke-width:39.3701; stroke-opacity:1; 
stroke-linecap:round; stroke-linejoin:round;">
</g>
<g style="fill:#FFFFFF; fill-opacity:1.0; 
stroke:#FFFFFF; stroke-width:0; stroke-opacity:1; 
stroke-linecap:round; stroke-linejoin:round;">
<circle cx="43237.7" cy="3963.06" r="629.921" /> 
</g>
<g style="fill:#FFFFFF; fill-opacity:1.0; 
stroke:#FFFFFF; stroke-width:39.3701; stroke-opacity:1; 
stroke-linecap:round; stroke-linejoin:round;">
</g>
<g style="fill:#FFFFFF; fill-opacity:1.0; 
stroke:#FFFFFF; stroke-width:0; stroke-opacity:1; 
stroke-linecap:round; stroke-linejoin:round;">
<circle cx="43237.7" cy="26963.1" r="629.921" /> 
</g>
<g style="fill:#FFFFFF; fill-opacity:1.0; 
stroke:#FFFFFF; stroke-width:39.3701; stroke-opacity:1; 
stroke-linecap:round; stroke-linejoin:round;">
</g>
<g style="fill:#FFFFFF; fill-opacity:1.0; 
stroke:#FFFFFF; stroke-width:0; stroke-opacity:1; 
stroke-linecap:round; stroke-linejoin:round;">
<circle cx="34737.7" cy="26963.1" r="629.921" /> 
</g>
<g style="fill:#FFFFFF; fill-opacity:1.0; 
stroke:#FFFFFF; stroke-width:39.3701; stroke-opacity:1; 
stroke-linecap:round; stroke-linejoin:round;">
</g>
<g style="fill:#000000; fill-opacity:1.0; 
stroke:#000000; stroke-width:39.3701; stroke-opacity:1; 
stroke-linecap:round; stroke-linejoin:round;">
</g>
<g style="fill:#000000; fill-opacity:0.0; 
stroke:#000000; stroke-width:39.3701; stroke-opacity:1; 
stroke-linecap:round; stroke-linejoin:round;">
<polyline fill="none;"
points="13921,2677
13920,2677
13916,2678
13912,2679
13911,2680
13910,2680
13907,2682
13903,2684
13902,2685
13901,2686
6460,10127
6460,10128
6459,10129
6457,10132
6454,10135
6454,10136
6454,10137
6453,10141
6452,10145
6452,10146
6452,10148
6452,20738
6452,20739
6452,20741
6453,20744
6454,20748
6454,20749
6455,20751
6457,20754
6459,20757
6460,20758
6460,20759
13941,28200
13942,28201
13943,28202
13946,28204
13949,28206
13950,28206
13951,28207
13955,28208
13959,28209
13960,28208
13961,28209
24552,28248
24553,28248
24555,28248
24558,28247
24562,28246
24563,28246
24565,28245
24568,28243
24571,28241
24572,28240
24573,28239
32014,20798
32015,20797
32016,20796
32018,20793
32020,20790
32020,20789
32021,20788
32021,20784
32022,20780
32022,20779
32023,20777
31983,10108
31983,10107
31983,10106
31982,10102
31981,10098
31981,10097
31980,10096
31978,10093
31976,10089
31975,10088
31975,10087
24573,2686
24572,2685
24571,2684
24568,2682
24565,2680
24563,2680
24562,2679
24558,2678
24555,2677
24553,2677
24552,2677
13922,2677
13921,2677
" /> 
<polyline fill="none;"
points="24540,2736
31924,10121
31963,20765
24540,28189
13974,28150
6511,20726
6511,10160
13934,2736
24540,2736
" /> 
<polyline fill="none;"
points="30144,20069
30332,20227
30564,20311
30810,20311
31042,20227
31231,20069
31354,19855
31397,19613
31354,19370
31231,19156
31042,18998
30810,18914
30564,18914
30332,18998
30144,19156
30020,19370
29978,19613
30020,19855
30144,20069
" /> 
<polyline fill="none;"
points="30189,19194
30362,19049
30574,18972
30800,18972
31012,19049
31186,19194
31298,19390
31338,19613
31298,19835
31186,20031
31012,20176
30800,20253
30574,20253
30362,20176
30189,20031
30076,19835
30037,19613
30076,19390
30189,19194
" /> 
<polyline fill="none;"
points="7144,20069
7332,20227
7564,20311
7810,20311
8042,20227
8231,20069
8354,19855
8397,19613
8354,19370
8231,19156
8042,18998
7810,18914
7564,18914
7332,18998
7144,19156
7020,19370
6978,19613
7020,19855
7144,20069
" /> 
<polyline fill="none;"
points="7189,19194
7362,19049
7574,18972
7800,18972
8012,19049
8186,19194
8298,19390
8338,19613
8298,19835
8186,20031
8012,20176
7800,20253
7574,20253
7362,20176
7189,20031
7076,19835
7037,19613
7076,19390
7189,19194
" /> 
<polyline fill="none;"
points="7144,11569
7332,11727
7564,11811
7810,11811
8042,11727
8231,11569
8354,11355
8397,11113
8354,10870
8231,10656
8042,10498
7810,10414
7564,10414
7332,10498
7144,10656
7020,10870
6978,11113
7020,11355
7144,11569
" /> 
<polyline fill="none;"
points="7189,10694
7362,10549
7574,10472
7800,10472
8012,10549
8186,10694
8298,10890
8338,11113
8298,11335
8186,11531
8012,11676
7800,11753
7574,11753
7362,11676
7189,11531
7076,11335
7037,11113
7076,10890
7189,10694
" /> 
<polyline fill="none;"
points="30149,11564
30336,11721
30565,11804
30809,11804
31038,11721
31225,11564
31347,11353
31389,11113
31347,10872
31225,10661
31038,10504
30809,10421
30565,10421
30336,10504
30149,10661
30027,10872
29985,11113
30027,11353
30149,11564
" /> 
<polyline fill="none;"
points="30194,10699
30366,10556
30575,10479
30799,10479
31009,10556
31180,10699
31292,10893
31330,11113
31292,11333
31180,11526
31009,11670
30799,11746
30575,11746
30366,11670
30194,11526
30083,11333
30044,11113
30083,10893
30194,10699
" /> 
<polyline fill="none;"
points="33835,2733
33832,2733
33830,2734
33827,2735
33825,2736
33822,2737
33820,2739
33818,2740
33817,2742
33815,2744
33813,2746
33812,2748
33811,2750
33809,2752
33809,2755
33808,2757
33808,2760
33808,2763
33808,28063
33808,28065
33808,28068
33809,28070
33809,28073
33811,28075
33812,28077
33813,28079
33815,28082
33817,28083
33818,28085
33820,28086
33822,28088
33825,28089
33827,28090
33830,28091
33832,28092
33835,28092
33837,28092
44137,28092
44140,28092
44142,28092
44145,28091
44147,28090
44149,28089
44152,28088
44154,28086
44156,28085
44158,28083
44160,28082
44161,28079
44163,28077
44164,28075
44165,28073
44165,28070
44166,28068
44166,28065
44167,28063
44167,2763
44166,2760
44166,2757
44165,2755
44165,2752
44164,2750
44163,2748
44161,2746
44160,2744
44158,2742
44156,2740
44154,2739
44152,2737
44149,2736
44147,2735
44145,2734
44142,2733
44140,2733
44137,2733
33837,2733
33835,2733
" /> 
<polyline fill="none;"
points="44108,2792
44108,28033
33867,28033
33867,2792
44108,2792
" /> 
<polyline fill="none;"
points="42699,27414
42886,27571
43115,27654
43359,27654
43588,27571
43775,27414
43897,27203
43939,26963
43897,26722
43775,26511
43588,26354
43359,26271
43115,26271
42886,26354
42699,26511
42577,26722
42535,26963
42577,27203
42699,27414
" /> 
<polyline fill="none;"
points="42744,26549
42916,26406
43125,26329
43349,26329
43559,26406
43730,26549
43842,26743
43880,26963
43842,27183
43730,27376
43559,27520
43349,27596
43125,27596
42916,27520
42744,27376
42633,27183
42594,26963
42633,26743
42744,26549
" /> 
<polyline fill="none;"
points="34199,27414
34386,27571
34615,27654
34859,27654
35088,27571
35275,27414
35397,27203
35439,26963
35397,26722
35275,26511
35088,26354
34859,26271
34615,26271
34386,26354
34199,26511
34077,26722
34035,26963
34077,27203
34199,27414
" /> 
<polyline fill="none;"
points="34244,26549
34416,26406
34625,26329
34849,26329
35059,26406
35230,26549
35342,26743
35380,26963
35342,27183
35230,27376
35059,27520
34849,27596
34625,27596
34416,27520
34244,27376
34133,27183
34094,26963
34133,26743
34244,26549
" /> 
<polyline fill="none;"
points="42694,4419
42882,4577
43114,4661
43360,4661
43592,4577
43781,4419
43904,4205
43947,3963
43904,3720
43781,3506
43592,3348
43360,3264
43114,3264
42882,3348
42694,3506
42570,3720
42528,3963
42570,4205
42694,4419
" /> 
<polyline fill="none;"
points="42739,3544
42912,3399
43124,3322
43350,3322
43562,3399
43736,3544
43848,3740
43888,3963
43848,4185
43736,4381
43562,4526
43350,4603
43124,4603
42912,4526
42739,4381
42626,4185
42587,3963
42626,3740
42739,3544
" /> 
<polyline fill="none;"
points="34199,4414
34386,4571
34615,4654
34859,4654
35088,4571
35275,4414
35397,4203
35439,3963
35397,3722
35275,3511
35088,3354
34859,3271
34615,3271
34386,3354
34199,3511
34077,3722
34035,3963
34077,4203
34199,4414
" /> 
<polyline fill="none;"
points="34244,3549
34416,3406
34625,3329
34849,3329
35059,3406
35230,3549
35342,3743
35380,3963
35342,4183
35230,4376
35059,4520
34849,4596
34625,4596
34416,4520
34244,4376
34133,4183
34094,3963
34133,3743
34244,3549
" /> 
</g> 
</svg>
