<?xml version="1.0" standalone="no"?>
 <!DOCTYPE svg PUBLIC "-//W3C//DTD SVG 1.1//EN" 
 "http://www.w3.org/Graphics/SVG/1.1/DTD/svg11.dtd"> 
<svg xmlns="http://www.w3.org/2000/svg" version="1.1" 
    width="12.5705cm" height="8.03656cm" viewBox="0 0 49490 31640 ">
<title>SVG Picture created as relays-brd.svg date 2018/07/08 13:06:21 </title>
  <desc>Picture generated by PCBNEW </desc>
<g style="fill:#000000; fill-opacity:1;stroke:#000000; stroke-opacity:1;
stroke-linecap:round; stroke-linejoin:round; "
 transform="translate(0 0) scale(1 1)">
</g>
<g style="fill:#000000; fill-opacity:0.0; 
stroke:#000000; stroke-width:-0.000393701; stroke-opacity:1; 
stroke-linecap:round; stroke-linejoin:round;">
</g>
<g style="fill:#000000; fill-opacity:0.0; 
stroke:#000000; stroke-width:78.7402; stroke-opacity:1; 
stroke-linecap:round; stroke-linejoin:round;">
<path d="M18689 13393
L18708 13438
L18727 13453
L18764 13468
L18820 13468
L18858 13453
L18877 13438
L18895 13408
L18895 13288
L18502 13288
L18502 13393
L18520 13423
L18539 13438
L18577 13453
L18614 13453
L18652 13438
L18670 13423
L18689 13393
L18689 13288
" />
<path d="M18895 13648
L18877 13618
L18839 13603
L18502 13603
" />
<path d="M18895 13767
L18633 13767
" />
<path d="M18502 13767
L18520 13752
L18539 13767
L18520 13782
L18502 13767
L18539 13767
" />
<path d="M18633 13917
L18895 13917
" />
<path d="M18670 13917
L18652 13932
L18633 13962
L18633 14007
L18652 14037
L18689 14052
L18895 14052
" />
<path d="M18895 14337
L18502 14337
" />
<path d="M18877 14337
L18895 14307
L18895 14247
L18877 14217
L18858 14202
L18820 14187
L18708 14187
L18670 14202
L18652 14217
L18633 14247
L18633 14307
L18652 14337
" />
<path d="M18877 14472
L18895 14502
L18895 14562
L18877 14592
L18839 14607
L18820 14607
L18783 14592
L18764 14562
L18764 14517
L18745 14487
L18708 14472
L18689 14472
L18652 14487
L18633 14517
L18633 14562
L18652 14592
" />
<path d="M18858 15162
L18877 15147
L18895 15102
L18895 15072
L18877 15027
L18839 14997
L18802 14982
L18727 14967
L18670 14967
L18595 14982
L18558 14997
L18520 15027
L18502 15072
L18502 15102
L18520 15147
L18539 15162
" />
<path d="M18895 15342
L18877 15312
L18858 15297
L18820 15282
L18708 15282
L18670 15297
L18652 15312
L18633 15342
L18633 15387
L18652 15417
L18670 15432
L18708 15447
L18820 15447
L18858 15432
L18877 15417
L18895 15387
L18895 15342
" />
<path d="M18633 15582
L18895 15582
" />
<path d="M18670 15582
L18652 15597
L18633 15627
L18633 15672
L18652 15702
L18689 15717
L18895 15717
" />
<path d="M18633 15822
L18633 15942
" />
<path d="M18502 15867
L18839 15867
L18877 15882
L18895 15912
L18895 15942
" />
<path d="M18895 16047
L18633 16047
" />
<path d="M18708 16047
L18670 16062
L18652 16077
L18633 16107
L18633 16137
" />
<path d="M18895 16287
L18877 16257
L18858 16242
L18820 16227
L18708 16227
L18670 16242
L18652 16257
L18633 16287
L18633 16332
L18652 16362
L18670 16377
L18708 16392
L18820 16392
L18858 16377
L18877 16362
L18895 16332
L18895 16287
" />
<path d="M18895 16572
L18877 16542
L18839 16527
L18502 16527
" />
<path d="M18895 16737
L18877 16707
L18839 16692
L18502 16692
" />
<path d="M18877 16977
L18895 16947
L18895 16887
L18877 16857
L18839 16842
L18689 16842
L18652 16857
L18633 16887
L18633 16947
L18652 16977
L18689 16992
L18727 16992
L18764 16842
" />
<path d="M18895 17127
L18633 17127
" />
<path d="M18708 17127
L18670 17142
L18652 17157
L18633 17187
L18633 17217
" />
<path d="M19208 13273
L19190 13288
L19171 13318
L19171 13393
L19190 13423
L19208 13438
L19246 13453
L19283 13453
L19340 13438
L19565 13258
L19565 13453
" />
<path d="M19171 13648
L19171 13678
L19190 13707
L19208 13722
L19246 13737
L19321 13752
L19415 13752
L19490 13737
L19527 13722
L19546 13707
L19565 13678
L19565 13648
L19546 13618
L19527 13603
L19490 13588
L19415 13573
L19321 13573
L19246 13588
L19208 13603
L19190 13618
L19171 13648
" />
<path d="M19565 14052
L19565 13872
" />
<path d="M19565 13962
L19171 13962
L19227 13932
L19265 13902
L19283 13872
" />
<path d="M19340 14232
L19321 14202
L19302 14187
L19265 14172
L19246 14172
L19208 14187
L19190 14202
L19171 14232
L19171 14292
L19190 14322
L19208 14337
L19246 14352
L19265 14352
L19302 14337
L19321 14322
L19340 14292
L19340 14232
L19358 14202
L19377 14187
L19415 14172
L19490 14172
L19527 14187
L19546 14202
L19565 14232
L19565 14292
L19546 14322
L19527 14337
L19490 14352
L19415 14352
L19377 14337
L19358 14322
L19340 14292
" />
<path d="M19415 14487
L19415 14727
" />
<path d="M19171 14937
L19171 14967
L19190 14997
L19208 15012
L19246 15027
L19321 15042
L19415 15042
L19490 15027
L19527 15012
L19546 14997
L19565 14967
L19565 14937
L19546 14907
L19527 14892
L19490 14877
L19415 14862
L19321 14862
L19246 14877
L19208 14892
L19190 14907
L19171 14937
" />
<path d="M19171 15147
L19171 15357
L19565 15222
" />
<path d="M19415 15477
L19415 15717
" />
<path d="M19171 15927
L19171 15957
L19190 15987
L19208 16002
L19246 16017
L19321 16032
L19415 16032
L19490 16017
L19527 16002
L19546 15987
L19565 15957
L19565 15927
L19546 15897
L19527 15882
L19490 15867
L19415 15852
L19321 15852
L19246 15867
L19208 15882
L19190 15897
L19171 15927
" />
<path d="M19340 16212
L19321 16182
L19302 16167
L19265 16152
L19246 16152
L19208 16167
L19190 16182
L19171 16212
L19171 16272
L19190 16302
L19208 16317
L19246 16332
L19265 16332
L19302 16317
L19321 16302
L19340 16272
L19340 16212
L19358 16182
L19377 16167
L19415 16152
L19490 16152
L19527 16167
L19546 16182
L19565 16212
L19565 16272
L19546 16302
L19527 16317
L19490 16332
L19415 16332
L19377 16317
L19358 16302
L19340 16272
" />
<path d="M19565 16887
L19377 16782
" />
<path d="M19565 16707
L19171 16707
L19171 16827
L19190 16857
L19208 16872
L19246 16887
L19302 16887
L19340 16872
L19358 16857
L19377 16827
L19377 16707
" />
<path d="M19546 17142
L19565 17112
L19565 17052
L19546 17022
L19508 17007
L19358 17007
L19321 17022
L19302 17052
L19302 17112
L19321 17142
L19358 17157
L19396 17157
L19433 17007
" />
<path d="M19302 17262
L19565 17337
L19302 17412
" />
<path d="M19208 17757
L19190 17772
L19171 17802
L19171 17877
L19190 17907
L19208 17922
L19246 17937
L19283 17937
L19340 17922
L19565 17742
L19565 17937
" />
</g>
<g style="fill:#000000; fill-opacity:0.0; 
stroke:#000000; stroke-width:118.11; stroke-opacity:1; 
stroke-linecap:round; stroke-linejoin:round;">
<path d="M37341 18586
L37313 18614
L37285 18698
L37285 18755
L37313 18839
L37369 18895
L37425 18923
L37538 18952
L37622 18952
L37735 18923
L37791 18895
L37847 18839
L37875 18755
L37875 18698
L37847 18614
L37819 18586
" />
<path d="M37875 18417
L37875 18080
" />
<path d="M37285 18248
L37875 18248
" />
<path d="M37313 17911
L37285 17827
L37285 17686
L37313 17630
L37341 17602
L37397 17574
L37453 17574
L37510 17602
L37538 17630
L37566 17686
L37594 17799
L37622 17855
L37650 17883
L37707 17911
L37763 17911
L37819 17883
L37847 17855
L37875 17799
L37875 17658
L37847 17574
" />
<path d="M38285 18922
L38875 18922
L38875 18781
L38847 18697
L38791 18641
L38735 18613
L38622 18584
L38538 18584
L38425 18613
L38369 18641
L38313 18697
L38285 18781
L38285 18922
" />
<path d="M38875 18416
L38875 18078
" />
<path d="M38285 18247
L38875 18247
" />
<path d="M38285 17544
L38566 17741
" />
<path d="M38285 17881
L38875 17881
L38875 17656
L38847 17600
L38819 17572
L38763 17544
L38678 17544
L38622 17572
L38594 17600
L38566 17656
L38566 17881
" />
</g>
<g style="fill:#000000; fill-opacity:0.0; 
stroke:#000000; stroke-width:98.4252; stroke-opacity:1; 
stroke-linecap:round; stroke-linejoin:round;">
<path d="M37477 16097
L37346 16491
L37214 16097
" />
<path d="M36858 16453
L36877 16472
L36933 16491
L36971 16491
L37027 16472
L37064 16434
L37083 16397
L37102 16322
L37102 16266
L37083 16191
L37064 16153
L37027 16116
L36971 16097
L36933 16097
L36877 16116
L36858 16134
" />
<path d="M36464 16453
L36483 16472
L36539 16491
L36577 16491
L36633 16472
L36671 16434
L36689 16397
L36708 16322
L36708 16266
L36689 16191
L36671 16153
L36633 16116
L36577 16097
L36539 16097
L36483 16116
L36464 16134
" />
<path d="M34102 16116
L34139 16097
L34196 16097
L34252 16116
L34289 16153
L34308 16191
L34327 16266
L34327 16322
L34308 16397
L34289 16434
L34252 16472
L34196 16491
L34158 16491
L34102 16472
L34083 16453
L34083 16322
L34158 16322
" />
<path d="M33914 16491
L33914 16097
L33689 16491
L33689 16097
" />
<path d="M33502 16491
L33502 16097
L33408 16097
L33352 16116
L33314 16153
L33296 16191
L33277 16266
L33277 16322
L33296 16397
L33314 16434
L33352 16472
L33408 16491
L33502 16491
" />
<path d="M36333 24041
L36464 23853
" />
<path d="M36558 24041
L36558 23647
L36408 23647
L36371 23666
L36352 23684
L36333 23722
L36333 23778
L36352 23816
L36371 23834
L36408 23853
L36558 23853
" />
<path d="M36202 24041
L35996 23778
" />
<path d="M36202 23778
L35996 24041
" />
<path d="M36614 24647
L36389 24647
" />
<path d="M36502 25041
L36502 24647
" />
<path d="M36296 25041
L36089 24778
" />
<path d="M36296 24778
L36089 25041
" />
</g>
<g style="fill:#000000; fill-opacity:0.0; 
stroke:#000000; stroke-width:118.11; stroke-opacity:1; 
stroke-linecap:round; stroke-linejoin:round;">
<path d="M37792 22226
L37837 22204
L37904 22204
L37972 22226
L38017 22271
L38039 22316
L38062 22406
L38062 22474
L38039 22564
L38017 22609
L37972 22654
L37904 22676
L37859 22676
L37792 22654
L37769 22631
L37769 22474
L37859 22474
" />
<path d="M37567 22676
L37567 22204
L37387 22204
L37342 22226
L37319 22249
L37297 22294
L37297 22361
L37319 22406
L37342 22429
L37387 22451
L37567 22451
" />
<path d="M37094 22676
L37094 22204
" />
<path d="M36780 22204
L36690 22204
L36645 22226
L36600 22271
L36577 22361
L36577 22519
L36600 22609
L36645 22654
L36690 22676
L36780 22676
L36825 22654
L36870 22609
L36892 22519
L36892 22361
L36870 22271
L36825 22226
L36780 22204
" />
<path d="M36150 22204
L36375 22204
L36397 22429
L36375 22406
L36330 22384
L36217 22384
L36172 22406
L36150 22429
L36127 22474
L36127 22586
L36150 22631
L36172 22654
L36217 22676
L36330 22676
L36375 22654
L36397 22631
" />
<path d="M37792 21226
L37837 21204
L37904 21204
L37972 21226
L38017 21271
L38039 21316
L38062 21406
L38062 21474
L38039 21564
L38017 21609
L37972 21654
L37904 21676
L37859 21676
L37792 21654
L37769 21631
L37769 21474
L37859 21474
" />
<path d="M37567 21676
L37567 21204
L37387 21204
L37342 21226
L37319 21249
L37297 21294
L37297 21361
L37319 21406
L37342 21429
L37387 21451
L37567 21451
" />
<path d="M37094 21676
L37094 21204
" />
<path d="M36780 21204
L36690 21204
L36645 21226
L36600 21271
L36577 21361
L36577 21519
L36600 21609
L36645 21654
L36690 21676
L36780 21676
L36825 21654
L36870 21609
L36892 21519
L36892 21361
L36870 21271
L36825 21226
L36780 21204
" />
<path d="M36172 21361
L36172 21676
" />
<path d="M36285 21181
L36397 21519
L36105 21519
" />
</g>
<g style="fill:#000000; fill-opacity:0.0; 
stroke:#000000; stroke-width:0; stroke-opacity:1; 
stroke-linecap:round; stroke-linejoin:round;">
</g>
<g style="fill:#000000; fill-opacity:1.0; 
stroke:#000000; stroke-width:0; stroke-opacity:1; 
stroke-linecap:round; stroke-linejoin:round;">
<polyline style="fill-rule:evenodd;"
points="37217,20197
37217,19528
37886,19528
37886,20197
37217,20197
" /> 
<polyline style="fill-rule:evenodd;"
points="38217,20197
38217,19528
38886,19528
38886,20197
38217,20197
" /> 
<circle cx="27052.3" cy="7063.06" r="393.701" /> 
</g>
<g style="fill:#000000; fill-opacity:1.0; 
stroke:#000000; stroke-width:39.3701; stroke-opacity:1; 
stroke-linecap:round; stroke-linejoin:round;">
</g>
<g style="fill:#000000; fill-opacity:1.0; 
stroke:#000000; stroke-width:0; stroke-opacity:1; 
stroke-linecap:round; stroke-linejoin:round;">
<circle cx="31052.3" cy="7063.06" r="393.701" /> 
</g>
<g style="fill:#000000; fill-opacity:1.0; 
stroke:#000000; stroke-width:39.3701; stroke-opacity:1; 
stroke-linecap:round; stroke-linejoin:round;">
</g>
<g style="fill:#000000; fill-opacity:1.0; 
stroke:#000000; stroke-width:0; stroke-opacity:1; 
stroke-linecap:round; stroke-linejoin:round;">
<circle cx="34052.3" cy="7063.06" r="393.701" /> 
</g>
<g style="fill:#000000; fill-opacity:1.0; 
stroke:#000000; stroke-width:39.3701; stroke-opacity:1; 
stroke-linecap:round; stroke-linejoin:round;">
</g>
<g style="fill:#000000; fill-opacity:1.0; 
stroke:#000000; stroke-width:0; stroke-opacity:1; 
stroke-linecap:round; stroke-linejoin:round;">
<circle cx="34052.3" cy="4063.06" r="393.701" /> 
</g>
<g style="fill:#000000; fill-opacity:1.0; 
stroke:#000000; stroke-width:39.3701; stroke-opacity:1; 
stroke-linecap:round; stroke-linejoin:round;">
</g>
<g style="fill:#000000; fill-opacity:1.0; 
stroke:#000000; stroke-width:0; stroke-opacity:1; 
stroke-linecap:round; stroke-linejoin:round;">
<circle cx="27052.3" cy="4063.06" r="393.701" /> 
</g>
<g style="fill:#000000; fill-opacity:1.0; 
stroke:#000000; stroke-width:39.3701; stroke-opacity:1; 
stroke-linecap:round; stroke-linejoin:round;">
</g>
<g style="fill:#000000; fill-opacity:1.0; 
stroke:#000000; stroke-width:0; stroke-opacity:1; 
stroke-linecap:round; stroke-linejoin:round;">
<circle cx="27052.3" cy="13063.1" r="393.701" /> 
</g>
<g style="fill:#000000; fill-opacity:1.0; 
stroke:#000000; stroke-width:39.3701; stroke-opacity:1; 
stroke-linecap:round; stroke-linejoin:round;">
</g>
<g style="fill:#000000; fill-opacity:1.0; 
stroke:#000000; stroke-width:0; stroke-opacity:1; 
stroke-linecap:round; stroke-linejoin:round;">
<circle cx="31052.3" cy="13063.1" r="393.701" /> 
</g>
<g style="fill:#000000; fill-opacity:1.0; 
stroke:#000000; stroke-width:39.3701; stroke-opacity:1; 
stroke-linecap:round; stroke-linejoin:round;">
</g>
<g style="fill:#000000; fill-opacity:1.0; 
stroke:#000000; stroke-width:0; stroke-opacity:1; 
stroke-linecap:round; stroke-linejoin:round;">
<circle cx="34052.3" cy="13063.1" r="393.701" /> 
</g>
<g style="fill:#000000; fill-opacity:1.0; 
stroke:#000000; stroke-width:39.3701; stroke-opacity:1; 
stroke-linecap:round; stroke-linejoin:round;">
</g>
<g style="fill:#000000; fill-opacity:1.0; 
stroke:#000000; stroke-width:0; stroke-opacity:1; 
stroke-linecap:round; stroke-linejoin:round;">
<circle cx="34052.3" cy="10063.1" r="393.701" /> 
</g>
<g style="fill:#000000; fill-opacity:1.0; 
stroke:#000000; stroke-width:39.3701; stroke-opacity:1; 
stroke-linecap:round; stroke-linejoin:round;">
</g>
<g style="fill:#000000; fill-opacity:1.0; 
stroke:#000000; stroke-width:0; stroke-opacity:1; 
stroke-linecap:round; stroke-linejoin:round;">
<circle cx="27052.3" cy="10063.1" r="393.701" /> 
</g>
<g style="fill:#000000; fill-opacity:1.0; 
stroke:#000000; stroke-width:39.3701; stroke-opacity:1; 
stroke-linecap:round; stroke-linejoin:round;">
</g>
<g style="fill:#000000; fill-opacity:1.0; 
stroke:#000000; stroke-width:0; stroke-opacity:1; 
stroke-linecap:round; stroke-linejoin:round;">
<polyline style="fill-rule:evenodd;"
points="26272,24441
26272,24008
27257,24008
27257,24441
26272,24441
" /> 
<polyline style="fill-rule:evenodd;"
points="26272,23654
26272,23221
27257,23221
27257,23654
26272,23654
" /> 
<polyline style="fill-rule:evenodd;"
points="26272,22866
26272,22433
27257,22433
27257,22866
26272,22866
" /> 
<polyline style="fill-rule:evenodd;"
points="26272,22079
26272,21646
27257,21646
27257,22079
26272,22079
" /> 
<polyline style="fill-rule:evenodd;"
points="26272,21292
26272,20859
27257,20859
27257,21292
26272,21292
" /> 
<polyline style="fill-rule:evenodd;"
points="26272,20504
26272,20071
27257,20071
27257,20504
26272,20504
" /> 
<polyline style="fill-rule:evenodd;"
points="26272,19717
26272,19284
27257,19284
27257,19717
26272,19717
" /> 
<polyline style="fill-rule:evenodd;"
points="26272,18929
26272,18496
27257,18496
27257,18929
26272,18929
" /> 
<polyline style="fill-rule:evenodd;"
points="32335,18929
32335,18496
33320,18496
33320,18929
32335,18929
" /> 
<polyline style="fill-rule:evenodd;"
points="32335,19717
32335,19284
33320,19284
33320,19717
32335,19717
" /> 
<polyline style="fill-rule:evenodd;"
points="32335,20504
32335,20071
33320,20071
33320,20504
32335,20504
" /> 
<polyline style="fill-rule:evenodd;"
points="32335,21292
32335,20859
33320,20859
33320,21292
32335,21292
" /> 
<polyline style="fill-rule:evenodd;"
points="32335,22079
32335,21646
33320,21646
33320,22079
32335,22079
" /> 
<polyline style="fill-rule:evenodd;"
points="32335,22866
32335,22433
33320,22433
33320,22866
32335,22866
" /> 
<polyline style="fill-rule:evenodd;"
points="32335,23654
32335,23221
33320,23221
33320,23654
32335,23654
" /> 
<polyline style="fill-rule:evenodd;"
points="32335,24441
32335,24008
33320,24008
33320,24441
32335,24441
" /> 
<polyline style="fill-rule:evenodd;"
points="27607,17552
28040,17552
28040,18536
27607,18536
27607,17552
" /> 
<polyline style="fill-rule:evenodd;"
points="28394,17552
28827,17552
28827,18536
28394,18536
28394,17552
" /> 
<polyline style="fill-rule:evenodd;"
points="29182,17552
29615,17552
29615,18536
29182,18536
29182,17552
" /> 
<polyline style="fill-rule:evenodd;"
points="29969,17552
30402,17552
30402,18536
29969,18536
29969,17552
" /> 
<polyline style="fill-rule:evenodd;"
points="30757,17552
31190,17552
31190,18536
30757,18536
30757,17552
" /> 
<polyline style="fill-rule:evenodd;"
points="31544,17552
31977,17552
31977,18536
31544,18536
31544,17552
" /> 
<polyline style="fill-rule:evenodd;"
points="13741,21674
13741,23052
12363,23052
12363,21674
13741,21674
" /> 
<circle cx="8327.93" cy="22363.1" r="688.976" /> 
</g>
<g style="fill:#000000; fill-opacity:1.0; 
stroke:#000000; stroke-width:39.3701; stroke-opacity:1; 
stroke-linecap:round; stroke-linejoin:round;">
</g>
<g style="fill:#000000; fill-opacity:1.0; 
stroke:#000000; stroke-width:0; stroke-opacity:1; 
stroke-linecap:round; stroke-linejoin:round;">
<circle cx="8327.93" cy="7008.73" r="590.551" /> 
</g>
<g style="fill:#000000; fill-opacity:1.0; 
stroke:#000000; stroke-width:39.3701; stroke-opacity:1; 
stroke-linecap:round; stroke-linejoin:round;">
</g>
<g style="fill:#000000; fill-opacity:1.0; 
stroke:#000000; stroke-width:0; stroke-opacity:1; 
stroke-linecap:round; stroke-linejoin:round;">
<circle cx="11083.8" cy="7008.73" r="590.551" /> 
</g>
<g style="fill:#000000; fill-opacity:1.0; 
stroke:#000000; stroke-width:39.3701; stroke-opacity:1; 
stroke-linecap:round; stroke-linejoin:round;">
</g>
<g style="fill:#000000; fill-opacity:1.0; 
stroke:#000000; stroke-width:0; stroke-opacity:1; 
stroke-linecap:round; stroke-linejoin:round;">
<polyline style="fill-rule:evenodd;"
points="25227,9563
24777,9563
24777,9363
25227,9363
25227,9563
" /> 
<polyline style="fill-rule:evenodd;"
points="25227,8563
24777,8563
24777,8363
25227,8363
25227,8563
" /> 
<polyline style="fill-rule:evenodd;"
points="25227,8063
24777,8063
24777,7863
25227,7863
25227,8063
" /> 
<polyline style="fill-rule:evenodd;"
points="22727,8063
22277,8063
22277,7863
22727,7863
22727,8063
" /> 
<polyline style="fill-rule:evenodd;"
points="22727,8563
22277,8563
22277,8363
22727,8363
22727,8563
" /> 
<polyline style="fill-rule:evenodd;"
points="22727,9063
22277,9063
22277,8863
22727,8863
22727,9063
" /> 
<polyline style="fill-rule:evenodd;"
points="22727,9563
22277,9563
22277,9363
22727,9363
22727,9563
" /> 
<polyline style="fill-rule:evenodd;"
points="22727,10063
22277,10063
22277,9863
22727,9863
22727,10063
" /> 
<polyline style="fill-rule:evenodd;"
points="25227,9063
24777,9063
24777,8863
25227,8863
25227,9063
" /> 
<polyline style="fill-rule:evenodd;"
points="25227,10063
24777,10063
24777,9863
25227,9863
25227,10063
" /> 
<polyline style="fill-rule:evenodd;"
points="25798,18958
25306,18958
25306,18367
25798,18367
25798,18958
" /> 
<polyline style="fill-rule:evenodd;"
points="25798,17974
25306,17974
25306,17383
25798,17383
25798,17974
" /> 
<polyline style="fill-rule:evenodd;"
points="28586,17047
27917,17047
27917,16378
28586,16378
28586,17047
" /> 
</g>
<g style="fill:#000000; fill-opacity:1.0; 
stroke:#000000; stroke-width:669.291; stroke-opacity:1; 
stroke-linecap:round; stroke-linejoin:round;">
</g>
<g style="fill:#000000; fill-opacity:0.0; 
stroke:#000000; stroke-width:669.291; stroke-opacity:1; 
stroke-linecap:round; stroke-linejoin:round;">
<path d="M29252 16713
L29252 16713
" />
<path d="M30252 16713
L30252 16713
" />
</g>
<g style="fill:#000000; fill-opacity:1.0; 
stroke:#000000; stroke-width:0; stroke-opacity:1; 
stroke-linecap:round; stroke-linejoin:round;">
<circle cx="37352.3" cy="8094.56" r="492.126" /> 
</g>
<g style="fill:#000000; fill-opacity:1.0; 
stroke:#000000; stroke-width:39.3701; stroke-opacity:1; 
stroke-linecap:round; stroke-linejoin:round;">
</g>
<g style="fill:#000000; fill-opacity:1.0; 
stroke:#000000; stroke-width:0; stroke-opacity:1; 
stroke-linecap:round; stroke-linejoin:round;">
<polyline style="fill-rule:evenodd;"
points="37844,12523
36860,12523
36860,11539
37844,11539
37844,12523
" /> 
<circle cx="37352.3" cy="10063.1" r="492.126" /> 
</g>
<g style="fill:#000000; fill-opacity:1.0; 
stroke:#000000; stroke-width:39.3701; stroke-opacity:1; 
stroke-linecap:round; stroke-linejoin:round;">
</g>
<g style="fill:#000000; fill-opacity:1.0; 
stroke:#000000; stroke-width:0; stroke-opacity:1; 
stroke-linecap:round; stroke-linejoin:round;">
<polyline style="fill-rule:evenodd;"
points="9391,26655
9391,25670
10375,25670
10375,26655
9391,26655
" /> 
<circle cx="11852.3" cy="26163.1" r="492.126" /> 
</g>
<g style="fill:#000000; fill-opacity:1.0; 
stroke:#000000; stroke-width:39.3701; stroke-opacity:1; 
stroke-linecap:round; stroke-linejoin:round;">
</g>
<g style="fill:#000000; fill-opacity:1.0; 
stroke:#000000; stroke-width:0; stroke-opacity:1; 
stroke-linecap:round; stroke-linejoin:round;">
<polyline style="fill-rule:evenodd;"
points="10017,3328
10686,3328
10686,3997
10017,3997
10017,3328
" /> 
</g>
<g style="fill:#000000; fill-opacity:1.0; 
stroke:#000000; stroke-width:669.291; stroke-opacity:1; 
stroke-linecap:round; stroke-linejoin:round;">
</g>
<g style="fill:#000000; fill-opacity:0.0; 
stroke:#000000; stroke-width:669.291; stroke-opacity:1; 
stroke-linecap:round; stroke-linejoin:round;">
<path d="M9352 3663
L9352 3663
" />
</g>
<g style="fill:#000000; fill-opacity:0.0; 
stroke:#000000; stroke-width:0; stroke-opacity:1; 
stroke-linecap:round; stroke-linejoin:round;">
</g>
<g style="fill:#000000; fill-opacity:1.0; 
stroke:#000000; stroke-width:0; stroke-opacity:1; 
stroke-linecap:round; stroke-linejoin:round;">
<polyline style="fill-rule:evenodd;"
points="35586,24528
35586,25197
34917,25197
34917,24528
35586,24528
" /> 
</g>
<g style="fill:#000000; fill-opacity:1.0; 
stroke:#000000; stroke-width:669.291; stroke-opacity:1; 
stroke-linecap:round; stroke-linejoin:round;">
</g>
<g style="fill:#000000; fill-opacity:0.0; 
stroke:#000000; stroke-width:669.291; stroke-opacity:1; 
stroke-linecap:round; stroke-linejoin:round;">
<path d="M35252 23863
L35252 23863
" />
</g>
<g style="fill:#000000; fill-opacity:0.0; 
stroke:#000000; stroke-width:0; stroke-opacity:1; 
stroke-linecap:round; stroke-linejoin:round;">
</g>
<g style="fill:#000000; fill-opacity:1.0; 
stroke:#000000; stroke-width:0; stroke-opacity:1; 
stroke-linecap:round; stroke-linejoin:round;">
<polyline style="fill-rule:evenodd;"
points="35586,22028
35586,22697
34917,22697
34917,22028
35586,22028
" /> 
</g>
<g style="fill:#000000; fill-opacity:1.0; 
stroke:#000000; stroke-width:669.291; stroke-opacity:1; 
stroke-linecap:round; stroke-linejoin:round;">
</g>
<g style="fill:#000000; fill-opacity:0.0; 
stroke:#000000; stroke-width:669.291; stroke-opacity:1; 
stroke-linecap:round; stroke-linejoin:round;">
<path d="M35252 21363
L35252 21363
" />
</g>
<g style="fill:#000000; fill-opacity:0.0; 
stroke:#000000; stroke-width:0; stroke-opacity:1; 
stroke-linecap:round; stroke-linejoin:round;">
</g>
<g style="fill:#000000; fill-opacity:1.0; 
stroke:#000000; stroke-width:0; stroke-opacity:1; 
stroke-linecap:round; stroke-linejoin:round;">
<polyline style="fill-rule:evenodd;"
points="35417,16628
36086,16628
36086,17297
35417,17297
35417,16628
" /> 
</g>
<g style="fill:#000000; fill-opacity:1.0; 
stroke:#000000; stroke-width:669.291; stroke-opacity:1; 
stroke-linecap:round; stroke-linejoin:round;">
</g>
<g style="fill:#000000; fill-opacity:0.0; 
stroke:#000000; stroke-width:669.291; stroke-opacity:1; 
stroke-linecap:round; stroke-linejoin:round;">
<path d="M34752 16963
L34752 16963
" />
</g>
<g style="fill:#000000; fill-opacity:0.0; 
stroke:#000000; stroke-width:0; stroke-opacity:1; 
stroke-linecap:round; stroke-linejoin:round;">
</g>
<g style="fill:#000000; fill-opacity:1.0; 
stroke:#000000; stroke-width:0; stroke-opacity:1; 
stroke-linecap:round; stroke-linejoin:round;">
<polyline style="fill-rule:evenodd;"
points="22172,11009
22172,10516
22763,10516
22763,11009
22172,11009
" /> 
<polyline style="fill-rule:evenodd;"
points="23157,11009
23157,10516
23747,10516
23747,11009
23157,11009
" /> 
<polyline style="fill-rule:evenodd;"
points="34496,18167
35008,18167
35008,18758
34496,18758
34496,18167
" /> 
<polyline style="fill-rule:evenodd;"
points="34496,19230
35008,19230
35008,19821
34496,19821
34496,19230
" /> 
<polyline style="fill-rule:evenodd;"
points="25210,23407
25210,23918
24620,23918
24620,23407
25210,23407
" /> 
<polyline style="fill-rule:evenodd;"
points="24147,23407
24147,23918
23557,23918
23557,23407
24147,23407
" /> 
<polyline style="fill-rule:evenodd;"
points="23557,24918
23557,24407
24147,24407
24147,24918
23557,24918
" /> 
<polyline style="fill-rule:evenodd;"
points="24620,24918
24620,24407
25210,24407
25210,24918
24620,24918
" /> 
<polyline style="fill-rule:evenodd;"
points="23557,22918
23557,22407
24147,22407
24147,22918
23557,22918
" /> 
<polyline style="fill-rule:evenodd;"
points="24620,22918
24620,22407
25210,22407
25210,22918
24620,22918
" /> 
<polyline style="fill-rule:evenodd;"
points="36008,19821
35496,19821
35496,19230
36008,19230
36008,19821
" /> 
<polyline style="fill-rule:evenodd;"
points="36008,18758
35496,18758
35496,18167
36008,18167
36008,18758
" /> 
<circle cx="24502.3" cy="25713.1" r="314.961" /> 
</g>
<g style="fill:#000000; fill-opacity:1.0; 
stroke:#000000; stroke-width:39.3701; stroke-opacity:1; 
stroke-linecap:round; stroke-linejoin:round;">
</g>
<g style="fill:#000000; fill-opacity:1.0; 
stroke:#000000; stroke-width:0; stroke-opacity:1; 
stroke-linecap:round; stroke-linejoin:round;">
<circle cx="24502.3" cy="18663.1" r="314.961" /> 
</g>
<g style="fill:#000000; fill-opacity:1.0; 
stroke:#000000; stroke-width:39.3701; stroke-opacity:1; 
stroke-linecap:round; stroke-linejoin:round;">
</g>
<g style="fill:#000000; fill-opacity:1.0; 
stroke:#000000; stroke-width:0; stroke-opacity:1; 
stroke-linecap:round; stroke-linejoin:round;">
<circle cx="22468.1" cy="15713.1" r="314.961" /> 
</g>
<g style="fill:#000000; fill-opacity:1.0; 
stroke:#000000; stroke-width:39.3701; stroke-opacity:1; 
stroke-linecap:round; stroke-linejoin:round;">
</g>
<g style="fill:#000000; fill-opacity:1.0; 
stroke:#000000; stroke-width:0; stroke-opacity:1; 
stroke-linecap:round; stroke-linejoin:round;">
<circle cx="35752.3" cy="15713.1" r="314.961" /> 
</g>
<g style="fill:#000000; fill-opacity:1.0; 
stroke:#000000; stroke-width:39.3701; stroke-opacity:1; 
stroke-linecap:round; stroke-linejoin:round;">
</g>
<g style="fill:#000000; fill-opacity:1.0; 
stroke:#000000; stroke-width:0; stroke-opacity:1; 
stroke-linecap:round; stroke-linejoin:round;">
<circle cx="22852.3" cy="22663.1" r="314.961" /> 
</g>
<g style="fill:#000000; fill-opacity:1.0; 
stroke:#000000; stroke-width:39.3701; stroke-opacity:1; 
stroke-linecap:round; stroke-linejoin:round;">
</g>
<g style="fill:#000000; fill-opacity:1.0; 
stroke:#000000; stroke-width:0; stroke-opacity:1; 
stroke-linecap:round; stroke-linejoin:round;">
<circle cx="22852.3" cy="18663.1" r="314.961" /> 
</g>
<g style="fill:#000000; fill-opacity:1.0; 
stroke:#000000; stroke-width:39.3701; stroke-opacity:1; 
stroke-linecap:round; stroke-linejoin:round;">
</g>
<g style="fill:#000000; fill-opacity:1.0; 
stroke:#000000; stroke-width:295.276; stroke-opacity:1; 
stroke-linecap:round; stroke-linejoin:round;">
</g>
<g style="fill:#000000; fill-opacity:0.0; 
stroke:#000000; stroke-width:295.276; stroke-opacity:1; 
stroke-linecap:round; stroke-linejoin:round;">
<path d="M25002 9963
L25002 11013
" />
<path d="M25002 11013
L27052 13063
" />
</g>
<g style="fill:#000000; fill-opacity:0.0; 
stroke:#000000; stroke-width:1574.8; stroke-opacity:1; 
stroke-linecap:round; stroke-linejoin:round;">
<path d="M8327 22363
L8327 24607
" />
<path d="M8327 24607
L9883 26163
" />
</g>
<g style="fill:#000000; fill-opacity:0.0; 
stroke:#000000; stroke-width:295.276; stroke-opacity:1; 
stroke-linecap:round; stroke-linejoin:round;">
<path d="M25002 9463
L26452 9463
" />
<path d="M26452 9463
L27052 10063
" />
</g>
<g style="fill:#000000; fill-opacity:0.0; 
stroke:#000000; stroke-width:300; stroke-opacity:1; 
stroke-linecap:round; stroke-linejoin:round;">
<path d="M26449 8965
L27052 8363
" />
<path d="M27052 8363
L27052 7063
" />
<path d="M25154 8965
L26449 8965
" />
<path d="M25002 8963
L25152 8963
" />
<path d="M25152 8963
L25154 8965
" />
<path d="M11083 4394
L10352 3663
" />
<path d="M11083 7008
L11083 4394
" />
<path d="M8327 7008
L8327 4687
" />
<path d="M8327 4687
L9352 3663
" />
<path d="M26052 5963
L26052 5063
" />
<path d="M26052 5063
L27052 4063
" />
</g>
<g style="fill:#000000; fill-opacity:0.0; 
stroke:#000000; stroke-width:295.276; stroke-opacity:1; 
stroke-linecap:round; stroke-linejoin:round;">
<path d="M26052 7963
L26052 5963
" />
<path d="M25604 8410
L26052 7963
" />
<path d="M25002 8463
L25152 8463
" />
<path d="M25152 8463
L25204 8410
" />
<path d="M25204 8410
L25604 8410
" />
</g>
<g style="fill:#000000; fill-opacity:0.0; 
stroke:#000000; stroke-width:1574.8; stroke-opacity:1; 
stroke-linecap:round; stroke-linejoin:round;">
<path d="M13052 22363
L13052 24963
" />
<path d="M13052 24963
L11852 26163
" />
<path d="M31052 13063
L31052 7063
" />
</g>
<g style="fill:#000000; fill-opacity:0.0; 
stroke:#000000; stroke-width:200; stroke-opacity:1; 
stroke-linecap:round; stroke-linejoin:round;">
<path d="M32552 23437
L34827 23437
" />
<path d="M34827 23437
L35252 23863
" />
<path d="M33614 24225
L34252 24863
" />
<path d="M34252 24863
L35252 24863
" />
<path d="M33614 24225
L33614 24259
" />
<path d="M32552 24225
L33614 24225
" />
<path d="M32552 21863
L33752 21863
" />
<path d="M34252 21363
L35252 21363
" />
<path d="M33752 21863
L34252 21363
" />
<path d="M33964 22650
L34252 22363
" />
<path d="M34252 22363
L35252 22363
" />
<path d="M32552 22650
L33964 22650
" />
<path d="M32552 22650
L32564 22663
" />
<path d="M29252 16713
L29252 18173
" />
<path d="M29252 18173
L29398 18319
" />
<path d="M30252 16713
L30252 18253
" />
<path d="M30252 18253
L30186 18319
" />
<path d="M21202 8463
L20602 9063
" />
<path d="M20602 9063
L20602 20413
" />
<path d="M20602 20413
L21264 21075
" />
<path d="M21252 8463
L21202 8463
" />
</g>
<g style="fill:#000000; fill-opacity:0.0; 
stroke:#000000; stroke-width:196.85; stroke-opacity:1; 
stroke-linecap:round; stroke-linejoin:round;">
<path d="M22502 8463
L21252 8463
" />
<path d="M21264 21075
L27040 21075
" />
</g>
<g style="fill:#000000; fill-opacity:0.0; 
stroke:#000000; stroke-width:200; stroke-opacity:1; 
stroke-linecap:round; stroke-linejoin:round;">
<path d="M21652 8963
L21002 9613
" />
<path d="M21002 9613
L21002 19913
" />
<path d="M21002 19913
L21377 20288
" />
<path d="M21377 20288
L21452 20288
" />
</g>
<g style="fill:#000000; fill-opacity:0.0; 
stroke:#000000; stroke-width:196.85; stroke-opacity:1; 
stroke-linecap:round; stroke-linejoin:round;">
<path d="M21452 20288
L27215 20288
" />
<path d="M22502 8963
L21652 8963
" />
</g>
<g style="fill:#000000; fill-opacity:0.0; 
stroke:#000000; stroke-width:200; stroke-opacity:1; 
stroke-linecap:round; stroke-linejoin:round;">
<path d="M22052 9463
L21402 10113
" />
<path d="M21402 10113
L21402 19313
" />
<path d="M21402 19313
L21590 19500
" />
</g>
<g style="fill:#000000; fill-opacity:0.0; 
stroke:#000000; stroke-width:196.85; stroke-opacity:1; 
stroke-linecap:round; stroke-linejoin:round;">
<path d="M22502 9463
L22052 9463
" />
<path d="M21590 19500
L27040 19500
" />
</g>
<g style="fill:#000000; fill-opacity:0.0; 
stroke:#000000; stroke-width:200; stroke-opacity:1; 
stroke-linecap:round; stroke-linejoin:round;">
<path d="M38552 19863
L38552 23663
" />
<path d="M38552 23663
L36252 25963
" />
<path d="M31014 24225
L27040 24225
" />
<path d="M36252 25963
L34252 25963
" />
<path d="M34252 25963
L33152 24863
" />
<path d="M33152 24863
L31652 24863
" />
<path d="M31652 24863
L31014 24225
" />
<path d="M26114 24225
L25552 23663
" />
<path d="M25552 23663
L24915 23663
" />
<path d="M27040 24225
L26114 24225
" />
</g>
<g style="fill:#000000; fill-opacity:0.0; 
stroke:#000000; stroke-width:196.85; stroke-opacity:1; 
stroke-linecap:round; stroke-linejoin:round;">
<path d="M27002 24263
L27040 24225
" />
</g>
<g style="fill:#000000; fill-opacity:0.0; 
stroke:#000000; stroke-width:1574.8; stroke-opacity:1; 
stroke-linecap:round; stroke-linejoin:round;">
<path d="M34052 7063
L36320 7063
" />
<path d="M36320 7063
L37352 8094
" />
<path d="M34052 13063
L36320 13063
" />
<path d="M36320 13063
L37352 12031
" />
<path d="M34052 10063
L37352 10063
" />
</g>
<g style="fill:#000000; fill-opacity:0.0; 
stroke:#000000; stroke-width:200; stroke-opacity:1; 
stroke-linecap:round; stroke-linejoin:round;">
<path d="M27040 21863
L22352 21863
" />
<path d="M22352 21863
L21752 22463
" />
<path d="M21752 22463
L21752 23063
" />
<path d="M21752 23063
L22352 23663
" />
<path d="M22352 23663
L23852 23663
" />
<path d="M23852 23663
L23852 24663
" />
<path d="M37215 19526
L37552 19863
" />
<path d="M32552 21075
L33639 21075
" />
<path d="M33639 21075
L34252 20463
" />
<path d="M34252 20463
L35252 20463
" />
<path d="M35252 20463
L35752 19963
" />
<path d="M35752 19526
L37215 19526
" />
<path d="M35752 19963
L35752 19526
" />
</g>
<g style="fill:#000000; fill-opacity:0.0; 
stroke:#000000; stroke-width:300; stroke-opacity:1; 
stroke-linecap:round; stroke-linejoin:round;">
<path d="M24915 25300
L24502 25713
" />
<path d="M24502 18663
L25552 18663
" />
<path d="M22852 18663
L24502 18663
" />
<path d="M22468 15713
L22468 18278
" />
<path d="M22468 10763
L22468 15713
" />
<path d="M35752 16963
L35752 15713
" />
<path d="M28252 16713
L27617 16713
" />
<path d="M27617 16713
L27040 17290
" />
<path d="M27040 17290
L27040 18713
" />
<path d="M22468 18278
L22852 18663
" />
<path d="M22502 9963
L22502 10728
" />
<path d="M22502 10728
L22468 10763
" />
<path d="M35752 16963
L35752 18463
" />
<path d="M24915 25300
L24915 24663
" />
<path d="M23889 22663
L22852 22663
" />
</g>
<g style="fill:#000000; fill-opacity:0.0; 
stroke:#000000; stroke-width:196.85; stroke-opacity:1; 
stroke-linecap:round; stroke-linejoin:round;">
<path d="M23852 22700
L23889 22663
" />
</g>
<g style="fill:#000000; fill-opacity:0.0; 
stroke:#000000; stroke-width:300; stroke-opacity:1; 
stroke-linecap:round; stroke-linejoin:round;">
<path d="M25552 18663
L26990 18663
" />
</g>
<g style="fill:#000000; fill-opacity:0.0; 
stroke:#000000; stroke-width:196.85; stroke-opacity:1; 
stroke-linecap:round; stroke-linejoin:round;">
<path d="M26990 18663
L27040 18713
" />
</g>
<g style="fill:#000000; fill-opacity:0.0; 
stroke:#000000; stroke-width:200; stroke-opacity:1; 
stroke-linecap:round; stroke-linejoin:round;">
<path d="M34752 16963
L34752 18463
" />
<path d="M32802 18463
L34752 18463
" />
</g>
<g style="fill:#000000; fill-opacity:0.0; 
stroke:#000000; stroke-width:196.85; stroke-opacity:1; 
stroke-linecap:round; stroke-linejoin:round;">
<path d="M24052 8063
L24052 10763
" />
<path d="M24052 10763
L24052 15463
" />
</g>
<g style="fill:#000000; fill-opacity:0.0; 
stroke:#000000; stroke-width:200; stroke-opacity:1; 
stroke-linecap:round; stroke-linejoin:round;">
<path d="M23452 10763
L24052 10763
" />
<path d="M24052 15463
L31052 15463
" />
<path d="M31052 15463
L32552 16963
" />
<path d="M32552 16963
L34752 16963
" />
</g>
<g style="fill:#000000; fill-opacity:0.0; 
stroke:#000000; stroke-width:196.85; stroke-opacity:1; 
stroke-linecap:round; stroke-linejoin:round;">
<path d="M24052 15463
L24052 17363
" />
</g>
<g style="fill:#000000; fill-opacity:0.0; 
stroke:#000000; stroke-width:200; stroke-opacity:1; 
stroke-linecap:round; stroke-linejoin:round;">
<path d="M32552 18713
L32802 18463
" />
</g>
<g style="fill:#000000; fill-opacity:0.0; 
stroke:#000000; stroke-width:196.85; stroke-opacity:1; 
stroke-linecap:round; stroke-linejoin:round;">
<path d="M25002 7963
L24152 7963
" />
<path d="M24152 7963
L24052 8063
" />
<path d="M24052 17363
L24368 17678
" />
<path d="M24368 17678
L25552 17678
" />
<path d="M24952 22663
L27027 22663
" />
<path d="M27027 22663
L27040 22650
" />
</g>
<g style="fill:#000000; fill-opacity:0.0; 
stroke:#000000; stroke-width:200; stroke-opacity:1; 
stroke-linecap:round; stroke-linejoin:round;">
<path d="M32552 19500
L32577 19526
" />
<path d="M32577 19526
L34752 19526
" />
</g>
<g style="fill:#000000; fill-opacity:1.0; 
stroke:#000000; stroke-width:48.8189; stroke-opacity:1; 
stroke-linecap:round; stroke-linejoin:round;">
<polyline style="fill-rule:evenodd;"
points="28627,14763
28629,14772
28635,14780
28643,14785
28652,14787
33114,14787
33289,14904
34052,15055
36320,15055
36320,15055
36956,14929
37083,14904
37258,14787
42854,14787
42854,20674
35464,28025
33176,28034
33176,25346
34022,26192
34128,26262
34252,26287
36252,26287
36376,26262
36481,26192
38781,23892
38852,23787
38876,23663
38876,20426
38886,20426
38970,20410
39046,20361
39097,20286
39115,20197
39115,19782
40947,19782
41077,20096
41317,20336
41631,20467
41971,20467
42285,20337
42526,20097
42656,19783
42656,19443
42527,19129
42286,18889
41973,18758
41633,18758
41319,18888
41078,19128
40948,19442
40947,19782
39115,19782
39115,19528
39100,19445
39050,19368
38976,19317
38886,19299
38217,19299
38134,19315
38058,19364
38052,19371
38050,19368
37976,19317
37886,19299
37447,19299
37444,19296
37339,19226
37215,19201
36231,19201
36221,19147
36172,19071
36097,19019
36008,19001
35496,19001
35413,19017
35336,19066
35285,19141
35267,19230
35267,19821
35283,19904
35310,19946
35117,20138
34252,20138
34128,20163
34022,20233
33512,20743
33484,20699
33458,20682
33479,20668
33530,20593
33548,20504
33548,20071
33533,19988
33484,19912
33458,19894
33479,19881
33500,19850
34273,19850
34283,19904
34332,19980
34407,20032
34496,20050
35008,20050
35091,20034
35167,19985
35219,19910
35237,19821
35237,19230
35221,19147
35172,19071
35097,19019
35008,19001
34496,19001
34413,19017
34336,19066
34285,19141
34273,19201
33533,19201
33533,19201
33484,19124
33409,19073
33320,19055
32335,19055
32252,19071
32176,19120
32125,19195
32107,19284
32107,19717
32122,19800
32171,19876
32197,19894
32176,19907
32125,19982
32107,20071
32107,20504
32122,20587
32171,20664
32197,20681
32176,20695
32125,20770
32107,20859
32107,21292
32122,21375
32171,21451
32197,21469
32176,21482
32125,21557
32107,21646
32107,22079
32122,22162
32171,22239
32197,22256
32176,22269
32125,22344
32107,22433
32107,22866
32122,22950
32171,23026
32197,23043
32176,23057
32125,23132
32107,23221
32107,23654
32122,23737
32171,23813
32197,23831
32176,23844
32125,23919
32107,24008
32107,24441
32122,24524
32131,24538
31786,24538
31243,23995
31138,23925
31014,23900
27454,23900
27421,23849
27395,23831
27416,23818
27467,23743
27485,23654
27485,23221
27470,23138
27421,23061
27395,23044
27416,23031
27467,22956
27485,22866
27485,22433
27470,22350
27421,22274
27395,22257
27416,22243
27467,22168
27485,22079
27485,21646
27470,21563
27421,21486
27395,21469
27416,21456
27467,21381
27485,21292
27485,20859
27470,20775
27421,20699
27395,20682
27416,20668
27467,20593
27485,20504
27485,20453
27513,20411
27538,20288
27513,20164
27485,20123
27485,20071
27470,19988
27421,19912
27395,19894
27416,19881
27467,19806
27485,19717
27485,19284
27470,19201
27421,19124
27395,19107
27416,19093
27467,19019
27485,18929
27485,18770
32211,18770
32211,18954
32230,19000
32265,19035
32311,19054
32771,19054
32802,19023
32802,18739
32853,18739
32853,19023
32884,19054
33344,19054
33390,19035
33425,19000
33444,18954
33444,18770
33413,18739
32853,18739
32802,18739
32242,18739
32211,18770
27485,18770
27485,18724
27518,18747
27607,18765
28040,18765
28123,18749
28200,18700
28217,18674
28230,18695
28305,18747
28394,18765
28827,18765
28911,18749
28987,18700
29004,18674
29018,18695
29093,18747
29182,18765
29615,18765
29698,18749
29774,18700
29792,18674
29805,18695
29880,18747
29969,18765
30402,18765
30485,18749
30562,18700
30579,18674
30593,18695
30668,18747
30757,18765
31190,18765
31273,18749
31349,18700
31367,18674
31380,18695
31455,18747
31544,18765
31977,18765
32060,18749
32137,18700
32188,18625
32206,18536
32206,18472
32211,18472
32211,18656
32242,18687
32802,18687
32802,18403
32853,18403
32853,18687
33413,18687
33444,18656
33444,18519
34372,18519
34372,18783
34390,18828
34425,18863
34471,18882
34695,18882
34726,18851
34726,18488
34777,18488
34777,18851
34809,18882
35032,18882
35078,18863
35113,18828
35132,18783
35132,18519
35101,18488
34777,18488
34726,18488
34403,18488
34372,18519
33444,18519
33444,18472
33425,18426
33390,18391
33344,18372
32884,18372
32853,18403
32802,18403
32771,18372
32311,18372
32265,18391
32230,18426
32211,18472
32206,18472
32206,18143
34372,18143
34372,18406
34403,18437
34726,18437
34726,18074
34777,18074
34777,18437
35101,18437
35132,18406
35132,18143
35113,18097
35078,18062
35032,18043
34809,18043
34777,18074
34726,18074
34695,18043
34471,18043
34425,18062
34390,18097
34372,18143
32206,18143
32206,17552
32190,17468
32141,17392
32066,17341
31977,17323
31544,17323
31461,17338
31384,17388
31367,17413
31354,17392
31279,17341
31190,17323
30757,17323
30673,17338
30597,17388
30580,17413
30576,17408
30576,17166
30647,17119
30687,17060
34303,17060
34374,17224
34503,17348
34655,17411
34726,17390
34726,16988
34325,16988
34303,17060
30687,17060
30768,16937
30811,16724
30811,16702
30768,16488
30647,16306
30466,16185
30252,16143
30038,16185
29857,16306
29752,16463
29647,16306
29466,16185
29252,16143
29038,16185
28857,16306
28814,16370
28800,16295
28750,16218
28676,16167
28586,16149
27917,16149
27834,16165
27758,16214
27706,16289
27696,16338
27617,16338
27617,16338
27474,16367
27352,16448
27352,16448
26775,17025
26694,17146
26666,17290
26666,17290
26666,18268
26272,18268
26189,18283
26182,18288
26012,18288
26011,18284
25962,18208
25887,18157
25798,18138
25306,18138
25223,18154
25146,18203
25095,18278
25093,18288
24890,18288
24808,18206
24610,18123
24395,18123
24197,18205
24113,18288
23240,18288
23158,18206
22960,18123
22842,18123
22842,17735
25181,17735
25181,17998
25200,18044
25235,18079
25281,18098
25495,18098
25526,18067
25526,17704
25577,17704
25577,18067
25609,18098
25823,18098
25868,18079
25903,18044
25922,17998
25922,17735
25891,17704
25577,17704
25526,17704
25212,17704
25181,17735
22842,17735
22842,17358
25181,17358
25181,17622
25212,17653
25526,17653
25526,17290
25577,17290
25577,17653
25891,17653
25922,17622
25922,17358
25903,17313
25868,17278
25823,17259
25609,17259
25577,17290
25526,17290
25495,17259
25281,17259
25235,17278
25200,17313
25181,17358
22842,17358
22842,16101
22925,16018
22989,15863
33078,15863
33078,16801
34331,16801
34303,16866
34325,16937
34726,16937
34726,16535
34777,16535
34777,16937
34785,16937
34785,16988
34777,16988
34777,17390
34849,17411
35001,17348
35129,17224
35188,17088
35188,17297
35204,17380
35253,17457
35328,17508
35377,17518
35377,17977
35336,18003
35285,18078
35267,18167
35267,18758
35283,18841
35332,18917
35407,18969
35496,18987
36008,18987
36091,18971
36167,18922
36219,18847
36237,18758
36237,18167
36221,18084
36172,18008
36126,17977
36126,17519
36170,17510
36246,17461
36297,17386
36307,17337
36896,17337
36896,19188
38149,19188
38149,19187
39149,19187
39149,17307
37896,17307
37896,17337
36896,17337
36307,17337
36315,17297
36315,16801
37639,16801
37639,15863
36273,15863
36291,15820
36291,15606
36209,15407
36058,15256
35860,15173
35645,15173
35447,15255
35295,15407
35213,15605
35212,15819
35294,16018
35377,16101
35377,16407
35334,16415
35258,16464
35206,16539
35188,16628
35188,16838
35129,16701
35001,16577
34849,16514
34777,16535
34726,16535
34655,16514
34526,16567
34526,15863
33078,15863
22989,15863
23007,15820
23007,15606
22925,15407
22842,15324
22842,11223
22846,11222
22922,11173
22974,11098
22992,11009
22992,10819
23032,10819
23032,11033
23051,11079
23086,11114
23132,11133
23395,11133
23426,11102
23426,10788
23477,10788
23477,11102
23509,11133
23772,11133
23818,11114
23853,11079
23872,11033
23872,10819
23840,10788
23477,10788
23426,10788
23063,10788
23032,10819
22992,10819
22992,10516
22987,10492
23032,10492
23032,10706
23063,10737
23426,10737
23426,10423
23477,10423
23477,10737
23840,10737
23872,10706
23872,10492
23853,10446
23818,10411
23772,10392
23509,10392
23477,10423
23426,10423
23395,10392
23132,10392
23086,10411
23051,10446
23032,10492
22987,10492
22976,10433
22927,10357
22876,10322
22876,10233
22886,10227
22938,10152
22956,10063
22956,9863
22940,9779
22896,9712
22938,9652
22956,9563
22956,9363
22940,9279
22896,9212
22938,9152
22956,9063
22956,8863
22940,8779
22896,8712
22938,8652
22956,8563
22956,8363
24548,8363
24548,8563
24564,8646
24607,8713
24566,8774
24548,8863
24548,9063
24564,9146
24607,9213
24566,9274
24548,9363
24548,9563
24564,9646
24607,9713
24566,9774
24548,9863
24548,10063
24564,10146
24613,10222
24630,10234
24630,11013
24658,11155
24739,11276
26434,12971
26434,13185
26528,13412
26701,13586
26928,13681
27174,13681
27402,13587
27576,13413
27670,13186
27670,12940
27576,12713
27402,12539
27175,12445
26960,12444
25374,10858
25374,10235
25386,10227
25438,10152
25456,10063
25456,9863
25450,9835
26298,9835
26434,9971
26434,10185
26528,10412
26701,10586
26928,10681
27174,10681
27402,10587
27576,10413
27670,10186
27670,9940
27576,9713
27402,9539
27175,9445
26960,9444
26730,9214
27317,8627
27317,8627
27398,8506
27406,8463
27426,8363
27426,8363
27426,7562
27576,7413
27670,7186
27670,6940
27576,6713
27402,6539
27175,6445
26929,6444
26702,6538
26528,6712
26434,6939
26434,7185
26528,7412
26677,7562
26677,8207
26294,8591
25950,8591
26315,8226
26396,8105
26424,7963
26424,5974
26426,5963
26426,5218
26963,4681
27174,4681
27402,4587
27576,4413
27670,4186
27670,3940
27576,3713
27402,3539
27175,3445
26929,3444
26702,3538
26528,3712
26434,3939
26434,4151
25787,4798
25706,4919
25677,5063
25677,5063
25677,5963
25680,5974
25680,7808
25450,8038
25351,8038
25351,8019
25320,7988
25027,7988
25027,7996
24976,7996
24976,7988
24684,7988
24652,8019
24652,8087
24671,8133
24690,8152
24617,8199
24566,8274
24548,8363
22956,8363
22940,8279
22896,8212
22938,8152
22956,8063
22956,7863
22951,7838
24652,7838
24652,7906
24684,7937
24976,7937
24976,7769
25027,7769
25027,7937
25320,7937
25351,7906
25351,7838
25332,7792
25297,7757
25252,7738
25059,7738
25027,7769
24976,7769
24945,7738
24752,7738
24706,7757
24671,7792
24652,7838
22951,7838
22940,7779
22891,7703
22816,7652
22727,7634
22277,7634
22194,7649
22117,7699
22066,7774
22048,7863
22048,8063
22063,8140
21260,8140
21252,8138
21202,8138
21078,8163
20972,8233
20372,8833
20302,8938
20277,9063
20277,20413
20302,20537
20372,20642
21035,21305
21140,21375
21264,21400
21272,21398
26074,21398
26108,21451
26134,21469
26113,21482
26074,21538
22352,21538
22228,21563
22184,21592
22122,21633
21522,22233
21452,22338
21427,22463
21427,23063
21452,23187
21522,23292
22122,23892
22228,23962
22352,23987
23341,23987
23343,24002
23393,24078
23468,24129
23527,24141
23527,24183
23473,24193
23397,24243
23346,24318
23328,24407
23328,24918
23343,25002
23393,25078
23468,25129
23557,25147
24147,25147
24230,25132
24307,25082
24358,25007
24376,24918
24376,24407
24360,24323
24311,24247
24236,24196
24176,24184
24176,24142
24230,24132
24307,24082
24358,24007
24376,23918
24376,23407
24360,23323
24311,23247
24236,23196
24147,23178
23557,23178
23473,23193
23397,23243
23346,23318
23342,23338
22486,23338
22076,22928
22076,22597
22486,22187
22590,22187
22547,22205
22395,22357
22313,22555
22312,22769
22394,22968
22546,23120
22744,23202
22959,23202
23157,23120
23240,23037
23366,23037
23393,23078
23468,23129
23557,23147
24147,23147
24230,23132
24307,23082
24358,23007
24376,22918
24376,22407
24360,22323
24311,22247
24236,22196
24192,22187
24571,22187
24536,22193
24460,22243
24409,22318
24391,22407
24391,22918
24406,23002
24456,23078
24531,23129
24620,23147
25210,23147
25293,23132
25370,23082
25421,23007
25425,22985
26082,22985
26108,23026
26134,23043
26113,23057
26062,23132
26044,23221
26044,23654
26053,23705
25781,23433
25676,23363
25552,23338
25426,23338
25423,23323
25374,23247
25299,23196
25210,23178
24620,23178
24536,23193
24460,23243
24409,23318
24391,23407
24391,23918
24406,24002
24456,24078
24531,24129
24620,24147
25210,24147
25293,24132
25370,24082
25421,24007
25424,23993
25885,24454
25990,24524
26069,24540
26108,24601
26183,24652
26272,24670
27257,24670
27340,24654
27416,24605
27454,24549
30880,24549
31369,25038
26452,25038
26443,25040
26435,25045
26429,25053
26427,25062
26403,28059
25000,28064
22755,25819
23962,25819
24044,26018
24196,26170
24394,26252
24609,26252
24807,26170
24959,26018
25041,25820
25041,25703
25180,25564
25261,25443
25289,25300
25289,25300
25289,25132
25293,25132
25370,25082
25421,25007
25439,24918
25439,24407
25423,24323
25374,24247
25299,24196
25210,24178
24620,24178
24536,24193
24460,24243
24409,24318
24391,24407
24391,24918
24406,25002
24456,25078
24531,25129
24540,25131
24540,25144
24512,25173
24395,25173
24197,25255
24045,25407
23963,25605
23962,25819
22755,25819
17650,20714
17654,19782
17947,19782
18077,20096
18317,20336
18631,20467
18971,20467
19285,20337
19526,20097
19656,19783
19656,19443
19527,19129
19286,18889
18973,18758
18633,18758
18319,18888
18078,19128
17948,19442
17947,19782
17654,19782
17678,13088
18278,13088
18278,18121
19865,18121
19865,13088
18278,13088
17678,13088
17685,11282
17947,11282
18077,11596
18317,11836
18631,11967
18971,11967
19285,11837
19526,11597
19656,11283
19656,10943
19527,10629
19286,10389
18973,10258
18633,10258
18319,10388
18078,10628
17948,10942
17947,11282
17685,11282
17689,10172
25001,2861
28627,2861
28627,14763
" /> 
</g>
<g style="fill:#FFFFFF; fill-opacity:1.0; 
stroke:#FFFFFF; stroke-width:48.8189; stroke-opacity:1; 
stroke-linecap:round; stroke-linejoin:round;">
</g>
<g style="fill:#FFFFFF; fill-opacity:1.0; 
stroke:#FFFFFF; stroke-width:0; stroke-opacity:1; 
stroke-linecap:round; stroke-linejoin:round;">
<circle cx="24502.3" cy="25713.1" r="157.48" /> 
</g>
<g style="fill:#FFFFFF; fill-opacity:1.0; 
stroke:#FFFFFF; stroke-width:39.3701; stroke-opacity:1; 
stroke-linecap:round; stroke-linejoin:round;">
</g>
<g style="fill:#FFFFFF; fill-opacity:1.0; 
stroke:#FFFFFF; stroke-width:0; stroke-opacity:1; 
stroke-linecap:round; stroke-linejoin:round;">
<circle cx="24502.3" cy="18663.1" r="157.48" /> 
</g>
<g style="fill:#FFFFFF; fill-opacity:1.0; 
stroke:#FFFFFF; stroke-width:39.3701; stroke-opacity:1; 
stroke-linecap:round; stroke-linejoin:round;">
</g>
<g style="fill:#FFFFFF; fill-opacity:1.0; 
stroke:#FFFFFF; stroke-width:0; stroke-opacity:1; 
stroke-linecap:round; stroke-linejoin:round;">
<circle cx="22468.1" cy="15713.1" r="157.48" /> 
</g>
<g style="fill:#FFFFFF; fill-opacity:1.0; 
stroke:#FFFFFF; stroke-width:39.3701; stroke-opacity:1; 
stroke-linecap:round; stroke-linejoin:round;">
</g>
<g style="fill:#FFFFFF; fill-opacity:1.0; 
stroke:#FFFFFF; stroke-width:0; stroke-opacity:1; 
stroke-linecap:round; stroke-linejoin:round;">
<circle cx="35752.3" cy="15713.1" r="157.48" /> 
</g>
<g style="fill:#FFFFFF; fill-opacity:1.0; 
stroke:#FFFFFF; stroke-width:39.3701; stroke-opacity:1; 
stroke-linecap:round; stroke-linejoin:round;">
</g>
<g style="fill:#FFFFFF; fill-opacity:1.0; 
stroke:#FFFFFF; stroke-width:0; stroke-opacity:1; 
stroke-linecap:round; stroke-linejoin:round;">
<circle cx="22852.3" cy="22663.1" r="157.48" /> 
</g>
<g style="fill:#FFFFFF; fill-opacity:1.0; 
stroke:#FFFFFF; stroke-width:39.3701; stroke-opacity:1; 
stroke-linecap:round; stroke-linejoin:round;">
</g>
<g style="fill:#FFFFFF; fill-opacity:1.0; 
stroke:#FFFFFF; stroke-width:0; stroke-opacity:1; 
stroke-linecap:round; stroke-linejoin:round;">
<circle cx="22852.3" cy="18663.1" r="157.48" /> 
</g>
<g style="fill:#FFFFFF; fill-opacity:1.0; 
stroke:#FFFFFF; stroke-width:39.3701; stroke-opacity:1; 
stroke-linecap:round; stroke-linejoin:round;">
</g>
<g style="fill:#FFFFFF; fill-opacity:1.0; 
stroke:#FFFFFF; stroke-width:0; stroke-opacity:1; 
stroke-linecap:round; stroke-linejoin:round;">
<circle cx="18802.3" cy="19613.1" r="629.921" /> 
</g>
<g style="fill:#FFFFFF; fill-opacity:1.0; 
stroke:#FFFFFF; stroke-width:39.3701; stroke-opacity:1; 
stroke-linecap:round; stroke-linejoin:round;">
</g>
<g style="fill:#FFFFFF; fill-opacity:1.0; 
stroke:#FFFFFF; stroke-width:0; stroke-opacity:1; 
stroke-linecap:round; stroke-linejoin:round;">
<circle cx="41802.3" cy="11113.1" r="629.921" /> 
</g>
<g style="fill:#FFFFFF; fill-opacity:1.0; 
stroke:#FFFFFF; stroke-width:39.3701; stroke-opacity:1; 
stroke-linecap:round; stroke-linejoin:round;">
</g>
<g style="fill:#FFFFFF; fill-opacity:1.0; 
stroke:#FFFFFF; stroke-width:0; stroke-opacity:1; 
stroke-linecap:round; stroke-linejoin:round;">
<circle cx="41802.3" cy="19613.1" r="629.921" /> 
</g>
<g style="fill:#FFFFFF; fill-opacity:1.0; 
stroke:#FFFFFF; stroke-width:39.3701; stroke-opacity:1; 
stroke-linecap:round; stroke-linejoin:round;">
</g>
<g style="fill:#FFFFFF; fill-opacity:1.0; 
stroke:#FFFFFF; stroke-width:0; stroke-opacity:1; 
stroke-linecap:round; stroke-linejoin:round;">
<circle cx="18802.3" cy="11113.1" r="629.921" /> 
</g>
<g style="fill:#FFFFFF; fill-opacity:1.0; 
stroke:#FFFFFF; stroke-width:39.3701; stroke-opacity:1; 
stroke-linecap:round; stroke-linejoin:round;">
</g>
<g style="fill:#FFFFFF; fill-opacity:1.0; 
stroke:#FFFFFF; stroke-width:0; stroke-opacity:1; 
stroke-linecap:round; stroke-linejoin:round;">
<circle cx="37552.3" cy="19863.1" r="196.85" /> 
</g>
<g style="fill:#FFFFFF; fill-opacity:1.0; 
stroke:#FFFFFF; stroke-width:39.3701; stroke-opacity:1; 
stroke-linecap:round; stroke-linejoin:round;">
</g>
<g style="fill:#FFFFFF; fill-opacity:1.0; 
stroke:#FFFFFF; stroke-width:0; stroke-opacity:1; 
stroke-linecap:round; stroke-linejoin:round;">
<circle cx="38552.3" cy="19863.1" r="196.85" /> 
</g>
<g style="fill:#FFFFFF; fill-opacity:1.0; 
stroke:#FFFFFF; stroke-width:39.3701; stroke-opacity:1; 
stroke-linecap:round; stroke-linejoin:round;">
</g>
<g style="fill:#FFFFFF; fill-opacity:1.0; 
stroke:#FFFFFF; stroke-width:0; stroke-opacity:1; 
stroke-linecap:round; stroke-linejoin:round;">
<circle cx="27052.3" cy="7063.06" r="196.85" /> 
</g>
<g style="fill:#FFFFFF; fill-opacity:1.0; 
stroke:#FFFFFF; stroke-width:39.3701; stroke-opacity:1; 
stroke-linecap:round; stroke-linejoin:round;">
</g>
<g style="fill:#FFFFFF; fill-opacity:1.0; 
stroke:#FFFFFF; stroke-width:0; stroke-opacity:1; 
stroke-linecap:round; stroke-linejoin:round;">
<circle cx="31052.3" cy="7063.06" r="196.85" /> 
</g>
<g style="fill:#FFFFFF; fill-opacity:1.0; 
stroke:#FFFFFF; stroke-width:39.3701; stroke-opacity:1; 
stroke-linecap:round; stroke-linejoin:round;">
</g>
<g style="fill:#FFFFFF; fill-opacity:1.0; 
stroke:#FFFFFF; stroke-width:0; stroke-opacity:1; 
stroke-linecap:round; stroke-linejoin:round;">
<circle cx="34052.3" cy="7063.06" r="196.85" /> 
</g>
<g style="fill:#FFFFFF; fill-opacity:1.0; 
stroke:#FFFFFF; stroke-width:39.3701; stroke-opacity:1; 
stroke-linecap:round; stroke-linejoin:round;">
</g>
<g style="fill:#FFFFFF; fill-opacity:1.0; 
stroke:#FFFFFF; stroke-width:0; stroke-opacity:1; 
stroke-linecap:round; stroke-linejoin:round;">
<circle cx="34052.3" cy="4063.06" r="196.85" /> 
</g>
<g style="fill:#FFFFFF; fill-opacity:1.0; 
stroke:#FFFFFF; stroke-width:39.3701; stroke-opacity:1; 
stroke-linecap:round; stroke-linejoin:round;">
</g>
<g style="fill:#FFFFFF; fill-opacity:1.0; 
stroke:#FFFFFF; stroke-width:0; stroke-opacity:1; 
stroke-linecap:round; stroke-linejoin:round;">
<circle cx="27052.3" cy="4063.06" r="196.85" /> 
</g>
<g style="fill:#FFFFFF; fill-opacity:1.0; 
stroke:#FFFFFF; stroke-width:39.3701; stroke-opacity:1; 
stroke-linecap:round; stroke-linejoin:round;">
</g>
<g style="fill:#FFFFFF; fill-opacity:1.0; 
stroke:#FFFFFF; stroke-width:0; stroke-opacity:1; 
stroke-linecap:round; stroke-linejoin:round;">
<circle cx="27052.3" cy="13063.1" r="196.85" /> 
</g>
<g style="fill:#FFFFFF; fill-opacity:1.0; 
stroke:#FFFFFF; stroke-width:39.3701; stroke-opacity:1; 
stroke-linecap:round; stroke-linejoin:round;">
</g>
<g style="fill:#FFFFFF; fill-opacity:1.0; 
stroke:#FFFFFF; stroke-width:0; stroke-opacity:1; 
stroke-linecap:round; stroke-linejoin:round;">
<circle cx="31052.3" cy="13063.1" r="196.85" /> 
</g>
<g style="fill:#FFFFFF; fill-opacity:1.0; 
stroke:#FFFFFF; stroke-width:39.3701; stroke-opacity:1; 
stroke-linecap:round; stroke-linejoin:round;">
</g>
<g style="fill:#FFFFFF; fill-opacity:1.0; 
stroke:#FFFFFF; stroke-width:0; stroke-opacity:1; 
stroke-linecap:round; stroke-linejoin:round;">
<circle cx="34052.3" cy="13063.1" r="196.85" /> 
</g>
<g style="fill:#FFFFFF; fill-opacity:1.0; 
stroke:#FFFFFF; stroke-width:39.3701; stroke-opacity:1; 
stroke-linecap:round; stroke-linejoin:round;">
</g>
<g style="fill:#FFFFFF; fill-opacity:1.0; 
stroke:#FFFFFF; stroke-width:0; stroke-opacity:1; 
stroke-linecap:round; stroke-linejoin:round;">
<circle cx="34052.3" cy="10063.1" r="196.85" /> 
</g>
<g style="fill:#FFFFFF; fill-opacity:1.0; 
stroke:#FFFFFF; stroke-width:39.3701; stroke-opacity:1; 
stroke-linecap:round; stroke-linejoin:round;">
</g>
<g style="fill:#FFFFFF; fill-opacity:1.0; 
stroke:#FFFFFF; stroke-width:0; stroke-opacity:1; 
stroke-linecap:round; stroke-linejoin:round;">
<circle cx="27052.3" cy="10063.1" r="196.85" /> 
</g>
<g style="fill:#FFFFFF; fill-opacity:1.0; 
stroke:#FFFFFF; stroke-width:39.3701; stroke-opacity:1; 
stroke-linecap:round; stroke-linejoin:round;">
</g>
<g style="fill:#FFFFFF; fill-opacity:1.0; 
stroke:#FFFFFF; stroke-width:0; stroke-opacity:1; 
stroke-linecap:round; stroke-linejoin:round;">
<circle cx="13052.3" cy="22363.1" r="295.276" /> 
</g>
<g style="fill:#FFFFFF; fill-opacity:1.0; 
stroke:#FFFFFF; stroke-width:39.3701; stroke-opacity:1; 
stroke-linecap:round; stroke-linejoin:round;">
</g>
<g style="fill:#FFFFFF; fill-opacity:1.0; 
stroke:#FFFFFF; stroke-width:0; stroke-opacity:1; 
stroke-linecap:round; stroke-linejoin:round;">
<circle cx="8327.93" cy="22363.1" r="295.276" /> 
</g>
<g style="fill:#FFFFFF; fill-opacity:1.0; 
stroke:#FFFFFF; stroke-width:39.3701; stroke-opacity:1; 
stroke-linecap:round; stroke-linejoin:round;">
</g>
<g style="fill:#FFFFFF; fill-opacity:1.0; 
stroke:#FFFFFF; stroke-width:0; stroke-opacity:1; 
stroke-linecap:round; stroke-linejoin:round;">
<circle cx="8327.93" cy="7008.73" r="295.276" /> 
</g>
<g style="fill:#FFFFFF; fill-opacity:1.0; 
stroke:#FFFFFF; stroke-width:39.3701; stroke-opacity:1; 
stroke-linecap:round; stroke-linejoin:round;">
</g>
<g style="fill:#FFFFFF; fill-opacity:1.0; 
stroke:#FFFFFF; stroke-width:0; stroke-opacity:1; 
stroke-linecap:round; stroke-linejoin:round;">
<circle cx="11083.8" cy="7008.73" r="295.276" /> 
</g>
<g style="fill:#FFFFFF; fill-opacity:1.0; 
stroke:#FFFFFF; stroke-width:39.3701; stroke-opacity:1; 
stroke-linecap:round; stroke-linejoin:round;">
</g>
<g style="fill:#FFFFFF; fill-opacity:1.0; 
stroke:#FFFFFF; stroke-width:0; stroke-opacity:1; 
stroke-linecap:round; stroke-linejoin:round;">
<circle cx="28252.3" cy="16713.1" r="196.85" /> 
</g>
<g style="fill:#FFFFFF; fill-opacity:1.0; 
stroke:#FFFFFF; stroke-width:39.3701; stroke-opacity:1; 
stroke-linecap:round; stroke-linejoin:round;">
</g>
<g style="fill:#FFFFFF; fill-opacity:1.0; 
stroke:#FFFFFF; stroke-width:0; stroke-opacity:1; 
stroke-linecap:round; stroke-linejoin:round;">
<circle cx="29252.3" cy="16713.1" r="196.85" /> 
</g>
<g style="fill:#FFFFFF; fill-opacity:1.0; 
stroke:#FFFFFF; stroke-width:39.3701; stroke-opacity:1; 
stroke-linecap:round; stroke-linejoin:round;">
</g>
<g style="fill:#FFFFFF; fill-opacity:1.0; 
stroke:#FFFFFF; stroke-width:0; stroke-opacity:1; 
stroke-linecap:round; stroke-linejoin:round;">
<circle cx="30252.3" cy="16713.1" r="196.85" /> 
</g>
<g style="fill:#FFFFFF; fill-opacity:1.0; 
stroke:#FFFFFF; stroke-width:39.3701; stroke-opacity:1; 
stroke-linecap:round; stroke-linejoin:round;">
</g>
<g style="fill:#FFFFFF; fill-opacity:1.0; 
stroke:#FFFFFF; stroke-width:0; stroke-opacity:1; 
stroke-linecap:round; stroke-linejoin:round;">
<circle cx="37352.3" cy="8094.56" r="255.906" /> 
</g>
<g style="fill:#FFFFFF; fill-opacity:1.0; 
stroke:#FFFFFF; stroke-width:39.3701; stroke-opacity:1; 
stroke-linecap:round; stroke-linejoin:round;">
</g>
<g style="fill:#FFFFFF; fill-opacity:1.0; 
stroke:#FFFFFF; stroke-width:0; stroke-opacity:1; 
stroke-linecap:round; stroke-linejoin:round;">
<circle cx="37352.3" cy="12031.6" r="255.906" /> 
</g>
<g style="fill:#FFFFFF; fill-opacity:1.0; 
stroke:#FFFFFF; stroke-width:39.3701; stroke-opacity:1; 
stroke-linecap:round; stroke-linejoin:round;">
</g>
<g style="fill:#FFFFFF; fill-opacity:1.0; 
stroke:#FFFFFF; stroke-width:0; stroke-opacity:1; 
stroke-linecap:round; stroke-linejoin:round;">
<circle cx="37352.3" cy="10063.1" r="255.906" /> 
</g>
<g style="fill:#FFFFFF; fill-opacity:1.0; 
stroke:#FFFFFF; stroke-width:39.3701; stroke-opacity:1; 
stroke-linecap:round; stroke-linejoin:round;">
</g>
<g style="fill:#FFFFFF; fill-opacity:1.0; 
stroke:#FFFFFF; stroke-width:0; stroke-opacity:1; 
stroke-linecap:round; stroke-linejoin:round;">
<circle cx="9883.84" cy="26163.1" r="255.906" /> 
</g>
<g style="fill:#FFFFFF; fill-opacity:1.0; 
stroke:#FFFFFF; stroke-width:39.3701; stroke-opacity:1; 
stroke-linecap:round; stroke-linejoin:round;">
</g>
<g style="fill:#FFFFFF; fill-opacity:1.0; 
stroke:#FFFFFF; stroke-width:0; stroke-opacity:1; 
stroke-linecap:round; stroke-linejoin:round;">
<circle cx="11852.3" cy="26163.1" r="255.906" /> 
</g>
<g style="fill:#FFFFFF; fill-opacity:1.0; 
stroke:#FFFFFF; stroke-width:39.3701; stroke-opacity:1; 
stroke-linecap:round; stroke-linejoin:round;">
</g>
<g style="fill:#FFFFFF; fill-opacity:1.0; 
stroke:#FFFFFF; stroke-width:0; stroke-opacity:1; 
stroke-linecap:round; stroke-linejoin:round;">
<circle cx="10352.3" cy="3663.06" r="196.85" /> 
</g>
<g style="fill:#FFFFFF; fill-opacity:1.0; 
stroke:#FFFFFF; stroke-width:39.3701; stroke-opacity:1; 
stroke-linecap:round; stroke-linejoin:round;">
</g>
<g style="fill:#FFFFFF; fill-opacity:1.0; 
stroke:#FFFFFF; stroke-width:0; stroke-opacity:1; 
stroke-linecap:round; stroke-linejoin:round;">
<circle cx="9352.34" cy="3663.06" r="196.85" /> 
</g>
<g style="fill:#FFFFFF; fill-opacity:1.0; 
stroke:#FFFFFF; stroke-width:39.3701; stroke-opacity:1; 
stroke-linecap:round; stroke-linejoin:round;">
</g>
<g style="fill:#FFFFFF; fill-opacity:1.0; 
stroke:#FFFFFF; stroke-width:0; stroke-opacity:1; 
stroke-linecap:round; stroke-linejoin:round;">
<circle cx="35252.3" cy="24863.1" r="196.85" /> 
</g>
<g style="fill:#FFFFFF; fill-opacity:1.0; 
stroke:#FFFFFF; stroke-width:39.3701; stroke-opacity:1; 
stroke-linecap:round; stroke-linejoin:round;">
</g>
<g style="fill:#FFFFFF; fill-opacity:1.0; 
stroke:#FFFFFF; stroke-width:0; stroke-opacity:1; 
stroke-linecap:round; stroke-linejoin:round;">
<circle cx="35252.3" cy="23863.1" r="196.85" /> 
</g>
<g style="fill:#FFFFFF; fill-opacity:1.0; 
stroke:#FFFFFF; stroke-width:39.3701; stroke-opacity:1; 
stroke-linecap:round; stroke-linejoin:round;">
</g>
<g style="fill:#FFFFFF; fill-opacity:1.0; 
stroke:#FFFFFF; stroke-width:0; stroke-opacity:1; 
stroke-linecap:round; stroke-linejoin:round;">
<circle cx="35252.3" cy="22363.1" r="196.85" /> 
</g>
<g style="fill:#FFFFFF; fill-opacity:1.0; 
stroke:#FFFFFF; stroke-width:39.3701; stroke-opacity:1; 
stroke-linecap:round; stroke-linejoin:round;">
</g>
<g style="fill:#FFFFFF; fill-opacity:1.0; 
stroke:#FFFFFF; stroke-width:0; stroke-opacity:1; 
stroke-linecap:round; stroke-linejoin:round;">
<circle cx="35252.3" cy="21363.1" r="196.85" /> 
</g>
<g style="fill:#FFFFFF; fill-opacity:1.0; 
stroke:#FFFFFF; stroke-width:39.3701; stroke-opacity:1; 
stroke-linecap:round; stroke-linejoin:round;">
</g>
<g style="fill:#FFFFFF; fill-opacity:1.0; 
stroke:#FFFFFF; stroke-width:0; stroke-opacity:1; 
stroke-linecap:round; stroke-linejoin:round;">
<circle cx="35752.3" cy="16963.1" r="196.85" /> 
</g>
<g style="fill:#FFFFFF; fill-opacity:1.0; 
stroke:#FFFFFF; stroke-width:39.3701; stroke-opacity:1; 
stroke-linecap:round; stroke-linejoin:round;">
</g>
<g style="fill:#FFFFFF; fill-opacity:1.0; 
stroke:#FFFFFF; stroke-width:0; stroke-opacity:1; 
stroke-linecap:round; stroke-linejoin:round;">
<circle cx="34752.3" cy="16963.1" r="196.85" /> 
</g>
<g style="fill:#FFFFFF; fill-opacity:1.0; 
stroke:#FFFFFF; stroke-width:39.3701; stroke-opacity:1; 
stroke-linecap:round; stroke-linejoin:round;">
</g>
<g style="fill:#FFFFFF; fill-opacity:1.0; 
stroke:#FFFFFF; stroke-width:0; stroke-opacity:1; 
stroke-linecap:round; stroke-linejoin:round;">
<circle cx="14752.3" cy="3963.06" r="629.921" /> 
</g>
<g style="fill:#FFFFFF; fill-opacity:1.0; 
stroke:#FFFFFF; stroke-width:39.3701; stroke-opacity:1; 
stroke-linecap:round; stroke-linejoin:round;">
</g>
<g style="fill:#FFFFFF; fill-opacity:1.0; 
stroke:#FFFFFF; stroke-width:0; stroke-opacity:1; 
stroke-linecap:round; stroke-linejoin:round;">
<circle cx="6252.34" cy="3963.06" r="629.921" /> 
</g>
<g style="fill:#FFFFFF; fill-opacity:1.0; 
stroke:#FFFFFF; stroke-width:39.3701; stroke-opacity:1; 
stroke-linecap:round; stroke-linejoin:round;">
</g>
<g style="fill:#FFFFFF; fill-opacity:1.0; 
stroke:#FFFFFF; stroke-width:0; stroke-opacity:1; 
stroke-linecap:round; stroke-linejoin:round;">
<circle cx="6252.34" cy="26963.1" r="629.921" /> 
</g>
<g style="fill:#FFFFFF; fill-opacity:1.0; 
stroke:#FFFFFF; stroke-width:39.3701; stroke-opacity:1; 
stroke-linecap:round; stroke-linejoin:round;">
</g>
<g style="fill:#FFFFFF; fill-opacity:1.0; 
stroke:#FFFFFF; stroke-width:0; stroke-opacity:1; 
stroke-linecap:round; stroke-linejoin:round;">
<circle cx="14752.3" cy="26963.1" r="629.921" /> 
</g>
<g style="fill:#FFFFFF; fill-opacity:1.0; 
stroke:#FFFFFF; stroke-width:39.3701; stroke-opacity:1; 
stroke-linecap:round; stroke-linejoin:round;">
</g>
<g style="fill:#000000; fill-opacity:1.0; 
stroke:#000000; stroke-width:39.3701; stroke-opacity:1; 
stroke-linecap:round; stroke-linejoin:round;">
</g>
<g style="fill:#000000; fill-opacity:0.0; 
stroke:#000000; stroke-width:39.3701; stroke-opacity:1; 
stroke-linecap:round; stroke-linejoin:round;">
<polyline fill="none;"
points="35568,2677
35569,2677
35573,2678
35577,2679
35578,2680
35579,2680
35582,2682
35586,2684
35587,2685
35588,2686
43029,10127
43029,10128
43030,10129
43032,10132
43035,10135
43035,10136
43035,10137
43036,10141
43037,10145
43037,10146
43037,10148
43037,20738
43037,20739
43037,20741
43036,20744
43035,20748
43035,20749
43034,20751
43032,20754
43030,20757
43029,20758
43029,20759
35548,28200
35547,28201
35546,28202
35543,28204
35540,28206
35539,28206
35538,28207
35534,28208
35530,28209
35529,28208
35528,28209
24937,28248
24936,28248
24934,28248
24931,28247
24927,28246
24926,28246
24924,28245
24921,28243
24918,28241
24917,28240
24916,28239
17475,20798
17474,20797
17473,20796
17471,20793
17469,20790
17469,20789
17468,20788
17468,20784
17467,20780
17467,20779
17466,20777
17506,10108
17506,10107
17506,10106
17507,10102
17508,10098
17508,10097
17509,10096
17511,10093
17513,10089
17514,10088
17514,10087
24916,2686
24917,2685
24918,2684
24921,2682
24924,2680
24926,2680
24927,2679
24931,2678
24934,2677
24936,2677
24937,2677
35567,2677
35568,2677
" /> 
<polyline fill="none;"
points="24949,2736
17565,10121
17526,20765
24949,28189
35515,28150
42978,20726
42978,10160
35555,2736
24949,2736
" /> 
<polyline fill="none;"
points="19345,20069
19157,20227
18925,20311
18679,20311
18447,20227
18258,20069
18135,19855
18092,19613
18135,19370
18258,19156
18447,18998
18679,18914
18925,18914
19157,18998
19345,19156
19469,19370
19511,19613
19469,19855
19345,20069
" /> 
<polyline fill="none;"
points="19300,19194
19127,19049
18915,18972
18689,18972
18477,19049
18303,19194
18191,19390
18151,19613
18191,19835
18303,20031
18477,20176
18689,20253
18915,20253
19127,20176
19300,20031
19413,19835
19452,19613
19413,19390
19300,19194
" /> 
<polyline fill="none;"
points="42345,20069
42157,20227
41925,20311
41679,20311
41447,20227
41258,20069
41135,19855
41092,19613
41135,19370
41258,19156
41447,18998
41679,18914
41925,18914
42157,18998
42345,19156
42469,19370
42511,19613
42469,19855
42345,20069
" /> 
<polyline fill="none;"
points="42300,19194
42127,19049
41915,18972
41689,18972
41477,19049
41303,19194
41191,19390
41151,19613
41191,19835
41303,20031
41477,20176
41689,20253
41915,20253
42127,20176
42300,20031
42413,19835
42452,19613
42413,19390
42300,19194
" /> 
<polyline fill="none;"
points="42345,11569
42157,11727
41925,11811
41679,11811
41447,11727
41258,11569
41135,11355
41092,11113
41135,10870
41258,10656
41447,10498
41679,10414
41925,10414
42157,10498
42345,10656
42469,10870
42511,11113
42469,11355
42345,11569
" /> 
<polyline fill="none;"
points="42300,10694
42127,10549
41915,10472
41689,10472
41477,10549
41303,10694
41191,10890
41151,11113
41191,11335
41303,11531
41477,11676
41689,11753
41915,11753
42127,11676
42300,11531
42413,11335
42452,11113
42413,10890
42300,10694
" /> 
<polyline fill="none;"
points="19340,11564
19153,11721
18924,11804
18680,11804
18451,11721
18264,11564
18142,11353
18100,11113
18142,10872
18264,10661
18451,10504
18680,10421
18924,10421
19153,10504
19340,10661
19462,10872
19504,11113
19462,11353
19340,11564
" /> 
<polyline fill="none;"
points="19295,10699
19123,10556
18914,10479
18690,10479
18480,10556
18309,10699
18197,10893
18159,11113
18197,11333
18309,11526
18480,11670
18690,11746
18914,11746
19123,11670
19295,11526
19406,11333
19445,11113
19406,10893
19295,10699
" /> 
<polyline fill="none;"
points="15654,2733
15657,2733
15659,2734
15662,2735
15664,2736
15667,2737
15669,2739
15671,2740
15672,2742
15674,2744
15676,2746
15677,2748
15678,2750
15680,2752
15680,2755
15681,2757
15681,2760
15681,2763
15681,28063
15681,28065
15681,28068
15680,28070
15680,28073
15678,28075
15677,28077
15676,28079
15674,28082
15672,28083
15671,28085
15669,28086
15667,28088
15664,28089
15662,28090
15659,28091
15657,28092
15654,28092
15652,28092
5352,28092
5349,28092
5347,28092
5344,28091
5342,28090
5340,28089
5337,28088
5335,28086
5333,28085
5331,28083
5329,28082
5328,28079
5326,28077
5325,28075
5324,28073
5324,28070
5323,28068
5323,28065
5322,28063
5322,2763
5323,2760
5323,2757
5324,2755
5324,2752
5325,2750
5326,2748
5328,2746
5329,2744
5331,2742
5333,2740
5335,2739
5337,2737
5340,2736
5342,2735
5344,2734
5347,2733
5349,2733
5352,2733
15652,2733
15654,2733
" /> 
<polyline fill="none;"
points="5381,2792
5381,28033
15622,28033
15622,2792
5381,2792
" /> 
<polyline fill="none;"
points="6790,27414
6603,27571
6374,27654
6130,27654
5901,27571
5714,27414
5592,27203
5550,26963
5592,26722
5714,26511
5901,26354
6130,26271
6374,26271
6603,26354
6790,26511
6912,26722
6954,26963
6912,27203
6790,27414
" /> 
<polyline fill="none;"
points="6745,26549
6573,26406
6364,26329
6140,26329
5930,26406
5759,26549
5647,26743
5609,26963
5647,27183
5759,27376
5930,27520
6140,27596
6364,27596
6573,27520
6745,27376
6856,27183
6895,26963
6856,26743
6745,26549
" /> 
<polyline fill="none;"
points="15290,27414
15103,27571
14874,27654
14630,27654
14401,27571
14214,27414
14092,27203
14050,26963
14092,26722
14214,26511
14401,26354
14630,26271
14874,26271
15103,26354
15290,26511
15412,26722
15454,26963
15412,27203
15290,27414
" /> 
<polyline fill="none;"
points="15245,26549
15073,26406
14864,26329
14640,26329
14430,26406
14259,26549
14147,26743
14109,26963
14147,27183
14259,27376
14430,27520
14640,27596
14864,27596
15073,27520
15245,27376
15356,27183
15395,26963
15356,26743
15245,26549
" /> 
<polyline fill="none;"
points="6795,4419
6607,4577
6375,4661
6129,4661
5897,4577
5708,4419
5585,4205
5542,3963
5585,3720
5708,3506
5897,3348
6129,3264
6375,3264
6607,3348
6795,3506
6919,3720
6961,3963
6919,4205
6795,4419
" /> 
<polyline fill="none;"
points="6750,3544
6577,3399
6365,3322
6139,3322
5927,3399
5753,3544
5641,3740
5601,3963
5641,4185
5753,4381
5927,4526
6139,4603
6365,4603
6577,4526
6750,4381
6863,4185
6902,3963
6863,3740
6750,3544
" /> 
<polyline fill="none;"
points="15290,4414
15103,4571
14874,4654
14630,4654
14401,4571
14214,4414
14092,4203
14050,3963
14092,3722
14214,3511
14401,3354
14630,3271
14874,3271
15103,3354
15290,3511
15412,3722
15454,3963
15412,4203
15290,4414
" /> 
<polyline fill="none;"
points="15245,3549
15073,3406
14864,3329
14640,3329
14430,3406
14259,3549
14147,3743
14109,3963
14147,4183
14259,4376
14430,4520
14640,4596
14864,4596
15073,4520
15245,4376
15356,4183
15395,3963
15356,3743
15245,3549
" /> 
</g> 
</svg>
